<svg width="210" height="210" viewBox="0 0 210 210" fill="none" xmlns="http://www.w3.org/2000/svg">
<rect width="210" height="210" rx="20" fill="url(#paint0_radial_341_362)"/>
<rect width="210" height="210" rx="20" fill="#D0D5DF"/>
<g clip-path="url(#clip0_341_362)">
<path d="M73.197 139.097C72.4805 137.256 71.8354 135.593 71.1814 133.931C68.3756 126.808 65.5698 119.685 62.7573 112.563C62.0765 110.839 62.4894 109.948 64.255 109.483C77.5921 105.979 90.9314 102.474 104.275 98.9945C104.751 98.8711 105.313 98.8733 105.789 98.999C119.061 102.463 132.326 105.945 145.59 109.436C147.581 109.959 147.949 110.797 147.181 112.732C143.867 121.099 140.561 129.471 137.255 137.842C137.108 138.215 136.996 138.601 136.849 139.039C137.989 139.171 139.052 139.158 140.032 139.441C141.773 139.944 143.518 140.503 145.161 141.261C147.28 142.238 149.393 143.037 151.764 143.089C153.82 143.131 155.085 144.404 154.994 146.149C154.902 147.907 153.509 149.031 151.498 148.962C148.637 148.863 145.902 148.27 143.351 146.91C141.398 145.866 139.367 145.134 137.105 145.04C134.302 144.923 131.764 145.653 129.3 146.939C124.829 149.276 120.103 149.521 115.313 148.219C113.646 147.765 112.088 146.894 110.487 146.198C106.809 144.597 103.068 144.452 99.4849 146.259C95.4492 148.297 91.2952 149.516 86.8041 148.755C84.6747 148.394 82.5162 147.761 80.5742 146.822C77.6546 145.415 74.6858 144.629 71.5184 145.224C69.8331 145.54 68.1702 146.203 66.6166 146.959C63.9113 148.277 61.0921 148.942 58.1166 148.962C55.6546 148.98 54.2282 146.566 55.4336 144.505C55.9448 143.632 56.726 143.111 57.7171 143.123C60.5608 143.152 63.0898 142.166 65.5698 140.889C67.8823 139.697 70.3934 139.191 73.1948 139.102L73.197 139.097ZM134.242 116.773C134.266 115.289 133.376 114.202 131.746 113.773C123.302 111.551 114.86 109.315 106.402 107.151C105.514 106.924 104.472 106.951 103.579 107.171C98.9247 108.316 94.2952 109.562 89.659 110.776C85.8131 111.784 81.9693 112.795 78.1256 113.814C76.6836 114.196 75.8309 115.208 75.7617 116.573C75.697 117.848 76.4314 119.13 77.659 119.424C78.4448 119.613 79.3644 119.552 80.1568 119.348C88.2171 117.273 96.2617 115.143 104.318 113.053C104.757 112.938 105.275 112.936 105.713 113.048C110.824 114.357 115.927 115.695 121.032 117.033C124.123 117.844 127.204 118.688 130.297 119.485C132.427 120.033 134.213 118.787 134.244 116.775L134.242 116.773Z" fill="#7D7D7D"/>
<path d="M74.9104 100.564C74.9104 98.1819 74.9104 95.9773 74.9104 93.7727C74.9104 89.918 74.906 86.0656 74.9104 82.2109C74.9127 80.3161 75.589 79.6314 77.4595 79.6314C95.8011 79.6291 114.14 79.6314 132.482 79.6314C134.424 79.6314 135.085 80.3004 135.087 82.267C135.091 87.9536 135.087 93.6425 135.087 99.3291V100.58C132.77 99.9802 130.587 99.4189 128.404 98.8464C121.031 96.9157 113.663 94.9581 106.279 93.0745C105.455 92.8657 104.486 92.8792 103.663 93.0902C94.4439 95.4632 85.2408 97.8945 76.0332 100.308C75.7185 100.391 75.397 100.452 74.9082 100.562L74.9104 100.564Z" fill="#7D7D7D"/>
<path d="M113.81 73.7426H96.1758C96.1758 72.2227 96.1758 70.7388 96.1758 69.2548C96.1758 68.2086 96.1512 67.1602 96.1892 66.1141C96.2941 63.2359 98.2651 61.1638 101.124 61.0673C103.723 60.9797 106.33 60.9707 108.928 61.0718C111.741 61.1818 113.718 63.2382 113.794 66.0602C113.861 68.5925 113.807 71.1272 113.807 73.7404L113.81 73.7426Z" fill="#7D7D7D"/>
</g>
<defs>
<radialGradient id="paint0_radial_341_362" cx="0" cy="0" r="1" gradientTransform="matrix(232.312 -256.164 256.164 690.584 -17.325 235.797)" gradientUnits="userSpaceOnUse">
<stop stop-color="#BFEAFF"/>
<stop offset="1" stop-color="#B0C3F4"/>
</radialGradient>
<clipPath id="clip0_341_362">
<rect width="100" height="88" fill="white" transform="translate(55 61)"/>
</clipPath>
</defs>
</svg>
