<svg width="583" height="338" viewBox="0 0 583 338" fill="none" xmlns="http://www.w3.org/2000/svg">
<rect width="583" height="338" rx="20" fill="url(#paint0_radial_375_360)"/>
<rect x="44" y="47" width="96" height="97" rx="48" fill="#F3F3F3"/>
<path fill-rule="evenodd" clip-rule="evenodd" d="M106.401 85.8C106.401 93.8357 99.9535 100.35 92.0006 100.35C84.0477 100.35 77.6006 93.8357 77.6006 85.8C77.6006 77.7643 84.0477 71.25 92.0006 71.25C99.9535 71.25 106.401 77.7643 106.401 85.8ZM101.601 85.8C101.601 91.1572 97.3025 95.5 92.0006 95.5C86.6987 95.5 82.4006 91.1572 82.4006 85.8C82.4006 80.4428 86.6987 76.1 92.0006 76.1C97.3025 76.1 101.601 80.4428 101.601 85.8Z" fill="#1C1C8A"/>
<path d="M92.0006 107.625C76.4621 107.625 63.2228 116.909 58.1797 129.916C59.4082 131.148 60.7024 132.314 62.0565 133.408C65.8119 121.466 77.5927 112.475 92.0006 112.475C106.408 112.475 118.189 121.466 121.945 133.408C123.299 132.314 124.593 131.148 125.822 129.916C120.778 116.909 107.539 107.625 92.0006 107.625Z" fill="#1C1C8A"/>
<path d="M170.72 71H173.4V82.72H179.44V85H170.72V71ZM183.72 80.28C183.72 81.0533 183.92 81.6667 184.32 82.12C184.734 82.56 185.3 82.78 186.02 82.78C186.86 82.7533 187.514 82.44 187.98 81.84C188.46 81.24 188.7 80.4867 188.7 79.58H189.38C189.38 80.8733 189.2 81.9267 188.84 82.74C188.48 83.54 187.974 84.1333 187.32 84.52C186.667 84.8933 185.887 85.0867 184.98 85.1C184.18 85.1 183.487 84.9333 182.9 84.6C182.327 84.2667 181.88 83.7933 181.56 83.18C181.254 82.5533 181.1 81.82 181.1 80.98V74.34H183.72V80.28ZM188.7 74.34H191.32V85H188.7V74.34ZM194.565 74.34H197.165V85H194.565V74.34ZM196.625 69.82L199.125 70.84L196.565 72.86L194.545 72.66L196.625 69.82ZM206.726 77.12C206.206 76.8133 205.666 76.58 205.106 76.42C204.546 76.2467 204.039 76.16 203.586 76.16C203.159 76.16 202.812 76.24 202.546 76.4C202.279 76.5467 202.146 76.8 202.146 77.16C202.146 77.4667 202.279 77.7133 202.546 77.9C202.826 78.0867 203.179 78.2467 203.606 78.38C204.032 78.5 204.486 78.6333 204.966 78.78C205.446 78.9267 205.899 79.12 206.326 79.36C206.766 79.6 207.119 79.92 207.386 80.32C207.666 80.72 207.806 81.2467 207.806 81.9C207.806 82.62 207.612 83.22 207.226 83.7C206.839 84.1667 206.326 84.52 205.686 84.76C205.046 84.9867 204.346 85.1 203.586 85.1C202.786 85.1 201.986 84.9733 201.186 84.72C200.399 84.4667 199.726 84.0933 199.166 83.6L200.066 81.86C200.559 82.2867 201.139 82.62 201.806 82.86C202.486 83.0867 203.112 83.2 203.686 83.2C203.992 83.2 204.266 83.16 204.506 83.08C204.746 83 204.932 82.8867 205.066 82.74C205.199 82.58 205.266 82.3733 205.266 82.12C205.266 81.7733 205.132 81.5067 204.866 81.32C204.599 81.12 204.252 80.9533 203.826 80.82C203.412 80.6733 202.966 80.5333 202.486 80.4C202.006 80.2533 201.552 80.0667 201.126 79.84C200.712 79.6 200.372 79.2867 200.106 78.9C199.839 78.5133 199.706 78 199.706 77.36C199.706 76.64 199.892 76.0467 200.266 75.58C200.639 75.1133 201.132 74.7733 201.746 74.56C202.359 74.3333 203.026 74.22 203.746 74.22C204.439 74.22 205.132 74.32 205.826 74.52C206.519 74.7067 207.132 74.9733 207.666 75.32L206.726 77.12ZM222.545 80.64C222.545 82.0667 222.145 83.1733 221.345 83.96C220.545 84.7333 219.451 85.12 218.065 85.12C217.185 85.12 216.378 84.94 215.645 84.58C214.925 84.2067 214.291 83.7 213.745 83.06L215.005 81.14C215.485 81.6467 215.985 82.0333 216.505 82.3C217.025 82.5667 217.518 82.7 217.985 82.7C218.558 82.7 219.011 82.52 219.345 82.16C219.678 81.7867 219.845 81.26 219.845 80.58V73.26H215.025V71H222.545V80.64ZM230.28 74.24C231.387 74.24 232.36 74.4667 233.2 74.92C234.054 75.3733 234.714 76.0067 235.18 76.82C235.66 77.6333 235.9 78.58 235.9 79.66C235.9 80.74 235.66 81.6867 235.18 82.5C234.714 83.3133 234.054 83.9533 233.2 84.42C232.36 84.8733 231.387 85.1 230.28 85.1C229.16 85.1 228.174 84.8733 227.32 84.42C226.467 83.9533 225.8 83.3133 225.32 82.5C224.854 81.6867 224.62 80.74 224.62 79.66C224.62 78.58 224.854 77.6333 225.32 76.82C225.8 76.0067 226.467 75.3733 227.32 74.92C228.174 74.4667 229.16 74.24 230.28 74.24ZM230.28 76.34C229.68 76.34 229.147 76.4867 228.68 76.78C228.227 77.06 227.874 77.4533 227.62 77.96C227.367 78.4533 227.24 79.0267 227.24 79.68C227.24 80.3467 227.367 80.9333 227.62 81.44C227.874 81.9467 228.227 82.34 228.68 82.62C229.147 82.9 229.68 83.04 230.28 83.04C230.867 83.04 231.387 82.9 231.84 82.62C232.294 82.34 232.647 81.9467 232.9 81.44C233.154 80.9333 233.28 80.3467 233.28 79.68C233.28 79.0267 233.154 78.4533 232.9 77.96C232.647 77.4533 232.294 77.06 231.84 76.78C231.387 76.4867 230.867 76.34 230.28 76.34ZM244.499 77.12C243.979 76.8133 243.439 76.58 242.879 76.42C242.319 76.2467 241.812 76.16 241.359 76.16C240.932 76.16 240.586 76.24 240.319 76.4C240.052 76.5467 239.919 76.8 239.919 77.16C239.919 77.4667 240.052 77.7133 240.319 77.9C240.599 78.0867 240.952 78.2467 241.379 78.38C241.806 78.5 242.259 78.6333 242.739 78.78C243.219 78.9267 243.672 79.12 244.099 79.36C244.539 79.6 244.892 79.92 245.159 80.32C245.439 80.72 245.579 81.2467 245.579 81.9C245.579 82.62 245.386 83.22 244.999 83.7C244.612 84.1667 244.099 84.52 243.459 84.76C242.819 84.9867 242.119 85.1 241.359 85.1C240.559 85.1 239.759 84.9733 238.959 84.72C238.172 84.4667 237.499 84.0933 236.939 83.6L237.839 81.86C238.332 82.2867 238.912 82.62 239.579 82.86C240.259 83.0867 240.886 83.2 241.459 83.2C241.766 83.2 242.039 83.16 242.279 83.08C242.519 83 242.706 82.8867 242.839 82.74C242.972 82.58 243.039 82.3733 243.039 82.12C243.039 81.7733 242.906 81.5067 242.639 81.32C242.372 81.12 242.026 80.9533 241.599 80.82C241.186 80.6733 240.739 80.5333 240.259 80.4C239.779 80.2533 239.326 80.0667 238.899 79.84C238.486 79.6 238.146 79.2867 237.879 78.9C237.612 78.5133 237.479 78 237.479 77.36C237.479 76.64 237.666 76.0467 238.039 75.58C238.412 75.1133 238.906 74.7733 239.519 74.56C240.132 74.3333 240.799 74.22 241.519 74.22C242.212 74.22 242.906 74.32 243.599 74.52C244.292 74.7067 244.906 74.9733 245.439 75.32L244.499 77.12ZM255.028 78.86C255.001 78.3 254.874 77.8267 254.648 77.44C254.421 77.04 254.101 76.7333 253.688 76.52C253.288 76.2933 252.828 76.18 252.308 76.18C251.708 76.18 251.188 76.32 250.748 76.6C250.308 76.88 249.961 77.2733 249.708 77.78C249.468 78.2867 249.348 78.8733 249.348 79.54C249.348 80.2733 249.481 80.9067 249.748 81.44C250.028 81.9733 250.408 82.3867 250.888 82.68C251.368 82.96 251.921 83.1 252.548 83.1C253.681 83.1 254.648 82.6933 255.448 81.88L256.828 83.26C256.294 83.8467 255.648 84.3 254.888 84.62C254.128 84.94 253.281 85.1 252.348 85.1C251.228 85.1 250.254 84.8733 249.428 84.42C248.614 83.9533 247.974 83.32 247.507 82.52C247.054 81.7067 246.828 80.76 246.828 79.68C246.828 78.6 247.054 77.6533 247.507 76.84C247.974 76.0267 248.614 75.3933 249.428 74.94C250.254 74.4867 251.201 74.2533 252.268 74.24C253.534 74.24 254.554 74.5 255.328 75.02C256.114 75.54 256.674 76.2733 257.008 77.22C257.341 78.1533 257.461 79.2667 257.368 80.56H248.968V78.86H255.028ZM252.928 69.82L255.428 70.84L252.868 72.86L250.848 72.66L252.928 69.82ZM269.554 71H272.294L278.354 85H275.494L270.834 73.7L266.194 85H263.394L269.554 71ZM266.614 79.76H274.954V81.94H266.614V79.76ZM287.755 79.04C287.755 78.2667 287.542 77.66 287.115 77.22C286.702 76.78 286.122 76.56 285.375 76.56C284.509 76.56 283.822 76.8667 283.315 77.48C282.822 78.08 282.575 78.84 282.575 79.76H281.875C281.875 78.4533 282.055 77.4 282.415 76.6C282.789 75.7867 283.315 75.1933 283.995 74.82C284.689 74.4333 285.495 74.24 286.415 74.24C287.242 74.24 287.949 74.4067 288.535 74.74C289.122 75.0733 289.575 75.5467 289.895 76.16C290.215 76.76 290.375 77.4867 290.375 78.34V85H287.755V79.04ZM279.975 74.34H282.575V85H279.975V74.34ZM296.316 81.52C296.316 82.0533 296.416 82.42 296.616 82.62C296.816 82.82 297.089 82.92 297.436 82.92C297.649 82.92 297.882 82.8867 298.136 82.82C298.389 82.74 298.662 82.62 298.956 82.46L299.556 84.34C299.156 84.58 298.722 84.7733 298.256 84.92C297.802 85.0533 297.342 85.12 296.876 85.12C296.302 85.12 295.776 85.0133 295.296 84.8C294.816 84.5733 294.436 84.2267 294.156 83.76C293.876 83.28 293.736 82.68 293.736 81.96V71.82H296.316V81.52ZM292.236 74.74H299.376V76.56H292.236V74.74ZM306.179 74.24C307.286 74.24 308.259 74.4667 309.099 74.92C309.952 75.3733 310.612 76.0067 311.079 76.82C311.559 77.6333 311.799 78.58 311.799 79.66C311.799 80.74 311.559 81.6867 311.079 82.5C310.612 83.3133 309.952 83.9533 309.099 84.42C308.259 84.8733 307.286 85.1 306.179 85.1C305.059 85.1 304.072 84.8733 303.219 84.42C302.366 83.9533 301.699 83.3133 301.219 82.5C300.752 81.6867 300.519 80.74 300.519 79.66C300.519 78.58 300.752 77.6333 301.219 76.82C301.699 76.0067 302.366 75.3733 303.219 74.92C304.072 74.4667 305.059 74.24 306.179 74.24ZM306.179 76.34C305.579 76.34 305.046 76.4867 304.579 76.78C304.126 77.06 303.772 77.4533 303.519 77.96C303.266 78.4533 303.139 79.0267 303.139 79.68C303.139 80.3467 303.266 80.9333 303.519 81.44C303.772 81.9467 304.126 82.34 304.579 82.62C305.046 82.9 305.579 83.04 306.179 83.04C306.766 83.04 307.286 82.9 307.739 82.62C308.192 82.34 308.546 81.9467 308.799 81.44C309.052 80.9333 309.179 80.3467 309.179 79.68C309.179 79.0267 309.052 78.4533 308.799 77.96C308.546 77.4533 308.192 77.06 307.739 76.78C307.286 76.4867 306.766 76.34 306.179 76.34ZM306.919 69.82L309.419 70.84L306.859 72.86L304.839 72.66L306.919 69.82ZM321.838 79.04C321.838 78.2667 321.624 77.66 321.198 77.22C320.784 76.78 320.204 76.56 319.458 76.56C318.591 76.56 317.904 76.8667 317.398 77.48C316.904 78.08 316.658 78.84 316.658 79.76H315.958C315.958 78.4533 316.138 77.4 316.498 76.6C316.871 75.7867 317.398 75.1933 318.078 74.82C318.771 74.4333 319.578 74.24 320.498 74.24C321.324 74.24 322.031 74.4067 322.618 74.74C323.204 75.0733 323.658 75.5467 323.978 76.16C324.298 76.76 324.458 77.4867 324.458 78.34V85H321.838V79.04ZM314.058 74.34H316.658V85H314.058V74.34ZM327.378 74.34H329.978V85H327.378V74.34ZM328.658 69.8C329.084 69.8 329.438 69.94 329.718 70.22C329.998 70.5 330.138 70.8533 330.138 71.28C330.138 71.6933 329.998 72.0467 329.718 72.34C329.438 72.62 329.084 72.76 328.658 72.76C328.244 72.76 327.898 72.62 327.618 72.34C327.338 72.0467 327.198 71.6933 327.198 71.28C327.198 70.8533 327.338 70.5 327.618 70.22C327.898 69.94 328.244 69.8 328.658 69.8ZM337.878 74.24C338.985 74.24 339.958 74.4667 340.798 74.92C341.651 75.3733 342.311 76.0067 342.778 76.82C343.258 77.6333 343.498 78.58 343.498 79.66C343.498 80.74 343.258 81.6867 342.778 82.5C342.311 83.3133 341.651 83.9533 340.798 84.42C339.958 84.8733 338.985 85.1 337.878 85.1C336.758 85.1 335.771 84.8733 334.918 84.42C334.065 83.9533 333.398 83.3133 332.918 82.5C332.451 81.6867 332.218 80.74 332.218 79.66C332.218 78.58 332.451 77.6333 332.918 76.82C333.398 76.0067 334.065 75.3733 334.918 74.92C335.771 74.4667 336.758 74.24 337.878 74.24ZM337.878 76.34C337.278 76.34 336.745 76.4867 336.278 76.78C335.825 77.06 335.471 77.4533 335.218 77.96C334.965 78.4533 334.838 79.0267 334.838 79.68C334.838 80.3467 334.965 80.9333 335.218 81.44C335.471 81.9467 335.825 82.34 336.278 82.62C336.745 82.9 337.278 83.04 337.878 83.04C338.465 83.04 338.985 82.9 339.438 82.62C339.891 82.34 340.245 81.9467 340.498 81.44C340.751 80.9333 340.878 80.3467 340.878 79.68C340.878 79.0267 340.751 78.4533 340.498 77.96C340.245 77.4533 339.891 77.06 339.438 76.78C338.985 76.4867 338.465 76.34 337.878 76.34Z" fill="white"/>
<path d="M170.72 108H173.4V122H170.72V108ZM180.793 111.22C181.767 111.22 182.593 111.44 183.273 111.88C183.953 112.32 184.473 112.947 184.833 113.76C185.193 114.56 185.367 115.527 185.353 116.66C185.367 117.78 185.193 118.753 184.833 119.58C184.487 120.393 183.973 121.02 183.293 121.46C182.613 121.887 181.8 122.1 180.853 122.1C179.84 122.1 178.947 121.873 178.173 121.42C177.413 120.953 176.82 120.307 176.393 119.48C175.967 118.653 175.753 117.707 175.753 116.64C175.753 115.56 175.967 114.613 176.393 113.8C176.82 112.987 177.407 112.353 178.153 111.9C178.913 111.447 179.793 111.22 180.793 111.22ZM181.413 113.32C180.827 113.32 180.3 113.467 179.833 113.76C179.38 114.053 179.027 114.453 178.773 114.96C178.52 115.467 178.387 116.047 178.373 116.7C178.387 117.353 178.52 117.933 178.773 118.44C179.027 118.947 179.38 119.347 179.833 119.64C180.3 119.92 180.827 120.06 181.413 120.06C182.013 120.06 182.54 119.92 182.993 119.64C183.46 119.347 183.82 118.947 184.073 118.44C184.327 117.933 184.453 117.353 184.453 116.7C184.453 116.033 184.327 115.453 184.073 114.96C183.82 114.453 183.46 114.053 182.993 113.76C182.54 113.467 182.013 113.32 181.413 113.32ZM184.453 107.16H187.053V122H184.453V107.16ZM197.606 115.86C197.579 115.3 197.452 114.827 197.226 114.44C196.999 114.04 196.679 113.733 196.266 113.52C195.866 113.293 195.406 113.18 194.886 113.18C194.286 113.18 193.766 113.32 193.326 113.6C192.886 113.88 192.539 114.273 192.286 114.78C192.046 115.287 191.926 115.873 191.926 116.54C191.926 117.273 192.059 117.907 192.326 118.44C192.606 118.973 192.986 119.387 193.466 119.68C193.946 119.96 194.499 120.1 195.126 120.1C196.259 120.1 197.226 119.693 198.026 118.88L199.406 120.26C198.872 120.847 198.226 121.3 197.466 121.62C196.706 121.94 195.859 122.1 194.926 122.1C193.806 122.1 192.832 121.873 192.006 121.42C191.192 120.953 190.552 120.32 190.086 119.52C189.632 118.707 189.406 117.76 189.406 116.68C189.406 115.6 189.632 114.653 190.086 113.84C190.552 113.027 191.192 112.393 192.006 111.94C192.832 111.487 193.779 111.253 194.846 111.24C196.112 111.24 197.132 111.5 197.906 112.02C198.692 112.54 199.252 113.273 199.586 114.22C199.919 115.153 200.039 116.267 199.946 117.56H191.546V115.86H197.606ZM210.002 116.04C210.002 115.267 209.788 114.66 209.362 114.22C208.948 113.78 208.368 113.56 207.622 113.56C206.755 113.56 206.068 113.867 205.562 114.48C205.068 115.08 204.822 115.84 204.822 116.76H204.122C204.122 115.453 204.302 114.4 204.662 113.6C205.035 112.787 205.562 112.193 206.242 111.82C206.935 111.433 207.742 111.24 208.662 111.24C209.488 111.24 210.195 111.407 210.782 111.74C211.368 112.073 211.822 112.547 212.142 113.16C212.462 113.76 212.622 114.487 212.622 115.34V122H210.002V116.04ZM202.222 111.34H204.822V122H202.222V111.34ZM218.562 118.52C218.562 119.053 218.662 119.42 218.862 119.62C219.062 119.82 219.335 119.92 219.682 119.92C219.895 119.92 220.129 119.887 220.382 119.82C220.635 119.74 220.909 119.62 221.202 119.46L221.802 121.34C221.402 121.58 220.969 121.773 220.502 121.92C220.049 122.053 219.589 122.12 219.122 122.12C218.549 122.12 218.022 122.013 217.542 121.8C217.062 121.573 216.682 121.227 216.402 120.76C216.122 120.28 215.982 119.68 215.982 118.96V108.82H218.562V118.52ZM214.482 111.74H221.622V113.56H214.482V111.74ZM223.843 111.34H226.443V122H223.843V111.34ZM225.123 106.8C225.549 106.8 225.903 106.94 226.183 107.22C226.463 107.5 226.603 107.853 226.603 108.28C226.603 108.693 226.463 109.047 226.183 109.34C225.903 109.62 225.549 109.76 225.123 109.76C224.709 109.76 224.363 109.62 224.083 109.34C223.803 109.047 223.663 108.693 223.663 108.28C223.663 107.853 223.803 107.5 224.083 107.22C224.363 106.94 224.709 106.8 225.123 106.8ZM230.143 110.72C230.143 109.893 230.323 109.207 230.683 108.66C231.043 108.113 231.51 107.707 232.083 107.44C232.656 107.173 233.276 107.04 233.943 107.04C234.276 107.04 234.61 107.087 234.943 107.18C235.29 107.26 235.61 107.373 235.903 107.52L235.443 109.5C235.243 109.42 235.03 109.347 234.803 109.28C234.576 109.213 234.35 109.18 234.123 109.18C233.883 109.167 233.656 109.213 233.443 109.32C233.23 109.413 233.056 109.567 232.923 109.78C232.803 109.98 232.743 110.247 232.743 110.58V122H230.143V110.72ZM228.743 111.74H235.423V113.56H228.743V111.74ZM236.963 111.34H239.563V122H236.963V111.34ZM238.243 106.8C238.67 106.8 239.023 106.94 239.303 107.22C239.583 107.5 239.723 107.853 239.723 108.28C239.723 108.693 239.583 109.047 239.303 109.34C239.023 109.62 238.67 109.76 238.243 109.76C237.83 109.76 237.483 109.62 237.203 109.34C236.923 109.047 236.783 108.693 236.783 108.28C236.783 107.853 236.923 107.5 237.203 107.22C237.483 106.94 237.83 106.8 238.243 106.8ZM250.148 114.58C249.815 114.207 249.408 113.92 248.928 113.72C248.461 113.507 247.935 113.4 247.348 113.4C246.775 113.4 246.268 113.54 245.828 113.82C245.388 114.087 245.041 114.467 244.788 114.96C244.548 115.453 244.428 116.027 244.428 116.68C244.428 117.333 244.548 117.907 244.788 118.4C245.041 118.893 245.388 119.28 245.828 119.56C246.268 119.84 246.775 119.98 247.348 119.98C247.961 119.98 248.515 119.873 249.008 119.66C249.501 119.447 249.908 119.127 250.228 118.7L251.848 120.02C251.381 120.673 250.755 121.187 249.968 121.56C249.181 121.92 248.268 122.1 247.228 122.1C246.161 122.1 245.221 121.873 244.408 121.42C243.595 120.953 242.955 120.32 242.488 119.52C242.035 118.707 241.808 117.76 241.808 116.68C241.808 115.6 242.035 114.653 242.488 113.84C242.955 113.027 243.595 112.393 244.408 111.94C245.221 111.473 246.161 111.24 247.228 111.24C248.228 111.24 249.108 111.407 249.868 111.74C250.628 112.06 251.255 112.513 251.748 113.1L250.148 114.58ZM257.286 117.3C256.606 117.3 256.1 117.407 255.766 117.62C255.433 117.833 255.266 118.187 255.266 118.68C255.266 119.133 255.433 119.5 255.766 119.78C256.113 120.06 256.58 120.2 257.166 120.2C257.686 120.2 258.153 120.113 258.566 119.94C258.993 119.753 259.326 119.507 259.566 119.2C259.82 118.88 259.966 118.527 260.006 118.14L260.446 120C260.126 120.693 259.633 121.22 258.966 121.58C258.3 121.94 257.493 122.12 256.546 122.12C255.786 122.12 255.126 121.973 254.566 121.68C254.006 121.387 253.573 120.993 253.266 120.5C252.96 119.993 252.806 119.427 252.806 118.8C252.806 117.813 253.16 117.04 253.866 116.48C254.573 115.907 255.573 115.613 256.866 115.6H260.286V117.3H257.286ZM259.986 115.28C259.986 114.64 259.78 114.14 259.366 113.78C258.966 113.407 258.366 113.22 257.566 113.22C257.073 113.22 256.553 113.313 256.006 113.5C255.473 113.673 254.933 113.927 254.386 114.26L253.446 112.58C253.953 112.273 254.44 112.027 254.906 111.84C255.373 111.64 255.86 111.493 256.366 111.4C256.886 111.293 257.48 111.24 258.146 111.24C259.546 111.24 260.626 111.573 261.386 112.24C262.146 112.907 262.533 113.827 262.546 115L262.566 122H260.006L259.986 115.28ZM272.843 114.58C272.51 114.207 272.103 113.92 271.623 113.72C271.157 113.507 270.63 113.4 270.043 113.4C269.47 113.4 268.963 113.54 268.523 113.82C268.083 114.087 267.737 114.467 267.483 114.96C267.243 115.453 267.123 116.027 267.123 116.68C267.123 117.333 267.243 117.907 267.483 118.4C267.737 118.893 268.083 119.28 268.523 119.56C268.963 119.84 269.47 119.98 270.043 119.98C270.657 119.98 271.21 119.873 271.703 119.66C272.197 119.447 272.603 119.127 272.923 118.7L274.543 120.02C274.077 120.673 273.45 121.187 272.663 121.56C271.877 121.92 270.963 122.1 269.923 122.1C268.857 122.1 267.917 121.873 267.103 121.42C266.29 120.953 265.65 120.32 265.183 119.52C264.73 118.707 264.503 117.76 264.503 116.68C264.503 115.6 264.73 114.653 265.183 113.84C265.65 113.027 266.29 112.393 267.103 111.94C267.917 111.473 268.857 111.24 269.923 111.24C270.923 111.24 271.803 111.407 272.563 111.74C273.323 112.06 273.95 112.513 274.443 113.1L272.843 114.58ZM269.083 121.84L270.703 122L270.303 123.04C270.903 123.147 271.323 123.347 271.563 123.64C271.817 123.947 271.943 124.28 271.943 124.64C271.943 125.04 271.83 125.373 271.603 125.64C271.39 125.907 271.103 126.107 270.743 126.24C270.397 126.373 270.003 126.44 269.563 126.44C269.217 126.44 268.863 126.4 268.503 126.32C268.157 126.24 267.843 126.14 267.563 126.02L268.043 124.64C268.217 124.707 268.403 124.76 268.603 124.8C268.817 124.853 269.01 124.88 269.183 124.88C269.45 124.88 269.65 124.827 269.783 124.72C269.93 124.627 270.003 124.52 270.003 124.4C270.003 124.24 269.917 124.113 269.743 124.02C269.583 123.94 269.337 123.9 269.003 123.9C268.923 123.9 268.817 123.9 268.683 123.9C268.55 123.9 268.457 123.9 268.403 123.9L269.083 121.84ZM279.982 117.3C279.302 117.3 278.795 117.407 278.462 117.62C278.128 117.833 277.962 118.187 277.962 118.68C277.962 119.133 278.128 119.5 278.462 119.78C278.808 120.06 279.275 120.2 279.862 120.2C280.382 120.2 280.848 120.113 281.262 119.94C281.688 119.753 282.022 119.507 282.262 119.2C282.515 118.88 282.662 118.527 282.702 118.14L283.142 120C282.822 120.693 282.328 121.22 281.662 121.58C280.995 121.94 280.188 122.12 279.242 122.12C278.482 122.12 277.822 121.973 277.262 121.68C276.702 121.387 276.268 120.993 275.962 120.5C275.655 119.993 275.502 119.427 275.502 118.8C275.502 117.813 275.855 117.04 276.562 116.48C277.268 115.907 278.268 115.613 279.562 115.6H282.982V117.3H279.982ZM282.682 115.28C282.682 114.64 282.475 114.14 282.062 113.78C281.662 113.407 281.062 113.22 280.262 113.22C279.768 113.22 279.248 113.313 278.702 113.5C278.168 113.673 277.628 113.927 277.082 114.26L276.142 112.58C276.648 112.273 277.135 112.027 277.602 111.84C278.068 111.64 278.555 111.493 279.062 111.4C279.582 111.293 280.175 111.24 280.842 111.24C282.242 111.24 283.322 111.573 284.082 112.24C284.842 112.907 285.228 113.827 285.242 115L285.262 122H282.702L282.682 115.28ZM283.962 107.22C283.962 107.713 283.908 108.167 283.802 108.58C283.695 108.993 283.515 109.327 283.262 109.58C283.008 109.82 282.655 109.94 282.202 109.94C281.922 109.94 281.648 109.893 281.382 109.8C281.128 109.707 280.888 109.593 280.662 109.46C280.435 109.327 280.228 109.213 280.042 109.12C279.855 109.027 279.688 108.98 279.542 108.98C279.328 108.98 279.182 109.067 279.102 109.24C279.035 109.413 279.002 109.627 279.002 109.88H277.342C277.342 109.373 277.395 108.913 277.502 108.5C277.608 108.087 277.788 107.76 278.042 107.52C278.295 107.267 278.642 107.14 279.082 107.14C279.362 107.14 279.628 107.187 279.882 107.28C280.148 107.373 280.395 107.487 280.622 107.62C280.848 107.753 281.055 107.873 281.242 107.98C281.428 108.073 281.595 108.12 281.742 108.12C281.968 108.12 282.115 108.033 282.182 107.86C282.248 107.687 282.282 107.473 282.282 107.22H283.962ZM292.859 111.24C293.965 111.24 294.939 111.467 295.779 111.92C296.632 112.373 297.292 113.007 297.759 113.82C298.239 114.633 298.479 115.58 298.479 116.66C298.479 117.74 298.239 118.687 297.759 119.5C297.292 120.313 296.632 120.953 295.779 121.42C294.939 121.873 293.965 122.1 292.859 122.1C291.739 122.1 290.752 121.873 289.899 121.42C289.045 120.953 288.379 120.313 287.899 119.5C287.432 118.687 287.199 117.74 287.199 116.66C287.199 115.58 287.432 114.633 287.899 113.82C288.379 113.007 289.045 112.373 289.899 111.92C290.752 111.467 291.739 111.24 292.859 111.24ZM292.859 113.34C292.259 113.34 291.725 113.487 291.259 113.78C290.805 114.06 290.452 114.453 290.199 114.96C289.945 115.453 289.819 116.027 289.819 116.68C289.819 117.347 289.945 117.933 290.199 118.44C290.452 118.947 290.805 119.34 291.259 119.62C291.725 119.9 292.259 120.04 292.859 120.04C293.445 120.04 293.965 119.9 294.419 119.62C294.872 119.34 295.225 118.947 295.479 118.44C295.732 117.933 295.859 117.347 295.859 116.68C295.859 116.027 295.732 115.453 295.479 114.96C295.225 114.453 294.872 114.06 294.419 113.78C293.965 113.487 293.445 113.34 292.859 113.34ZM301.357 113.48C301.757 113.48 302.084 113.607 302.337 113.86C302.604 114.113 302.737 114.44 302.737 114.84C302.737 115.253 302.604 115.593 302.337 115.86C302.084 116.113 301.757 116.24 301.357 116.24C300.971 116.24 300.644 116.113 300.377 115.86C300.124 115.593 299.997 115.253 299.997 114.84C299.997 114.44 300.124 114.113 300.377 113.86C300.644 113.607 300.971 113.48 301.357 113.48ZM301.357 119.42C301.757 119.42 302.084 119.547 302.337 119.8C302.604 120.053 302.737 120.38 302.737 120.78C302.737 121.193 302.604 121.533 302.337 121.8C302.084 122.053 301.757 122.18 301.357 122.18C300.971 122.18 300.644 122.053 300.377 121.8C300.124 121.533 299.997 121.193 299.997 120.78C299.997 120.38 300.124 120.053 300.377 119.8C300.644 119.547 300.971 119.42 301.357 119.42ZM315.04 114.68C315.533 114.173 315.933 113.667 316.24 113.16C316.56 112.64 316.72 112.187 316.72 111.8C316.72 111.253 316.52 110.833 316.12 110.54C315.72 110.247 315.167 110.1 314.46 110.1C313.847 110.1 313.193 110.253 312.5 110.56C311.807 110.867 311.153 111.287 310.54 111.82L309.48 109.9C310.293 109.273 311.153 108.78 312.06 108.42C312.967 108.06 313.893 107.88 314.84 107.88C315.773 107.88 316.587 108.027 317.28 108.32C317.973 108.613 318.52 109.027 318.92 109.56C319.32 110.093 319.52 110.713 319.52 111.42C319.52 112.127 319.267 112.873 318.76 113.66C318.267 114.433 317.633 115.22 316.86 116.02L312.44 120.6L312.08 119.78H320.12V122H309.76V120.16L315.04 114.68ZM331.097 110.84C330.67 110.56 330.19 110.347 329.657 110.2C329.124 110.04 328.584 109.96 328.037 109.96C327.184 109.96 326.477 110.167 325.917 110.58C325.357 110.98 324.944 111.547 324.677 112.28C324.41 113 324.29 113.853 324.317 114.84C324.677 114.213 325.17 113.74 325.797 113.42C326.424 113.087 327.157 112.92 327.997 112.92C328.93 112.92 329.73 113.107 330.397 113.48C331.077 113.84 331.597 114.36 331.957 115.04C332.33 115.707 332.517 116.493 332.517 117.4C332.517 118.36 332.31 119.193 331.897 119.9C331.484 120.607 330.904 121.153 330.157 121.54C329.41 121.927 328.53 122.12 327.517 122.12C326.33 122.12 325.304 121.847 324.437 121.3C323.57 120.753 322.904 119.973 322.437 118.96C321.984 117.933 321.757 116.707 321.757 115.28C321.757 113.787 322.004 112.487 322.497 111.38C323.004 110.273 323.717 109.413 324.637 108.8C325.557 108.187 326.637 107.88 327.877 107.88C328.584 107.88 329.324 107.98 330.097 108.18C330.87 108.38 331.544 108.64 332.117 108.96L331.097 110.84ZM327.477 114.88C326.89 114.88 326.39 115 325.977 115.24C325.564 115.48 325.244 115.793 325.017 116.18C324.804 116.567 324.697 116.993 324.697 117.46C324.697 117.753 324.744 118.053 324.837 118.36C324.944 118.653 325.11 118.92 325.337 119.16C325.564 119.4 325.844 119.593 326.177 119.74C326.51 119.887 326.917 119.96 327.397 119.96C327.93 119.96 328.39 119.86 328.777 119.66C329.177 119.46 329.484 119.167 329.697 118.78C329.924 118.38 330.037 117.913 330.037 117.38C330.037 116.607 329.81 116 329.357 115.56C328.904 115.107 328.277 114.88 327.477 114.88ZM337.913 114.32L337.133 113.16C337.346 113.147 337.62 113.14 337.953 113.14C338.286 113.127 338.62 113.12 338.953 113.12C339.286 113.12 339.56 113.12 339.773 113.12C340.853 113.12 341.786 113.307 342.573 113.68C343.36 114.053 343.966 114.56 344.393 115.2C344.833 115.827 345.053 116.553 345.053 117.38C345.053 118.327 344.826 119.16 344.373 119.88C343.92 120.587 343.28 121.14 342.453 121.54C341.64 121.927 340.68 122.12 339.573 122.12C338.693 122.12 337.773 121.973 336.813 121.68C335.866 121.373 335.026 120.973 334.293 120.48L335.353 118.48C335.94 118.933 336.573 119.293 337.253 119.56C337.933 119.813 338.62 119.94 339.313 119.94C340.193 119.94 340.886 119.727 341.393 119.3C341.913 118.873 342.173 118.293 342.173 117.56C342.173 116.867 341.92 116.32 341.413 115.92C340.92 115.52 340.166 115.32 339.153 115.32C338.993 115.32 338.753 115.327 338.433 115.34C338.126 115.34 337.786 115.347 337.413 115.36C337.04 115.373 336.673 115.393 336.313 115.42C335.966 115.447 335.673 115.473 335.433 115.5V108H344.433V110.22H336.713L337.913 109.04V114.32ZM352.575 113.86C353.842 113.967 354.862 114.353 355.635 115.02C356.422 115.673 356.815 116.547 356.815 117.64C356.815 118.52 356.589 119.3 356.135 119.98C355.682 120.647 355.042 121.173 354.215 121.56C353.389 121.933 352.402 122.12 351.255 122.12C350.295 122.12 349.349 121.98 348.415 121.7C347.495 121.407 346.715 121.027 346.075 120.56L347.135 118.58C347.695 119.033 348.315 119.387 348.995 119.64C349.675 119.893 350.369 120.02 351.075 120.02C351.729 120.02 352.289 119.927 352.755 119.74C353.222 119.54 353.575 119.267 353.815 118.92C354.069 118.56 354.195 118.153 354.195 117.7C354.195 116.967 353.915 116.413 353.355 116.04C352.795 115.667 352.022 115.48 351.035 115.48H348.915V113.94L353.635 109.3L353.995 110.18H346.775L346.755 108H356.115V109.56L350.935 114.6L350.615 113.66L352.575 113.86ZM362.171 114.32L361.391 113.16C361.604 113.147 361.878 113.14 362.211 113.14C362.544 113.127 362.878 113.12 363.211 113.12C363.544 113.12 363.818 113.12 364.031 113.12C365.111 113.12 366.044 113.307 366.831 113.68C367.618 114.053 368.224 114.56 368.651 115.2C369.091 115.827 369.311 116.553 369.311 117.38C369.311 118.327 369.084 119.16 368.631 119.88C368.178 120.587 367.538 121.14 366.711 121.54C365.898 121.927 364.938 122.12 363.831 122.12C362.951 122.12 362.031 121.973 361.071 121.68C360.124 121.373 359.284 120.973 358.551 120.48L359.611 118.48C360.198 118.933 360.831 119.293 361.511 119.56C362.191 119.813 362.878 119.94 363.571 119.94C364.451 119.94 365.144 119.727 365.651 119.3C366.171 118.873 366.431 118.293 366.431 117.56C366.431 116.867 366.178 116.32 365.671 115.92C365.178 115.52 364.424 115.32 363.411 115.32C363.251 115.32 363.011 115.327 362.691 115.34C362.384 115.34 362.044 115.347 361.671 115.36C361.298 115.373 360.931 115.393 360.571 115.42C360.224 115.447 359.931 115.473 359.691 115.5V108H368.691V110.22H360.971L362.171 109.04V114.32ZM372.373 119.14C372.787 119.433 373.26 119.66 373.793 119.82C374.327 119.967 374.86 120.04 375.393 120.04C376.26 120.04 376.967 119.84 377.513 119.44C378.073 119.027 378.48 118.453 378.733 117.72C379 116.973 379.127 116.113 379.113 115.14C378.74 115.78 378.247 116.267 377.633 116.6C377.02 116.92 376.287 117.08 375.433 117.08C374.527 117.08 373.733 116.9 373.053 116.54C372.387 116.167 371.873 115.647 371.513 114.98C371.153 114.3 370.973 113.507 370.973 112.6C370.973 111.627 371.18 110.793 371.593 110.1C372.007 109.393 372.58 108.847 373.313 108.46C374.06 108.073 374.933 107.88 375.933 107.88C377.12 107.88 378.14 108.153 378.993 108.7C379.847 109.247 380.507 110.033 380.973 111.06C381.44 112.073 381.673 113.293 381.673 114.72C381.673 116.213 381.42 117.513 380.913 118.62C380.42 119.727 379.713 120.587 378.793 121.2C377.887 121.813 376.813 122.12 375.573 122.12C374.853 122.12 374.107 122.02 373.333 121.82C372.573 121.62 371.907 121.353 371.333 121.02L372.373 119.14ZM376.053 110.02C375.533 110.02 375.073 110.127 374.673 110.34C374.287 110.54 373.98 110.833 373.753 111.22C373.54 111.607 373.433 112.073 373.433 112.62C373.433 113.38 373.66 113.987 374.113 114.44C374.567 114.893 375.187 115.12 375.973 115.12C376.56 115.12 377.06 115 377.473 114.76C377.887 114.52 378.2 114.207 378.413 113.82C378.627 113.42 378.727 112.987 378.713 112.52C378.713 112.227 378.66 111.933 378.553 111.64C378.46 111.333 378.307 111.06 378.093 110.82C377.88 110.58 377.6 110.387 377.253 110.24C376.92 110.093 376.52 110.02 376.053 110.02ZM389.01 107.88C389.984 107.88 390.824 108.033 391.53 108.34C392.237 108.633 392.784 109.053 393.17 109.6C393.557 110.147 393.75 110.793 393.75 111.54C393.75 112.207 393.57 112.8 393.21 113.32C392.864 113.827 392.39 114.227 391.79 114.52C392.604 114.813 393.25 115.273 393.73 115.9C394.21 116.513 394.45 117.24 394.45 118.08C394.45 118.907 394.23 119.62 393.79 120.22C393.35 120.82 392.724 121.287 391.91 121.62C391.097 121.953 390.137 122.12 389.03 122.12C387.924 122.12 386.964 121.96 386.15 121.64C385.337 121.307 384.71 120.84 384.27 120.24C383.83 119.64 383.61 118.933 383.61 118.12C383.61 117.267 383.864 116.527 384.37 115.9C384.877 115.273 385.55 114.813 386.39 114.52C385.75 114.2 385.244 113.78 384.87 113.26C384.497 112.727 384.31 112.127 384.31 111.46C384.31 110.713 384.504 110.08 384.89 109.56C385.277 109.027 385.817 108.613 386.51 108.32C387.217 108.027 388.05 107.88 389.01 107.88ZM389.01 115.62C388.104 115.62 387.397 115.82 386.89 116.22C386.384 116.607 386.13 117.147 386.13 117.84C386.13 118.56 386.384 119.127 386.89 119.54C387.397 119.94 388.11 120.14 389.03 120.14C389.95 120.14 390.664 119.94 391.17 119.54C391.677 119.14 391.93 118.58 391.93 117.86C391.93 117.167 391.67 116.62 391.15 116.22C390.644 115.82 389.93 115.62 389.01 115.62ZM389.03 109.7C388.257 109.7 387.65 109.873 387.21 110.22C386.784 110.567 386.57 111.053 386.57 111.68C386.57 112.307 386.784 112.793 387.21 113.14C387.65 113.487 388.257 113.66 389.03 113.66C389.817 113.66 390.417 113.487 390.83 113.14C391.257 112.793 391.47 112.307 391.47 111.68C391.47 111.053 391.257 110.567 390.83 110.22C390.417 109.873 389.817 109.7 389.03 109.7ZM405.667 110.84C405.241 110.56 404.761 110.347 404.227 110.2C403.694 110.04 403.154 109.96 402.607 109.96C401.754 109.96 401.047 110.167 400.487 110.58C399.927 110.98 399.514 111.547 399.247 112.28C398.981 113 398.861 113.853 398.887 114.84C399.247 114.213 399.741 113.74 400.367 113.42C400.994 113.087 401.727 112.92 402.567 112.92C403.501 112.92 404.301 113.107 404.967 113.48C405.647 113.84 406.167 114.36 406.527 115.04C406.901 115.707 407.087 116.493 407.087 117.4C407.087 118.36 406.881 119.193 406.467 119.9C406.054 120.607 405.474 121.153 404.727 121.54C403.981 121.927 403.101 122.12 402.087 122.12C400.901 122.12 399.874 121.847 399.007 121.3C398.141 120.753 397.474 119.973 397.007 118.96C396.554 117.933 396.327 116.707 396.327 115.28C396.327 113.787 396.574 112.487 397.067 111.38C397.574 110.273 398.287 109.413 399.207 108.8C400.127 108.187 401.207 107.88 402.447 107.88C403.154 107.88 403.894 107.98 404.667 108.18C405.441 108.38 406.114 108.64 406.687 108.96L405.667 110.84ZM402.047 114.88C401.461 114.88 400.961 115 400.547 115.24C400.134 115.48 399.814 115.793 399.587 116.18C399.374 116.567 399.267 116.993 399.267 117.46C399.267 117.753 399.314 118.053 399.407 118.36C399.514 118.653 399.681 118.92 399.907 119.16C400.134 119.4 400.414 119.593 400.747 119.74C401.081 119.887 401.487 119.96 401.967 119.96C402.501 119.96 402.961 119.86 403.347 119.66C403.747 119.46 404.054 119.167 404.267 118.78C404.494 118.38 404.607 117.913 404.607 117.38C404.607 116.607 404.381 116 403.927 115.56C403.474 115.107 402.847 114.88 402.047 114.88ZM408.183 118.64V116.76L412.743 108H415.323L410.483 117.44L409.843 116.44H419.383V118.64H408.183ZM414.883 113.14H417.363V122H414.883V113.14Z" fill="white"/>
<path d="M49.952 241.8C51.3707 241.8 52.4693 242.136 53.248 242.808C54.0267 243.48 54.416 244.424 54.416 245.64C54.416 246.909 54.0267 247.896 53.248 248.6C52.4693 249.304 51.3707 249.656 49.952 249.656H46.576L47.52 248.712V253H45.376V241.8H49.952ZM49.856 247.88C50.656 247.88 51.2693 247.699 51.696 247.336C52.1333 246.973 52.352 246.424 52.352 245.688C52.352 244.984 52.1333 244.461 51.696 244.12C51.2693 243.768 50.656 243.592 49.856 243.592H46.576L47.52 242.648V248.824L46.576 247.88H49.856ZM58.9729 249.24C58.4289 249.24 58.0235 249.325 57.7569 249.496C57.4902 249.667 57.3569 249.949 57.3569 250.344C57.3569 250.707 57.4902 251 57.7569 251.224C58.0342 251.448 58.4075 251.56 58.8769 251.56C59.2929 251.56 59.6662 251.491 59.9969 251.352C60.3382 251.203 60.6049 251.005 60.7969 250.76C60.9995 250.504 61.1169 250.221 61.1489 249.912L61.5009 251.4C61.2449 251.955 60.8502 252.376 60.3169 252.664C59.7835 252.952 59.1382 253.096 58.3809 253.096C57.7729 253.096 57.2449 252.979 56.7969 252.744C56.3489 252.509 56.0022 252.195 55.7569 251.8C55.5115 251.395 55.3889 250.941 55.3889 250.44C55.3889 249.651 55.6715 249.032 56.2369 248.584C56.8022 248.125 57.6022 247.891 58.6369 247.88H61.3729V249.24H58.9729ZM61.1329 247.624C61.1329 247.112 60.9675 246.712 60.6369 246.424C60.3169 246.125 59.8369 245.976 59.1969 245.976C58.8022 245.976 58.3862 246.051 57.9489 246.2C57.5222 246.339 57.0902 246.541 56.6529 246.808L55.9009 245.464C56.3062 245.219 56.6955 245.021 57.0689 244.872C57.4422 244.712 57.8315 244.595 58.2369 244.52C58.6529 244.435 59.1275 244.392 59.6609 244.392C60.7809 244.392 61.6449 244.659 62.2529 245.192C62.8609 245.725 63.1702 246.461 63.1809 247.4L63.1969 253H61.1489L61.1329 247.624ZM70.6024 246.696C70.1864 246.451 69.7544 246.264 69.3064 246.136C68.8584 245.997 68.453 245.928 68.0904 245.928C67.749 245.928 67.4717 245.992 67.2584 246.12C67.045 246.237 66.9384 246.44 66.9384 246.728C66.9384 246.973 67.045 247.171 67.2584 247.32C67.4824 247.469 67.765 247.597 68.1064 247.704C68.4477 247.8 68.8104 247.907 69.1944 248.024C69.5784 248.141 69.941 248.296 70.2824 248.488C70.6344 248.68 70.917 248.936 71.1304 249.256C71.3544 249.576 71.4664 249.997 71.4664 250.52C71.4664 251.096 71.3117 251.576 71.0024 251.96C70.693 252.333 70.2824 252.616 69.7704 252.808C69.2584 252.989 68.6984 253.08 68.0904 253.08C67.4504 253.08 66.8104 252.979 66.1704 252.776C65.541 252.573 65.0024 252.275 64.5544 251.88L65.2744 250.488C65.669 250.829 66.133 251.096 66.6664 251.288C67.2104 251.469 67.7117 251.56 68.1704 251.56C68.4157 251.56 68.6344 251.528 68.8264 251.464C69.0184 251.4 69.1677 251.309 69.2744 251.192C69.381 251.064 69.4344 250.899 69.4344 250.696C69.4344 250.419 69.3277 250.205 69.1144 250.056C68.901 249.896 68.6237 249.763 68.2824 249.656C67.9517 249.539 67.5944 249.427 67.2104 249.32C66.8264 249.203 66.4637 249.053 66.1224 248.872C65.7917 248.68 65.5197 248.429 65.3064 248.12C65.093 247.811 64.9864 247.4 64.9864 246.888C64.9864 246.312 65.1357 245.837 65.4344 245.464C65.733 245.091 66.1277 244.819 66.6184 244.648C67.109 244.467 67.6424 244.376 68.2184 244.376C68.773 244.376 69.3277 244.456 69.8824 244.616C70.437 244.765 70.9277 244.979 71.3544 245.256L70.6024 246.696ZM78.3211 246.696C77.9051 246.451 77.4731 246.264 77.0251 246.136C76.5771 245.997 76.1718 245.928 75.8091 245.928C75.4678 245.928 75.1905 245.992 74.9771 246.12C74.7638 246.237 74.6571 246.44 74.6571 246.728C74.6571 246.973 74.7638 247.171 74.9771 247.32C75.2011 247.469 75.4838 247.597 75.8251 247.704C76.1665 247.8 76.5291 247.907 76.9131 248.024C77.2971 248.141 77.6598 248.296 78.0011 248.488C78.3531 248.68 78.6358 248.936 78.8491 249.256C79.0731 249.576 79.1851 249.997 79.1851 250.52C79.1851 251.096 79.0305 251.576 78.7211 251.96C78.4118 252.333 78.0011 252.616 77.4891 252.808C76.9771 252.989 76.4171 253.08 75.8091 253.08C75.1691 253.08 74.5291 252.979 73.8891 252.776C73.2598 252.573 72.7211 252.275 72.2731 251.88L72.9931 250.488C73.3878 250.829 73.8518 251.096 74.3851 251.288C74.9291 251.469 75.4305 251.56 75.8891 251.56C76.1345 251.56 76.3531 251.528 76.5451 251.464C76.7371 251.4 76.8865 251.309 76.9931 251.192C77.0998 251.064 77.1531 250.899 77.1531 250.696C77.1531 250.419 77.0465 250.205 76.8331 250.056C76.6198 249.896 76.3425 249.763 76.0011 249.656C75.6705 249.539 75.3131 249.427 74.9291 249.32C74.5451 249.203 74.1825 249.053 73.8411 248.872C73.5105 248.68 73.2385 248.429 73.0251 248.12C72.8118 247.811 72.7051 247.4 72.7051 246.888C72.7051 246.312 72.8545 245.837 73.1531 245.464C73.4518 245.091 73.8465 244.819 74.3371 244.648C74.8278 244.467 75.3611 244.376 75.9371 244.376C76.4918 244.376 77.0465 244.456 77.6011 244.616C78.1558 244.765 78.6465 244.979 79.0731 245.256L78.3211 246.696ZM81.0479 241.8H83.1919V253H81.0479V241.8ZM90.5945 241.8C91.4478 241.8 92.2265 241.939 92.9305 242.216C93.6452 242.483 94.2585 242.867 94.7705 243.368C95.2932 243.869 95.6985 244.461 95.9865 245.144C96.2745 245.827 96.4185 246.579 96.4185 247.4C96.4185 248.211 96.2745 248.957 95.9865 249.64C95.6985 250.323 95.2932 250.915 94.7705 251.416C94.2478 251.917 93.6238 252.307 92.8985 252.584C92.1732 252.861 91.3838 253 90.5305 253H85.9385V241.8H90.5945ZM90.6425 251.208C91.1545 251.208 91.6292 251.117 92.0665 250.936C92.5038 250.744 92.8825 250.483 93.2025 250.152C93.5332 249.811 93.7892 249.411 93.9705 248.952C94.1625 248.483 94.2585 247.971 94.2585 247.416C94.2585 246.851 94.1625 246.339 93.9705 245.88C93.7785 245.411 93.5172 245.005 93.1865 244.664C92.8558 244.312 92.4665 244.045 92.0185 243.864C91.5705 243.683 91.0798 243.592 90.5465 243.592H88.0825V251.208H90.6425ZM98.7295 246.184C99.0495 246.184 99.3108 246.285 99.5135 246.488C99.7268 246.691 99.8335 246.952 99.8335 247.272C99.8335 247.603 99.7268 247.875 99.5135 248.088C99.3108 248.291 99.0495 248.392 98.7295 248.392C98.4202 248.392 98.1588 248.291 97.9455 248.088C97.7428 247.875 97.6415 247.603 97.6415 247.272C97.6415 246.952 97.7428 246.691 97.9455 246.488C98.1588 246.285 98.4202 246.184 98.7295 246.184ZM98.7295 250.936C99.0495 250.936 99.3108 251.037 99.5135 251.24C99.7268 251.443 99.8335 251.704 99.8335 252.024C99.8335 252.355 99.7268 252.627 99.5135 252.84C99.3108 253.043 99.0495 253.144 98.7295 253.144C98.4202 253.144 98.1588 253.043 97.9455 252.84C97.7428 252.627 97.6415 252.355 97.6415 252.024C97.6415 251.704 97.7428 251.443 97.9455 251.24C98.1588 251.037 98.4202 250.936 98.7295 250.936ZM109.676 247.144C110.07 246.739 110.39 246.333 110.636 245.928C110.892 245.512 111.02 245.149 111.02 244.84C111.02 244.403 110.86 244.067 110.54 243.832C110.22 243.597 109.777 243.48 109.212 243.48C108.721 243.48 108.198 243.603 107.644 243.848C107.089 244.093 106.566 244.429 106.076 244.856L105.228 243.32C105.878 242.819 106.566 242.424 107.292 242.136C108.017 241.848 108.758 241.704 109.516 241.704C110.262 241.704 110.913 241.821 111.468 242.056C112.022 242.291 112.46 242.621 112.78 243.048C113.1 243.475 113.26 243.971 113.26 244.536C113.26 245.101 113.057 245.699 112.652 246.328C112.257 246.947 111.75 247.576 111.132 248.216L107.596 251.88L107.308 251.224H113.74V253H105.452V251.528L109.676 247.144ZM119.113 247.144C119.508 246.739 119.828 246.333 120.073 245.928C120.329 245.512 120.457 245.149 120.457 244.84C120.457 244.403 120.297 244.067 119.977 243.832C119.657 243.597 119.215 243.48 118.649 243.48C118.159 243.48 117.636 243.603 117.081 243.848C116.527 244.093 116.004 244.429 115.513 244.856L114.665 243.32C115.316 242.819 116.004 242.424 116.729 242.136C117.455 241.848 118.196 241.704 118.953 241.704C119.7 241.704 120.351 241.821 120.905 242.056C121.46 242.291 121.897 242.621 122.217 243.048C122.537 243.475 122.697 243.971 122.697 244.536C122.697 245.101 122.495 245.699 122.089 246.328C121.695 246.947 121.188 247.576 120.569 248.216L117.033 251.88L116.745 251.224H123.177V253H114.889V251.528L119.113 247.144ZM123.735 241.8H128.231V253H126.087V242.648L127.031 243.592H123.735V241.8ZM129.956 250.312V248.808L133.604 241.8H135.668L131.796 249.352L131.284 248.552H138.916V250.312H129.956ZM135.316 245.912H137.3V253H135.316V245.912ZM142.99 246.856L142.366 245.928C142.537 245.917 142.755 245.912 143.022 245.912C143.289 245.901 143.555 245.896 143.822 245.896C144.089 245.896 144.307 245.896 144.478 245.896C145.342 245.896 146.089 246.045 146.718 246.344C147.347 246.643 147.833 247.048 148.174 247.56C148.526 248.061 148.702 248.643 148.702 249.304C148.702 250.061 148.521 250.728 148.158 251.304C147.795 251.869 147.283 252.312 146.622 252.632C145.971 252.941 145.203 253.096 144.318 253.096C143.614 253.096 142.878 252.979 142.11 252.744C141.353 252.499 140.681 252.179 140.094 251.784L140.942 250.184C141.411 250.547 141.918 250.835 142.462 251.048C143.006 251.251 143.555 251.352 144.11 251.352C144.814 251.352 145.369 251.181 145.774 250.84C146.19 250.499 146.398 250.035 146.398 249.448C146.398 248.893 146.195 248.456 145.79 248.136C145.395 247.816 144.793 247.656 143.982 247.656C143.854 247.656 143.662 247.661 143.406 247.672C143.161 247.672 142.889 247.677 142.59 247.688C142.291 247.699 141.998 247.715 141.71 247.736C141.433 247.757 141.198 247.779 141.006 247.8V241.8H148.206V243.576H142.03L142.99 242.632V246.856ZM157.584 244.072C157.242 243.848 156.858 243.677 156.432 243.56C156.005 243.432 155.573 243.368 155.136 243.368C154.453 243.368 153.888 243.533 153.44 243.864C152.992 244.184 152.661 244.637 152.448 245.224C152.234 245.8 152.138 246.483 152.16 247.272C152.448 246.771 152.842 246.392 153.344 246.136C153.845 245.869 154.432 245.736 155.104 245.736C155.85 245.736 156.49 245.885 157.024 246.184C157.568 246.472 157.984 246.888 158.272 247.432C158.57 247.965 158.72 248.595 158.72 249.32C158.72 250.088 158.554 250.755 158.224 251.32C157.893 251.885 157.429 252.323 156.832 252.632C156.234 252.941 155.53 253.096 154.72 253.096C153.77 253.096 152.949 252.877 152.256 252.44C151.562 252.003 151.029 251.379 150.656 250.568C150.293 249.747 150.112 248.765 150.112 247.624C150.112 246.429 150.309 245.389 150.704 244.504C151.109 243.619 151.68 242.931 152.416 242.44C153.152 241.949 154.016 241.704 155.008 241.704C155.573 241.704 156.165 241.784 156.784 241.944C157.402 242.104 157.941 242.312 158.4 242.568L157.584 244.072ZM154.688 247.304C154.218 247.304 153.818 247.4 153.488 247.592C153.157 247.784 152.901 248.035 152.72 248.344C152.549 248.653 152.464 248.995 152.464 249.368C152.464 249.603 152.501 249.843 152.576 250.088C152.661 250.323 152.794 250.536 152.976 250.728C153.157 250.92 153.381 251.075 153.648 251.192C153.914 251.309 154.24 251.368 154.624 251.368C155.05 251.368 155.418 251.288 155.728 251.128C156.048 250.968 156.293 250.733 156.464 250.424C156.645 250.104 156.736 249.731 156.736 249.304C156.736 248.685 156.554 248.2 156.192 247.848C155.829 247.485 155.328 247.304 154.688 247.304ZM161.277 250.712C161.607 250.947 161.986 251.128 162.413 251.256C162.839 251.373 163.266 251.432 163.693 251.432C164.386 251.432 164.951 251.272 165.389 250.952C165.837 250.621 166.162 250.163 166.365 249.576C166.578 248.979 166.679 248.291 166.669 247.512C166.37 248.024 165.975 248.413 165.485 248.68C164.994 248.936 164.407 249.064 163.725 249.064C162.999 249.064 162.365 248.92 161.821 248.632C161.287 248.333 160.877 247.917 160.589 247.384C160.301 246.84 160.157 246.205 160.157 245.48C160.157 244.701 160.322 244.035 160.653 243.48C160.983 242.915 161.442 242.477 162.029 242.168C162.626 241.859 163.325 241.704 164.125 241.704C165.074 241.704 165.89 241.923 166.573 242.36C167.255 242.797 167.783 243.427 168.157 244.248C168.53 245.059 168.717 246.035 168.717 247.176C168.717 248.371 168.514 249.411 168.109 250.296C167.714 251.181 167.149 251.869 166.413 252.36C165.687 252.851 164.829 253.096 163.837 253.096C163.261 253.096 162.663 253.016 162.045 252.856C161.437 252.696 160.903 252.483 160.445 252.216L161.277 250.712ZM164.221 243.416C163.805 243.416 163.437 243.501 163.117 243.672C162.807 243.832 162.562 244.067 162.381 244.376C162.21 244.685 162.125 245.059 162.125 245.496C162.125 246.104 162.306 246.589 162.669 246.952C163.031 247.315 163.527 247.496 164.157 247.496C164.626 247.496 165.026 247.4 165.357 247.208C165.687 247.016 165.938 246.765 166.109 246.456C166.279 246.136 166.359 245.789 166.349 245.416C166.349 245.181 166.306 244.947 166.221 244.712C166.146 244.467 166.023 244.248 165.853 244.056C165.682 243.864 165.458 243.709 165.181 243.592C164.914 243.475 164.594 243.416 164.221 243.416ZM169.707 241.8H178.347V243.32L173.739 253H171.467L176.363 242.728L176.907 243.576H170.683L171.643 242.648L171.611 245.16H169.707V241.8ZM183.79 241.704C184.568 241.704 185.24 241.827 185.806 242.072C186.371 242.307 186.808 242.643 187.118 243.08C187.427 243.517 187.582 244.035 187.582 244.632C187.582 245.165 187.438 245.64 187.15 246.056C186.872 246.461 186.494 246.781 186.014 247.016C186.664 247.251 187.182 247.619 187.566 248.12C187.95 248.611 188.142 249.192 188.142 249.864C188.142 250.525 187.966 251.096 187.614 251.576C187.262 252.056 186.76 252.429 186.11 252.696C185.459 252.963 184.691 253.096 183.806 253.096C182.92 253.096 182.152 252.968 181.502 252.712C180.851 252.445 180.35 252.072 179.998 251.592C179.646 251.112 179.47 250.547 179.47 249.896C179.47 249.213 179.672 248.621 180.078 248.12C180.483 247.619 181.022 247.251 181.694 247.016C181.182 246.76 180.776 246.424 180.478 246.008C180.179 245.581 180.03 245.101 180.03 244.568C180.03 243.971 180.184 243.464 180.494 243.048C180.803 242.621 181.235 242.291 181.79 242.056C182.355 241.821 183.022 241.704 183.79 241.704ZM183.79 247.896C183.064 247.896 182.499 248.056 182.094 248.376C181.688 248.685 181.486 249.117 181.486 249.672C181.486 250.248 181.688 250.701 182.094 251.032C182.499 251.352 183.07 251.512 183.806 251.512C184.542 251.512 185.112 251.352 185.518 251.032C185.923 250.712 186.126 250.264 186.126 249.688C186.126 249.133 185.918 248.696 185.502 248.376C185.096 248.056 184.526 247.896 183.79 247.896ZM183.806 243.16C183.187 243.16 182.702 243.299 182.35 243.576C182.008 243.853 181.838 244.243 181.838 244.744C181.838 245.245 182.008 245.635 182.35 245.912C182.702 246.189 183.187 246.328 183.806 246.328C184.435 246.328 184.915 246.189 185.246 245.912C185.587 245.635 185.758 245.245 185.758 244.744C185.758 244.243 185.587 243.853 185.246 243.576C184.915 243.299 184.435 243.16 183.806 243.16Z" fill="white"/>
<path d="M255.376 288.8H263.584V290.592H257.52V293.488H262.96V295.264H257.52V298.208H263.776V300H255.376V288.8ZM271.986 295.232C271.986 294.603 271.821 294.112 271.49 293.76C271.17 293.408 270.717 293.232 270.13 293.232C269.458 293.243 268.925 293.493 268.53 293.984C268.146 294.464 267.954 295.067 267.954 295.792H267.394C267.394 294.757 267.538 293.92 267.826 293.28C268.114 292.629 268.525 292.155 269.058 291.856C269.602 291.547 270.237 291.392 270.962 291.392C271.613 291.392 272.167 291.525 272.626 291.792C273.095 292.059 273.453 292.437 273.698 292.928C273.954 293.408 274.082 293.989 274.082 294.672V300H271.986V295.232ZM278.114 295.232C278.114 294.603 277.949 294.112 277.618 293.76C277.287 293.408 276.829 293.232 276.242 293.232C275.57 293.243 275.042 293.493 274.658 293.984C274.274 294.464 274.082 295.067 274.082 295.792H273.522C273.522 294.757 273.666 293.92 273.954 293.28C274.242 292.629 274.653 292.155 275.186 291.856C275.719 291.547 276.354 291.392 277.09 291.392C277.73 291.392 278.279 291.525 278.738 291.792C279.207 292.059 279.57 292.437 279.826 292.928C280.082 293.408 280.21 293.989 280.21 294.672V300H278.114V295.232ZM265.874 291.472H267.954V300H265.874V291.472ZM282.53 291.472H284.61V300H282.53V291.472ZM283.554 287.84C283.896 287.84 284.178 287.952 284.402 288.176C284.626 288.4 284.738 288.683 284.738 289.024C284.738 289.355 284.626 289.637 284.402 289.872C284.178 290.096 283.896 290.208 283.554 290.208C283.224 290.208 282.946 290.096 282.722 289.872C282.498 289.637 282.386 289.355 282.386 289.024C282.386 288.683 282.498 288.4 282.722 288.176C282.946 287.952 283.224 287.84 283.554 287.84ZM292.259 293.696C291.843 293.451 291.411 293.264 290.963 293.136C290.515 292.997 290.109 292.928 289.747 292.928C289.405 292.928 289.128 292.992 288.915 293.12C288.701 293.237 288.595 293.44 288.595 293.728C288.595 293.973 288.701 294.171 288.915 294.32C289.139 294.469 289.421 294.597 289.763 294.704C290.104 294.8 290.467 294.907 290.851 295.024C291.235 295.141 291.597 295.296 291.939 295.488C292.291 295.68 292.573 295.936 292.787 296.256C293.011 296.576 293.123 296.997 293.123 297.52C293.123 298.096 292.968 298.576 292.659 298.96C292.349 299.333 291.939 299.616 291.427 299.808C290.915 299.989 290.355 300.08 289.747 300.08C289.107 300.08 288.467 299.979 287.827 299.776C287.197 299.573 286.659 299.275 286.211 298.88L286.931 297.488C287.325 297.829 287.789 298.096 288.323 298.288C288.867 298.469 289.368 298.56 289.827 298.56C290.072 298.56 290.291 298.528 290.483 298.464C290.675 298.4 290.824 298.309 290.931 298.192C291.037 298.064 291.091 297.899 291.091 297.696C291.091 297.419 290.984 297.205 290.771 297.056C290.557 296.896 290.28 296.763 289.939 296.656C289.608 296.539 289.251 296.427 288.867 296.32C288.483 296.203 288.12 296.053 287.779 295.872C287.448 295.68 287.176 295.429 286.963 295.12C286.749 294.811 286.643 294.4 286.643 293.888C286.643 293.312 286.792 292.837 287.091 292.464C287.389 292.091 287.784 291.819 288.275 291.648C288.765 291.467 289.299 291.376 289.875 291.376C290.429 291.376 290.984 291.456 291.539 291.616C292.093 291.765 292.584 291.979 293.011 292.256L292.259 293.696ZM299.977 293.696C299.561 293.451 299.129 293.264 298.681 293.136C298.233 292.997 297.828 292.928 297.465 292.928C297.124 292.928 296.847 292.992 296.633 293.12C296.42 293.237 296.313 293.44 296.313 293.728C296.313 293.973 296.42 294.171 296.633 294.32C296.857 294.469 297.14 294.597 297.481 294.704C297.823 294.8 298.185 294.907 298.569 295.024C298.953 295.141 299.316 295.296 299.657 295.488C300.009 295.68 300.292 295.936 300.505 296.256C300.729 296.576 300.841 296.997 300.841 297.52C300.841 298.096 300.687 298.576 300.377 298.96C300.068 299.333 299.657 299.616 299.145 299.808C298.633 299.989 298.073 300.08 297.465 300.08C296.825 300.08 296.185 299.979 295.545 299.776C294.916 299.573 294.377 299.275 293.929 298.88L294.649 297.488C295.044 297.829 295.508 298.096 296.041 298.288C296.585 298.469 297.087 298.56 297.545 298.56C297.791 298.56 298.009 298.528 298.201 298.464C298.393 298.4 298.543 298.309 298.649 298.192C298.756 298.064 298.809 297.899 298.809 297.696C298.809 297.419 298.703 297.205 298.489 297.056C298.276 296.896 297.999 296.763 297.657 296.656C297.327 296.539 296.969 296.427 296.585 296.32C296.201 296.203 295.839 296.053 295.497 295.872C295.167 295.68 294.895 295.429 294.681 295.12C294.468 294.811 294.361 294.4 294.361 293.888C294.361 293.312 294.511 292.837 294.809 292.464C295.108 292.091 295.503 291.819 295.993 291.648C296.484 291.467 297.017 291.376 297.593 291.376C298.148 291.376 298.703 291.456 299.257 291.616C299.812 291.765 300.303 291.979 300.729 292.256L299.977 293.696ZM305.504 296.24C304.96 296.24 304.555 296.325 304.288 296.496C304.021 296.667 303.888 296.949 303.888 297.344C303.888 297.707 304.021 298 304.288 298.224C304.565 298.448 304.939 298.56 305.408 298.56C305.824 298.56 306.197 298.491 306.528 298.352C306.869 298.203 307.136 298.005 307.328 297.76C307.531 297.504 307.648 297.221 307.68 296.912L308.032 298.4C307.776 298.955 307.381 299.376 306.848 299.664C306.315 299.952 305.669 300.096 304.912 300.096C304.304 300.096 303.776 299.979 303.328 299.744C302.88 299.509 302.533 299.195 302.288 298.8C302.043 298.395 301.92 297.941 301.92 297.44C301.92 296.651 302.203 296.032 302.768 295.584C303.333 295.125 304.133 294.891 305.168 294.88H307.904V296.24H305.504ZM307.664 294.624C307.664 294.112 307.499 293.712 307.168 293.424C306.848 293.125 306.368 292.976 305.728 292.976C305.333 292.976 304.917 293.051 304.48 293.2C304.053 293.339 303.621 293.541 303.184 293.808L302.432 292.464C302.837 292.219 303.227 292.021 303.6 291.872C303.973 291.712 304.363 291.595 304.768 291.52C305.184 291.435 305.659 291.392 306.192 291.392C307.312 291.392 308.176 291.659 308.784 292.192C309.392 292.725 309.701 293.461 309.712 294.4L309.728 300H307.68L307.664 294.624ZM308.688 288.176C308.688 288.571 308.645 288.933 308.56 289.264C308.475 289.595 308.331 289.861 308.128 290.064C307.925 290.256 307.643 290.352 307.28 290.352C307.056 290.352 306.837 290.315 306.624 290.24C306.421 290.165 306.229 290.075 306.048 289.968C305.867 289.861 305.701 289.771 305.552 289.696C305.403 289.621 305.269 289.584 305.152 289.584C304.981 289.584 304.864 289.653 304.8 289.792C304.747 289.931 304.72 290.101 304.72 290.304H303.392C303.392 289.899 303.435 289.531 303.52 289.2C303.605 288.869 303.749 288.608 303.952 288.416C304.155 288.213 304.432 288.112 304.784 288.112C305.008 288.112 305.221 288.149 305.424 288.224C305.637 288.299 305.835 288.389 306.016 288.496C306.197 288.603 306.363 288.699 306.512 288.784C306.661 288.859 306.795 288.896 306.912 288.896C307.093 288.896 307.211 288.827 307.264 288.688C307.317 288.549 307.344 288.379 307.344 288.176H308.688ZM315.806 291.392C316.691 291.392 317.47 291.573 318.142 291.936C318.824 292.299 319.352 292.805 319.726 293.456C320.11 294.107 320.302 294.864 320.302 295.728C320.302 296.592 320.11 297.349 319.726 298C319.352 298.651 318.824 299.163 318.142 299.536C317.47 299.899 316.691 300.08 315.806 300.08C314.91 300.08 314.12 299.899 313.438 299.536C312.755 299.163 312.222 298.651 311.838 298C311.464 297.349 311.278 296.592 311.278 295.728C311.278 294.864 311.464 294.107 311.838 293.456C312.222 292.805 312.755 292.299 313.438 291.936C314.12 291.573 314.91 291.392 315.806 291.392ZM315.806 293.072C315.326 293.072 314.899 293.189 314.526 293.424C314.163 293.648 313.88 293.963 313.678 294.368C313.475 294.763 313.374 295.221 313.374 295.744C313.374 296.277 313.475 296.747 313.678 297.152C313.88 297.557 314.163 297.872 314.526 298.096C314.899 298.32 315.326 298.432 315.806 298.432C316.275 298.432 316.691 298.32 317.054 298.096C317.416 297.872 317.699 297.557 317.902 297.152C318.104 296.747 318.206 296.277 318.206 295.744C318.206 295.221 318.104 294.763 317.902 294.368C317.699 293.963 317.416 293.648 317.054 293.424C316.691 293.189 316.275 293.072 315.806 293.072ZM322.605 293.184C322.925 293.184 323.186 293.285 323.389 293.488C323.602 293.691 323.709 293.952 323.709 294.272C323.709 294.603 323.602 294.875 323.389 295.088C323.186 295.291 322.925 295.392 322.605 295.392C322.295 295.392 322.034 295.291 321.821 295.088C321.618 294.875 321.517 294.603 321.517 294.272C321.517 293.952 321.618 293.691 321.821 293.488C322.034 293.285 322.295 293.184 322.605 293.184ZM322.605 297.936C322.925 297.936 323.186 298.037 323.389 298.24C323.602 298.443 323.709 298.704 323.709 299.024C323.709 299.355 323.602 299.627 323.389 299.84C323.186 300.043 322.925 300.144 322.605 300.144C322.295 300.144 322.034 300.043 321.821 299.84C321.618 299.627 321.517 299.355 321.517 299.024C321.517 298.704 321.618 298.443 321.821 298.24C322.034 298.037 322.295 297.936 322.605 297.936ZM328.735 288.8H333.231V300H331.087V289.648L332.031 290.592H328.735V288.8ZM340.492 288.72C342.039 288.72 343.228 289.211 344.06 290.192C344.892 291.173 345.308 292.576 345.308 294.4C345.308 296.224 344.892 297.627 344.06 298.608C343.228 299.589 342.039 300.08 340.492 300.08C338.945 300.08 337.756 299.589 336.924 298.608C336.092 297.627 335.676 296.224 335.676 294.4C335.676 292.576 336.092 291.173 336.924 290.192C337.756 289.211 338.945 288.72 340.492 288.72ZM340.492 290.304C339.617 290.304 338.961 290.635 338.524 291.296C338.097 291.957 337.884 292.992 337.884 294.4C337.884 295.797 338.097 296.832 338.524 297.504C338.961 298.165 339.617 298.496 340.492 298.496C341.377 298.496 342.033 298.165 342.46 297.504C342.887 296.832 343.1 295.797 343.1 294.4C343.1 292.992 342.887 291.957 342.46 291.296C342.033 290.635 341.377 290.304 340.492 290.304ZM350.829 286.96H352.589L347.501 301.856H345.725L350.829 286.96ZM356.348 294.144C356.742 293.739 357.062 293.333 357.308 292.928C357.564 292.512 357.692 292.149 357.692 291.84C357.692 291.403 357.532 291.067 357.212 290.832C356.892 290.597 356.449 290.48 355.884 290.48C355.393 290.48 354.87 290.603 354.316 290.848C353.761 291.093 353.238 291.429 352.748 291.856L351.9 290.32C352.55 289.819 353.238 289.424 353.964 289.136C354.689 288.848 355.43 288.704 356.188 288.704C356.934 288.704 357.585 288.821 358.14 289.056C358.694 289.291 359.132 289.621 359.452 290.048C359.772 290.475 359.932 290.971 359.932 291.536C359.932 292.101 359.729 292.699 359.324 293.328C358.929 293.947 358.422 294.576 357.804 295.216L354.268 298.88L353.98 298.224H360.412V300H352.124V298.528L356.348 294.144ZM366.617 288.72C368.164 288.72 369.353 289.211 370.185 290.192C371.017 291.173 371.433 292.576 371.433 294.4C371.433 296.224 371.017 297.627 370.185 298.608C369.353 299.589 368.164 300.08 366.617 300.08C365.07 300.08 363.881 299.589 363.049 298.608C362.217 297.627 361.801 296.224 361.801 294.4C361.801 292.576 362.217 291.173 363.049 290.192C363.881 289.211 365.07 288.72 366.617 288.72ZM366.617 290.304C365.742 290.304 365.086 290.635 364.649 291.296C364.222 291.957 364.009 292.992 364.009 294.4C364.009 295.797 364.222 296.832 364.649 297.504C365.086 298.165 365.742 298.496 366.617 298.496C367.502 298.496 368.158 298.165 368.585 297.504C369.012 296.832 369.225 295.797 369.225 294.4C369.225 292.992 369.012 291.957 368.585 291.296C368.158 290.635 367.502 290.304 366.617 290.304ZM377.082 294.144C377.477 293.739 377.797 293.333 378.042 292.928C378.298 292.512 378.426 292.149 378.426 291.84C378.426 291.403 378.266 291.067 377.946 290.832C377.626 290.597 377.183 290.48 376.618 290.48C376.127 290.48 375.605 290.603 375.05 290.848C374.495 291.093 373.973 291.429 373.482 291.856L372.634 290.32C373.285 289.819 373.973 289.424 374.698 289.136C375.423 288.848 376.165 288.704 376.922 288.704C377.669 288.704 378.319 288.821 378.874 289.056C379.429 289.291 379.866 289.621 380.186 290.048C380.506 290.475 380.666 290.971 380.666 291.536C380.666 292.101 380.463 292.699 380.058 293.328C379.663 293.947 379.157 294.576 378.538 295.216L375.002 298.88L374.714 298.224H381.146V300H372.858V298.528L377.082 294.144ZM385.256 293.856L384.632 292.928C384.802 292.917 385.021 292.912 385.288 292.912C385.554 292.901 385.821 292.896 386.088 292.896C386.354 292.896 386.573 292.896 386.744 292.896C387.608 292.896 388.354 293.045 388.984 293.344C389.613 293.643 390.098 294.048 390.44 294.56C390.792 295.061 390.968 295.643 390.968 296.304C390.968 297.061 390.786 297.728 390.424 298.304C390.061 298.869 389.549 299.312 388.888 299.632C388.237 299.941 387.469 300.096 386.584 300.096C385.88 300.096 385.144 299.979 384.376 299.744C383.618 299.499 382.946 299.179 382.36 298.784L383.208 297.184C383.677 297.547 384.184 297.835 384.728 298.048C385.272 298.251 385.821 298.352 386.376 298.352C387.08 298.352 387.634 298.181 388.04 297.84C388.456 297.499 388.664 297.035 388.664 296.448C388.664 295.893 388.461 295.456 388.056 295.136C387.661 294.816 387.058 294.656 386.248 294.656C386.12 294.656 385.928 294.661 385.672 294.672C385.426 294.672 385.154 294.677 384.856 294.688C384.557 294.699 384.264 294.715 383.976 294.736C383.698 294.757 383.464 294.779 383.272 294.8V288.8H390.472V290.576H384.296L385.256 289.632V293.856ZM396.866 294.448H400.882V295.808H396.866V294.448ZM406.188 288.8H408.492L411.788 297.744L415.1 288.8H417.34L412.844 300H410.62L406.188 288.8ZM420.754 296.24C420.21 296.24 419.805 296.325 419.538 296.496C419.271 296.667 419.138 296.949 419.138 297.344C419.138 297.707 419.271 298 419.538 298.224C419.815 298.448 420.189 298.56 420.658 298.56C421.074 298.56 421.447 298.491 421.778 298.352C422.119 298.203 422.386 298.005 422.578 297.76C422.781 297.504 422.898 297.221 422.93 296.912L423.282 298.4C423.026 298.955 422.631 299.376 422.098 299.664C421.565 299.952 420.919 300.096 420.162 300.096C419.554 300.096 419.026 299.979 418.578 299.744C418.13 299.509 417.783 299.195 417.538 298.8C417.293 298.395 417.17 297.941 417.17 297.44C417.17 296.651 417.453 296.032 418.018 295.584C418.583 295.125 419.383 294.891 420.418 294.88H423.154V296.24H420.754ZM422.914 294.624C422.914 294.112 422.749 293.712 422.418 293.424C422.098 293.125 421.618 292.976 420.978 292.976C420.583 292.976 420.167 293.051 419.73 293.2C419.303 293.339 418.871 293.541 418.434 293.808L417.682 292.464C418.087 292.219 418.477 292.021 418.85 291.872C419.223 291.712 419.613 291.595 420.018 291.52C420.434 291.435 420.909 291.392 421.442 291.392C422.562 291.392 423.426 291.659 424.034 292.192C424.642 292.725 424.951 293.461 424.962 294.4L424.978 300H422.93L422.914 294.624ZM427.392 288.128H429.472V300H427.392V288.128ZM432.14 291.472H434.22V300H432.14V291.472ZM433.164 287.84C433.505 287.84 433.788 287.952 434.012 288.176C434.236 288.4 434.348 288.683 434.348 289.024C434.348 289.355 434.236 289.637 434.012 289.872C433.788 290.096 433.505 290.208 433.164 290.208C432.833 290.208 432.556 290.096 432.332 289.872C432.108 289.637 431.996 289.355 431.996 289.024C431.996 288.683 432.108 288.4 432.332 288.176C432.556 287.952 432.833 287.84 433.164 287.84ZM440.044 291.376C440.823 291.376 441.484 291.552 442.028 291.904C442.572 292.256 442.988 292.757 443.276 293.408C443.564 294.048 443.703 294.821 443.692 295.728C443.703 296.624 443.564 297.403 443.276 298.064C442.999 298.715 442.588 299.216 442.044 299.568C441.5 299.909 440.849 300.08 440.092 300.08C439.281 300.08 438.567 299.899 437.948 299.536C437.34 299.163 436.865 298.645 436.524 297.984C436.183 297.323 436.012 296.565 436.012 295.712C436.012 294.848 436.183 294.091 436.524 293.44C436.865 292.789 437.335 292.283 437.932 291.92C438.54 291.557 439.244 291.376 440.044 291.376ZM440.54 293.056C440.071 293.056 439.649 293.173 439.276 293.408C438.913 293.643 438.631 293.963 438.428 294.368C438.225 294.773 438.119 295.237 438.108 295.76C438.119 296.283 438.225 296.747 438.428 297.152C438.631 297.557 438.913 297.877 439.276 298.112C439.649 298.336 440.071 298.448 440.54 298.448C441.02 298.448 441.441 298.336 441.804 298.112C442.177 297.877 442.465 297.557 442.668 297.152C442.871 296.747 442.972 296.283 442.972 295.76C442.972 295.227 442.871 294.763 442.668 294.368C442.465 293.963 442.177 293.643 441.804 293.408C441.441 293.173 441.02 293.056 440.54 293.056ZM442.972 288.128H445.052V300H442.972V288.128ZM450.598 296.24C450.054 296.24 449.649 296.325 449.382 296.496C449.115 296.667 448.982 296.949 448.982 297.344C448.982 297.707 449.115 298 449.382 298.224C449.659 298.448 450.033 298.56 450.502 298.56C450.918 298.56 451.291 298.491 451.622 298.352C451.963 298.203 452.23 298.005 452.422 297.76C452.625 297.504 452.742 297.221 452.774 296.912L453.126 298.4C452.87 298.955 452.475 299.376 451.942 299.664C451.409 299.952 450.763 300.096 450.006 300.096C449.398 300.096 448.87 299.979 448.422 299.744C447.974 299.509 447.627 299.195 447.382 298.8C447.137 298.395 447.014 297.941 447.014 297.44C447.014 296.651 447.297 296.032 447.862 295.584C448.427 295.125 449.227 294.891 450.262 294.88H452.998V296.24H450.598ZM452.758 294.624C452.758 294.112 452.593 293.712 452.262 293.424C451.942 293.125 451.462 292.976 450.822 292.976C450.427 292.976 450.011 293.051 449.574 293.2C449.147 293.339 448.715 293.541 448.278 293.808L447.526 292.464C447.931 292.219 448.321 292.021 448.694 291.872C449.067 291.712 449.457 291.595 449.862 291.52C450.278 291.435 450.753 291.392 451.286 291.392C452.406 291.392 453.27 291.659 453.878 292.192C454.486 292.725 454.795 293.461 454.806 294.4L454.822 300H452.774L452.758 294.624ZM460.403 291.376C461.182 291.376 461.843 291.552 462.387 291.904C462.931 292.256 463.347 292.757 463.635 293.408C463.923 294.048 464.062 294.821 464.051 295.728C464.062 296.624 463.923 297.403 463.635 298.064C463.358 298.715 462.947 299.216 462.403 299.568C461.859 299.909 461.209 300.08 460.451 300.08C459.641 300.08 458.926 299.899 458.307 299.536C457.699 299.163 457.225 298.645 456.883 297.984C456.542 297.323 456.371 296.565 456.371 295.712C456.371 294.848 456.542 294.091 456.883 293.44C457.225 292.789 457.694 292.283 458.291 291.92C458.899 291.557 459.603 291.376 460.403 291.376ZM460.899 293.056C460.43 293.056 460.009 293.173 459.635 293.408C459.273 293.643 458.99 293.963 458.787 294.368C458.585 294.773 458.478 295.237 458.467 295.76C458.478 296.283 458.585 296.747 458.787 297.152C458.99 297.557 459.273 297.877 459.635 298.112C460.009 298.336 460.43 298.448 460.899 298.448C461.379 298.448 461.801 298.336 462.163 298.112C462.537 297.877 462.825 297.557 463.027 297.152C463.23 296.747 463.331 296.283 463.331 295.76C463.331 295.227 463.23 294.763 463.027 294.368C462.825 293.963 462.537 293.643 462.163 293.408C461.801 293.173 461.379 293.056 460.899 293.056ZM463.331 288.128H465.411V300H463.331V288.128ZM473.853 295.088C473.832 294.64 473.731 294.261 473.549 293.952C473.368 293.632 473.112 293.387 472.781 293.216C472.461 293.035 472.093 292.944 471.677 292.944C471.197 292.944 470.781 293.056 470.429 293.28C470.077 293.504 469.8 293.819 469.597 294.224C469.405 294.629 469.309 295.099 469.309 295.632C469.309 296.219 469.416 296.725 469.629 297.152C469.853 297.579 470.157 297.909 470.541 298.144C470.925 298.368 471.368 298.48 471.869 298.48C472.776 298.48 473.549 298.155 474.189 297.504L475.293 298.608C474.867 299.077 474.349 299.44 473.741 299.696C473.133 299.952 472.456 300.08 471.709 300.08C470.813 300.08 470.035 299.899 469.373 299.536C468.723 299.163 468.211 298.656 467.837 298.016C467.475 297.365 467.293 296.608 467.293 295.744C467.293 294.88 467.475 294.123 467.837 293.472C468.211 292.821 468.723 292.315 469.373 291.952C470.035 291.589 470.792 291.403 471.645 291.392C472.659 291.392 473.475 291.6 474.093 292.016C474.723 292.432 475.171 293.019 475.437 293.776C475.704 294.523 475.8 295.413 475.725 296.448H469.005V295.088H473.853ZM478.042 293.184C478.362 293.184 478.623 293.285 478.826 293.488C479.039 293.691 479.146 293.952 479.146 294.272C479.146 294.603 479.039 294.875 478.826 295.088C478.623 295.291 478.362 295.392 478.042 295.392C477.733 295.392 477.471 295.291 477.258 295.088C477.055 294.875 476.954 294.603 476.954 294.272C476.954 293.952 477.055 293.691 477.258 293.488C477.471 293.285 477.733 293.184 478.042 293.184ZM478.042 297.936C478.362 297.936 478.623 298.037 478.826 298.24C479.039 298.443 479.146 298.704 479.146 299.024C479.146 299.355 479.039 299.627 478.826 299.84C478.623 300.043 478.362 300.144 478.042 300.144C477.733 300.144 477.471 300.043 477.258 299.84C477.055 299.627 476.954 299.355 476.954 299.024C476.954 298.704 477.055 298.443 477.258 298.24C477.471 298.037 477.733 297.936 478.042 297.936ZM484.172 288.8H488.668V300H486.524V289.648L487.468 290.592H484.172V288.8ZM495.93 288.72C497.476 288.72 498.666 289.211 499.498 290.192C500.33 291.173 500.746 292.576 500.746 294.4C500.746 296.224 500.33 297.627 499.498 298.608C498.666 299.589 497.476 300.08 495.93 300.08C494.383 300.08 493.194 299.589 492.362 298.608C491.53 297.627 491.114 296.224 491.114 294.4C491.114 292.576 491.53 291.173 492.362 290.192C493.194 289.211 494.383 288.72 495.93 288.72ZM495.93 290.304C495.055 290.304 494.399 290.635 493.962 291.296C493.535 291.957 493.322 292.992 493.322 294.4C493.322 295.797 493.535 296.832 493.962 297.504C494.399 298.165 495.055 298.496 495.93 298.496C496.815 298.496 497.471 298.165 497.898 297.504C498.324 296.832 498.538 295.797 498.538 294.4C498.538 292.992 498.324 291.957 497.898 291.296C497.471 290.635 496.815 290.304 495.93 290.304ZM506.266 286.96H508.027L502.939 301.856H501.162L506.266 286.96ZM511.785 294.144C512.18 293.739 512.5 293.333 512.745 292.928C513.001 292.512 513.129 292.149 513.129 291.84C513.129 291.403 512.969 291.067 512.649 290.832C512.329 290.597 511.886 290.48 511.321 290.48C510.83 290.48 510.308 290.603 509.753 290.848C509.198 291.093 508.676 291.429 508.185 291.856L507.337 290.32C507.988 289.819 508.676 289.424 509.401 289.136C510.126 288.848 510.868 288.704 511.625 288.704C512.372 288.704 513.022 288.821 513.577 289.056C514.132 289.291 514.569 289.621 514.889 290.048C515.209 290.475 515.369 290.971 515.369 291.536C515.369 292.101 515.166 292.699 514.761 293.328C514.366 293.947 513.86 294.576 513.241 295.216L509.705 298.88L509.417 298.224H515.849V300H507.561V298.528L511.785 294.144ZM522.055 288.72C523.601 288.72 524.791 289.211 525.623 290.192C526.455 291.173 526.871 292.576 526.871 294.4C526.871 296.224 526.455 297.627 525.623 298.608C524.791 299.589 523.601 300.08 522.055 300.08C520.508 300.08 519.319 299.589 518.487 298.608C517.655 297.627 517.239 296.224 517.239 294.4C517.239 292.576 517.655 291.173 518.487 290.192C519.319 289.211 520.508 288.72 522.055 288.72ZM522.055 290.304C521.18 290.304 520.524 290.635 520.087 291.296C519.66 291.957 519.447 292.992 519.447 294.4C519.447 295.797 519.66 296.832 520.087 297.504C520.524 298.165 521.18 298.496 522.055 298.496C522.94 298.496 523.596 298.165 524.023 297.504C524.449 296.832 524.663 295.797 524.663 294.4C524.663 292.992 524.449 291.957 524.023 291.296C523.596 290.635 522.94 290.304 522.055 290.304ZM532.52 294.144C532.914 293.739 533.234 293.333 533.48 292.928C533.736 292.512 533.864 292.149 533.864 291.84C533.864 291.403 533.704 291.067 533.384 290.832C533.064 290.597 532.621 290.48 532.056 290.48C531.565 290.48 531.042 290.603 530.488 290.848C529.933 291.093 529.41 291.429 528.92 291.856L528.072 290.32C528.722 289.819 529.41 289.424 530.136 289.136C530.861 288.848 531.602 288.704 532.36 288.704C533.106 288.704 533.757 288.821 534.312 289.056C534.866 289.291 535.304 289.621 535.624 290.048C535.944 290.475 536.104 290.971 536.104 291.536C536.104 292.101 535.901 292.699 535.496 293.328C535.101 293.947 534.594 294.576 533.976 295.216L530.44 298.88L530.152 298.224H536.584V300H528.296V298.528L532.52 294.144ZM538.933 297.712C539.264 297.947 539.642 298.128 540.069 298.256C540.496 298.373 540.922 298.432 541.349 298.432C542.042 298.432 542.608 298.272 543.045 297.952C543.493 297.621 543.818 297.163 544.021 296.576C544.234 295.979 544.336 295.291 544.325 294.512C544.026 295.024 543.632 295.413 543.141 295.68C542.65 295.936 542.064 296.064 541.381 296.064C540.656 296.064 540.021 295.92 539.477 295.632C538.944 295.333 538.533 294.917 538.245 294.384C537.957 293.84 537.813 293.205 537.813 292.48C537.813 291.701 537.978 291.035 538.309 290.48C538.64 289.915 539.098 289.477 539.685 289.168C540.282 288.859 540.981 288.704 541.781 288.704C542.73 288.704 543.546 288.923 544.229 289.36C544.912 289.797 545.44 290.427 545.813 291.248C546.186 292.059 546.373 293.035 546.373 294.176C546.373 295.371 546.17 296.411 545.765 297.296C545.37 298.181 544.805 298.869 544.069 299.36C543.344 299.851 542.485 300.096 541.493 300.096C540.917 300.096 540.32 300.016 539.701 299.856C539.093 299.696 538.56 299.483 538.101 299.216L538.933 297.712ZM541.877 290.416C541.461 290.416 541.093 290.501 540.773 290.672C540.464 290.832 540.218 291.067 540.037 291.376C539.866 291.685 539.781 292.059 539.781 292.496C539.781 293.104 539.962 293.589 540.325 293.952C540.688 294.315 541.184 294.496 541.813 294.496C542.282 294.496 542.682 294.4 543.013 294.208C543.344 294.016 543.594 293.765 543.765 293.456C543.936 293.136 544.016 292.789 544.005 292.416C544.005 292.181 543.962 291.947 543.877 291.712C543.802 291.467 543.68 291.248 543.509 291.056C543.338 290.864 543.114 290.709 542.837 290.592C542.57 290.475 542.25 290.416 541.877 290.416Z" fill="white"/>
<path d="M327.735 241.8H330.183L333.895 249.144L337.575 241.8H340.023V253H338.055V244.792L334.567 251.848H333.191L329.687 244.792V253H327.735V241.8ZM346.446 244.392C347.332 244.392 348.11 244.573 348.782 244.936C349.465 245.299 349.993 245.805 350.366 246.456C350.75 247.107 350.942 247.864 350.942 248.728C350.942 249.592 350.75 250.349 350.366 251C349.993 251.651 349.465 252.163 348.782 252.536C348.11 252.899 347.332 253.08 346.446 253.08C345.55 253.08 344.761 252.899 344.078 252.536C343.396 252.163 342.862 251.651 342.478 251C342.105 250.349 341.918 249.592 341.918 248.728C341.918 247.864 342.105 247.107 342.478 246.456C342.862 245.805 343.396 245.299 344.078 244.936C344.761 244.573 345.55 244.392 346.446 244.392ZM346.446 246.072C345.966 246.072 345.54 246.189 345.166 246.424C344.804 246.648 344.521 246.963 344.318 247.368C344.116 247.763 344.014 248.221 344.014 248.744C344.014 249.277 344.116 249.747 344.318 250.152C344.521 250.557 344.804 250.872 345.166 251.096C345.54 251.32 345.966 251.432 346.446 251.432C346.916 251.432 347.332 251.32 347.694 251.096C348.057 250.872 348.34 250.557 348.542 250.152C348.745 249.747 348.846 249.277 348.846 248.744C348.846 248.221 348.745 247.763 348.542 247.368C348.34 246.963 348.057 246.648 347.694 246.424C347.332 246.189 346.916 246.072 346.446 246.072ZM355.997 244.376C356.776 244.376 357.437 244.552 357.981 244.904C358.525 245.256 358.941 245.757 359.229 246.408C359.517 247.048 359.656 247.821 359.645 248.728C359.656 249.624 359.517 250.403 359.229 251.064C358.952 251.715 358.541 252.216 357.997 252.568C357.453 252.909 356.802 253.08 356.045 253.08C355.234 253.08 354.52 252.899 353.901 252.536C353.293 252.163 352.818 251.645 352.477 250.984C352.136 250.323 351.965 249.565 351.965 248.712C351.965 247.848 352.136 247.091 352.477 246.44C352.818 245.789 353.288 245.283 353.885 244.92C354.493 244.557 355.197 244.376 355.997 244.376ZM356.493 246.056C356.024 246.056 355.602 246.173 355.229 246.408C354.866 246.643 354.584 246.963 354.381 247.368C354.178 247.773 354.072 248.237 354.061 248.76C354.072 249.283 354.178 249.747 354.381 250.152C354.584 250.557 354.866 250.877 355.229 251.112C355.602 251.336 356.024 251.448 356.493 251.448C356.973 251.448 357.394 251.336 357.757 251.112C358.13 250.877 358.418 250.557 358.621 250.152C358.824 249.747 358.925 249.283 358.925 248.76C358.925 248.227 358.824 247.763 358.621 247.368C358.418 246.963 358.13 246.643 357.757 246.408C357.394 246.173 356.973 246.056 356.493 246.056ZM358.925 241.128H361.005V253H358.925V241.128ZM366.551 249.24C366.007 249.24 365.602 249.325 365.335 249.496C365.068 249.667 364.935 249.949 364.935 250.344C364.935 250.707 365.068 251 365.335 251.224C365.612 251.448 365.986 251.56 366.455 251.56C366.871 251.56 367.244 251.491 367.575 251.352C367.916 251.203 368.183 251.005 368.375 250.76C368.578 250.504 368.695 250.221 368.727 249.912L369.079 251.4C368.823 251.955 368.428 252.376 367.895 252.664C367.362 252.952 366.716 253.096 365.959 253.096C365.351 253.096 364.823 252.979 364.375 252.744C363.927 252.509 363.58 252.195 363.335 251.8C363.09 251.395 362.967 250.941 362.967 250.44C362.967 249.651 363.25 249.032 363.815 248.584C364.38 248.125 365.18 247.891 366.215 247.88H368.951V249.24H366.551ZM368.711 247.624C368.711 247.112 368.546 246.712 368.215 246.424C367.895 246.125 367.415 245.976 366.775 245.976C366.38 245.976 365.964 246.051 365.527 246.2C365.1 246.339 364.668 246.541 364.231 246.808L363.479 245.464C363.884 245.219 364.274 245.021 364.647 244.872C365.02 244.712 365.41 244.595 365.815 244.52C366.231 244.435 366.706 244.392 367.239 244.392C368.359 244.392 369.223 244.659 369.831 245.192C370.439 245.725 370.748 246.461 370.759 247.4L370.775 253H368.727L368.711 247.624ZM373.189 241.128H375.269V253H373.189V241.128ZM377.937 244.472H380.017V253H377.937V244.472ZM378.961 240.84C379.302 240.84 379.585 240.952 379.809 241.176C380.033 241.4 380.145 241.683 380.145 242.024C380.145 242.355 380.033 242.637 379.809 242.872C379.585 243.096 379.302 243.208 378.961 243.208C378.63 243.208 378.353 243.096 378.129 242.872C377.905 242.637 377.793 242.355 377.793 242.024C377.793 241.683 377.905 241.4 378.129 241.176C378.353 240.952 378.63 240.84 378.961 240.84ZM385.841 244.376C386.62 244.376 387.281 244.552 387.825 244.904C388.369 245.256 388.785 245.757 389.073 246.408C389.361 247.048 389.5 247.821 389.489 248.728C389.5 249.624 389.361 250.403 389.073 251.064C388.796 251.715 388.385 252.216 387.841 252.568C387.297 252.909 386.646 253.08 385.889 253.08C385.078 253.08 384.364 252.899 383.745 252.536C383.137 252.163 382.662 251.645 382.321 250.984C381.98 250.323 381.809 249.565 381.809 248.712C381.809 247.848 381.98 247.091 382.321 246.44C382.662 245.789 383.132 245.283 383.729 244.92C384.337 244.557 385.041 244.376 385.841 244.376ZM386.337 246.056C385.868 246.056 385.446 246.173 385.073 246.408C384.71 246.643 384.428 246.963 384.225 247.368C384.022 247.773 383.916 248.237 383.905 248.76C383.916 249.283 384.022 249.747 384.225 250.152C384.428 250.557 384.71 250.877 385.073 251.112C385.446 251.336 385.868 251.448 386.337 251.448C386.817 251.448 387.238 251.336 387.601 251.112C387.974 250.877 388.262 250.557 388.465 250.152C388.668 249.747 388.769 249.283 388.769 248.76C388.769 248.227 388.668 247.763 388.465 247.368C388.262 246.963 387.974 246.643 387.601 246.408C387.238 246.173 386.817 246.056 386.337 246.056ZM388.769 241.128H390.849V253H388.769V241.128ZM396.395 249.24C395.851 249.24 395.445 249.325 395.179 249.496C394.912 249.667 394.779 249.949 394.779 250.344C394.779 250.707 394.912 251 395.179 251.224C395.456 251.448 395.829 251.56 396.299 251.56C396.715 251.56 397.088 251.491 397.419 251.352C397.76 251.203 398.027 251.005 398.219 250.76C398.421 250.504 398.539 250.221 398.571 249.912L398.923 251.4C398.667 251.955 398.272 252.376 397.739 252.664C397.205 252.952 396.56 253.096 395.803 253.096C395.195 253.096 394.667 252.979 394.219 252.744C393.771 252.509 393.424 252.195 393.179 251.8C392.933 251.395 392.811 250.941 392.811 250.44C392.811 249.651 393.093 249.032 393.659 248.584C394.224 248.125 395.024 247.891 396.059 247.88H398.795V249.24H396.395ZM398.555 247.624C398.555 247.112 398.389 246.712 398.059 246.424C397.739 246.125 397.259 245.976 396.619 245.976C396.224 245.976 395.808 246.051 395.371 246.2C394.944 246.339 394.512 246.541 394.075 246.808L393.323 245.464C393.728 245.219 394.117 245.021 394.491 244.872C394.864 244.712 395.253 244.595 395.659 244.52C396.075 244.435 396.549 244.392 397.083 244.392C398.203 244.392 399.067 244.659 399.675 245.192C400.283 245.725 400.592 246.461 400.603 247.4L400.619 253H398.571L398.555 247.624ZM406.2 244.376C406.979 244.376 407.64 244.552 408.184 244.904C408.728 245.256 409.144 245.757 409.432 246.408C409.72 247.048 409.859 247.821 409.848 248.728C409.859 249.624 409.72 250.403 409.432 251.064C409.155 251.715 408.744 252.216 408.2 252.568C407.656 252.909 407.006 253.08 406.248 253.08C405.438 253.08 404.723 252.899 404.104 252.536C403.496 252.163 403.022 251.645 402.68 250.984C402.339 250.323 402.168 249.565 402.168 248.712C402.168 247.848 402.339 247.091 402.68 246.44C403.022 245.789 403.491 245.283 404.088 244.92C404.696 244.557 405.4 244.376 406.2 244.376ZM406.696 246.056C406.227 246.056 405.806 246.173 405.432 246.408C405.07 246.643 404.787 246.963 404.584 247.368C404.382 247.773 404.275 248.237 404.264 248.76C404.275 249.283 404.382 249.747 404.584 250.152C404.787 250.557 405.07 250.877 405.432 251.112C405.806 251.336 406.227 251.448 406.696 251.448C407.176 251.448 407.598 251.336 407.96 251.112C408.334 250.877 408.622 250.557 408.824 250.152C409.027 249.747 409.128 249.283 409.128 248.76C409.128 248.227 409.027 247.763 408.824 247.368C408.622 246.963 408.334 246.643 407.96 246.408C407.598 246.173 407.176 246.056 406.696 246.056ZM409.128 241.128H411.208V253H409.128V241.128ZM419.65 248.088C419.629 247.64 419.527 247.261 419.346 246.952C419.165 246.632 418.909 246.387 418.578 246.216C418.258 246.035 417.89 245.944 417.474 245.944C416.994 245.944 416.578 246.056 416.226 246.28C415.874 246.504 415.597 246.819 415.394 247.224C415.202 247.629 415.106 248.099 415.106 248.632C415.106 249.219 415.213 249.725 415.426 250.152C415.65 250.579 415.954 250.909 416.338 251.144C416.722 251.368 417.165 251.48 417.666 251.48C418.573 251.48 419.346 251.155 419.986 250.504L421.09 251.608C420.663 252.077 420.146 252.44 419.538 252.696C418.93 252.952 418.253 253.08 417.506 253.08C416.61 253.08 415.831 252.899 415.17 252.536C414.519 252.163 414.007 251.656 413.634 251.016C413.271 250.365 413.09 249.608 413.09 248.744C413.09 247.88 413.271 247.123 413.634 246.472C414.007 245.821 414.519 245.315 415.17 244.952C415.831 244.589 416.589 244.403 417.442 244.392C418.455 244.392 419.271 244.6 419.89 245.016C420.519 245.432 420.967 246.019 421.234 246.776C421.501 247.523 421.597 248.413 421.522 249.448H414.802V248.088H419.65ZM423.839 246.184C424.159 246.184 424.42 246.285 424.623 246.488C424.836 246.691 424.943 246.952 424.943 247.272C424.943 247.603 424.836 247.875 424.623 248.088C424.42 248.291 424.159 248.392 423.839 248.392C423.53 248.392 423.268 248.291 423.055 248.088C422.852 247.875 422.751 247.603 422.751 247.272C422.751 246.952 422.852 246.691 423.055 246.488C423.268 246.285 423.53 246.184 423.839 246.184ZM423.839 250.936C424.159 250.936 424.42 251.037 424.623 251.24C424.836 251.443 424.943 251.704 424.943 252.024C424.943 252.355 424.836 252.627 424.623 252.84C424.42 253.043 424.159 253.144 423.839 253.144C423.53 253.144 423.268 253.043 423.055 252.84C422.852 252.627 422.751 252.355 422.751 252.024C422.751 251.704 422.852 251.443 423.055 251.24C423.268 251.037 423.53 250.936 423.839 250.936ZM431.329 241.8H433.777L437.489 249.144L441.169 241.8H443.617V253H441.649V244.792L438.161 251.848H436.785L433.281 244.792V253H431.329V241.8ZM452.072 248.088C452.051 247.64 451.949 247.261 451.768 246.952C451.587 246.632 451.331 246.387 451 246.216C450.68 246.035 450.312 245.944 449.896 245.944C449.416 245.944 449 246.056 448.648 246.28C448.296 246.504 448.019 246.819 447.816 247.224C447.624 247.629 447.528 248.099 447.528 248.632C447.528 249.219 447.635 249.725 447.848 250.152C448.072 250.579 448.376 250.909 448.76 251.144C449.144 251.368 449.587 251.48 450.088 251.48C450.995 251.48 451.768 251.155 452.408 250.504L453.512 251.608C453.085 252.077 452.568 252.44 451.96 252.696C451.352 252.952 450.675 253.08 449.928 253.08C449.032 253.08 448.253 252.899 447.592 252.536C446.941 252.163 446.429 251.656 446.056 251.016C445.693 250.365 445.512 249.608 445.512 248.744C445.512 247.88 445.693 247.123 446.056 246.472C446.429 245.821 446.941 245.315 447.592 244.952C448.253 244.589 449.011 244.403 449.864 244.392C450.877 244.392 451.693 244.6 452.312 245.016C452.941 245.432 453.389 246.019 453.656 246.776C453.923 247.523 454.019 248.413 453.944 249.448H447.224V248.088H452.072ZM461.989 248.232C461.989 247.613 461.818 247.128 461.477 246.776C461.146 246.424 460.682 246.248 460.085 246.248C459.391 246.248 458.842 246.493 458.437 246.984C458.042 247.464 457.845 248.072 457.845 248.808H457.285C457.285 247.763 457.429 246.92 457.717 246.28C458.015 245.629 458.437 245.155 458.981 244.856C459.535 244.547 460.181 244.392 460.917 244.392C461.578 244.392 462.143 244.525 462.613 244.792C463.082 245.059 463.445 245.437 463.701 245.928C463.957 246.408 464.085 246.989 464.085 247.672V253H461.989V248.232ZM455.765 244.472H457.845V253H455.765V244.472ZM471.493 246.696C471.077 246.451 470.645 246.264 470.197 246.136C469.749 245.997 469.344 245.928 468.981 245.928C468.64 245.928 468.362 245.992 468.149 246.12C467.936 246.237 467.829 246.44 467.829 246.728C467.829 246.973 467.936 247.171 468.149 247.32C468.373 247.469 468.656 247.597 468.997 247.704C469.338 247.8 469.701 247.907 470.085 248.024C470.469 248.141 470.832 248.296 471.173 248.488C471.525 248.68 471.808 248.936 472.021 249.256C472.245 249.576 472.357 249.997 472.357 250.52C472.357 251.096 472.202 251.576 471.893 251.96C471.584 252.333 471.173 252.616 470.661 252.808C470.149 252.989 469.589 253.08 468.981 253.08C468.341 253.08 467.701 252.979 467.061 252.776C466.432 252.573 465.893 252.275 465.445 251.88L466.165 250.488C466.56 250.829 467.024 251.096 467.557 251.288C468.101 251.469 468.602 251.56 469.061 251.56C469.306 251.56 469.525 251.528 469.717 251.464C469.909 251.4 470.058 251.309 470.165 251.192C470.272 251.064 470.325 250.899 470.325 250.696C470.325 250.419 470.218 250.205 470.005 250.056C469.792 249.896 469.514 249.763 469.173 249.656C468.842 249.539 468.485 249.427 468.101 249.32C467.717 249.203 467.354 249.053 467.013 248.872C466.682 248.68 466.41 248.429 466.197 248.12C465.984 247.811 465.877 247.4 465.877 246.888C465.877 246.312 466.026 245.837 466.325 245.464C466.624 245.091 467.018 244.819 467.509 244.648C468 244.467 468.533 244.376 469.109 244.376C469.664 244.376 470.218 244.456 470.773 244.616C471.328 244.765 471.818 244.979 472.245 245.256L471.493 246.696ZM477.02 249.24C476.476 249.24 476.07 249.325 475.804 249.496C475.537 249.667 475.404 249.949 475.404 250.344C475.404 250.707 475.537 251 475.804 251.224C476.081 251.448 476.454 251.56 476.924 251.56C477.34 251.56 477.713 251.491 478.044 251.352C478.385 251.203 478.652 251.005 478.844 250.76C479.046 250.504 479.164 250.221 479.196 249.912L479.548 251.4C479.292 251.955 478.897 252.376 478.364 252.664C477.83 252.952 477.185 253.096 476.428 253.096C475.82 253.096 475.292 252.979 474.844 252.744C474.396 252.509 474.049 252.195 473.804 251.8C473.558 251.395 473.436 250.941 473.436 250.44C473.436 249.651 473.718 249.032 474.284 248.584C474.849 248.125 475.649 247.891 476.684 247.88H479.42V249.24H477.02ZM479.18 247.624C479.18 247.112 479.014 246.712 478.684 246.424C478.364 246.125 477.884 245.976 477.244 245.976C476.849 245.976 476.433 246.051 475.996 246.2C475.569 246.339 475.137 246.541 474.7 246.808L473.948 245.464C474.353 245.219 474.742 245.021 475.116 244.872C475.489 244.712 475.878 244.595 476.284 244.52C476.7 244.435 477.174 244.392 477.708 244.392C478.828 244.392 479.692 244.659 480.3 245.192C480.908 245.725 481.217 246.461 481.228 247.4L481.244 253H479.196L479.18 247.624ZM483.657 241.128H485.737V253H483.657V241.128ZM494.734 248.392C494.734 249.309 494.985 250.029 495.486 250.552C495.987 251.075 496.659 251.336 497.502 251.336C498.334 251.336 498.995 251.08 499.486 250.568C499.977 250.045 500.222 249.32 500.222 248.392V241.8H502.366V248.392C502.366 249.373 502.169 250.221 501.774 250.936C501.39 251.64 500.83 252.184 500.094 252.568C499.369 252.952 498.505 253.144 497.502 253.144C496.489 253.144 495.614 252.952 494.878 252.568C494.142 252.184 493.577 251.64 493.182 250.936C492.787 250.221 492.59 249.373 492.59 248.392V241.8H494.734V248.392ZM509.804 246.28C509.206 246.237 508.689 246.328 508.252 246.552C507.814 246.765 507.478 247.075 507.244 247.48C507.009 247.885 506.892 248.349 506.892 248.872L506.332 248.808C506.332 247.859 506.47 247.059 506.748 246.408C507.025 245.747 507.425 245.245 507.948 244.904C508.47 244.563 509.089 244.392 509.804 244.392V246.28ZM504.812 244.472H506.892V253H504.812V244.472ZM516.305 244.392C517.115 244.392 517.825 244.573 518.433 244.936C519.041 245.299 519.51 245.811 519.841 246.472C520.182 247.123 520.353 247.885 520.353 248.76C520.353 249.613 520.187 250.365 519.857 251.016C519.526 251.656 519.057 252.163 518.449 252.536C517.851 252.899 517.147 253.08 516.337 253.08C515.579 253.08 514.929 252.909 514.385 252.568C513.841 252.216 513.425 251.715 513.137 251.064C512.849 250.413 512.705 249.645 512.705 248.76C512.705 247.843 512.843 247.059 513.121 246.408C513.409 245.757 513.825 245.261 514.369 244.92C514.913 244.568 515.558 244.392 516.305 244.392ZM515.841 246.04C515.371 246.04 514.95 246.157 514.577 246.392C514.214 246.616 513.931 246.931 513.729 247.336C513.526 247.731 513.425 248.189 513.425 248.712C513.425 249.235 513.526 249.699 513.729 250.104C513.931 250.509 514.214 250.824 514.577 251.048C514.95 251.272 515.371 251.384 515.841 251.384C516.321 251.384 516.737 251.272 517.089 251.048C517.451 250.813 517.734 250.499 517.937 250.104C518.139 249.699 518.241 249.235 518.241 248.712C518.241 248.189 518.139 247.731 517.937 247.336C517.734 246.931 517.451 246.616 517.089 246.392C516.737 246.157 516.321 246.04 515.841 246.04ZM511.345 241.128H513.425V253H511.345V241.128ZM525.035 249.24C524.491 249.24 524.086 249.325 523.819 249.496C523.553 249.667 523.419 249.949 523.419 250.344C523.419 250.707 523.553 251 523.819 251.224C524.097 251.448 524.47 251.56 524.939 251.56C525.355 251.56 525.729 251.491 526.059 251.352C526.401 251.203 526.667 251.005 526.859 250.76C527.062 250.504 527.179 250.221 527.211 249.912L527.563 251.4C527.307 251.955 526.913 252.376 526.379 252.664C525.846 252.952 525.201 253.096 524.443 253.096C523.835 253.096 523.307 252.979 522.859 252.744C522.411 252.509 522.065 252.195 521.819 251.8C521.574 251.395 521.451 250.941 521.451 250.44C521.451 249.651 521.734 249.032 522.299 248.584C522.865 248.125 523.665 247.891 524.699 247.88H527.435V249.24H525.035ZM527.195 247.624C527.195 247.112 527.03 246.712 526.699 246.424C526.379 246.125 525.899 245.976 525.259 245.976C524.865 245.976 524.449 246.051 524.011 246.2C523.585 246.339 523.153 246.541 522.715 246.808L521.963 245.464C522.369 245.219 522.758 245.021 523.131 244.872C523.505 244.712 523.894 244.595 524.299 244.52C524.715 244.435 525.19 244.392 525.723 244.392C526.843 244.392 527.707 244.659 528.315 245.192C528.923 245.725 529.233 246.461 529.243 247.4L529.259 253H527.211L527.195 247.624ZM537.817 248.232C537.817 247.613 537.646 247.128 537.305 246.776C536.974 246.424 536.51 246.248 535.913 246.248C535.22 246.248 534.67 246.493 534.265 246.984C533.87 247.464 533.673 248.072 533.673 248.808H533.113C533.113 247.763 533.257 246.92 533.545 246.28C533.844 245.629 534.265 245.155 534.809 244.856C535.364 244.547 536.009 244.392 536.745 244.392C537.406 244.392 537.972 244.525 538.441 244.792C538.91 245.059 539.273 245.437 539.529 245.928C539.785 246.408 539.913 246.989 539.913 247.672V253H537.817V248.232ZM531.593 244.472H533.673V253H531.593V244.472ZM545.993 244.392C546.878 244.392 547.657 244.573 548.329 244.936C549.012 245.299 549.54 245.805 549.913 246.456C550.297 247.107 550.489 247.864 550.489 248.728C550.489 249.592 550.297 250.349 549.913 251C549.54 251.651 549.012 252.163 548.329 252.536C547.657 252.899 546.878 253.08 545.993 253.08C545.097 253.08 544.308 252.899 543.625 252.536C542.942 252.163 542.409 251.651 542.025 251C541.652 250.349 541.465 249.592 541.465 248.728C541.465 247.864 541.652 247.107 542.025 246.456C542.409 245.805 542.942 245.299 543.625 244.936C544.308 244.573 545.097 244.392 545.993 244.392ZM545.993 246.072C545.513 246.072 545.086 246.189 544.713 246.424C544.35 246.648 544.068 246.963 543.865 247.368C543.662 247.763 543.561 248.221 543.561 248.744C543.561 249.277 543.662 249.747 543.865 250.152C544.068 250.557 544.35 250.872 544.713 251.096C545.086 251.32 545.513 251.432 545.993 251.432C546.462 251.432 546.878 251.32 547.241 251.096C547.604 250.872 547.886 250.557 548.089 250.152C548.292 249.747 548.393 249.277 548.393 248.744C548.393 248.221 548.292 247.763 548.089 247.368C547.886 246.963 547.604 246.648 547.241 246.424C546.878 246.189 546.462 246.072 545.993 246.072Z" fill="white"/>
<path d="M48.125 314C47.5406 314 47.0508 313.798 46.6555 313.395C46.2602 312.991 46.0625 312.491 46.0625 311.895V307.579C45.4438 306.877 44.9453 306.096 44.5672 305.237C44.1891 304.377 44 303.439 44 302.421V282.421C44 279.509 45.3234 277.377 47.9703 276.026C50.6172 274.675 54.7937 274 60.5 274C66.4125 274 70.6406 274.649 73.1844 275.947C75.7281 277.246 77 279.404 77 282.421V302.421C77 303.439 76.8109 304.377 76.4328 305.237C76.0547 306.096 75.5562 306.877 74.9375 307.579V311.895C74.9375 312.491 74.7398 312.991 74.3445 313.395C73.9492 313.798 73.4594 314 72.875 314H70.8125C70.2281 314 69.7383 313.798 69.343 313.395C68.9477 312.991 68.75 312.491 68.75 311.895V309.789H52.25V311.895C52.25 312.491 52.0523 312.991 51.657 313.395C51.2617 313.798 50.7719 314 50.1875 314H48.125ZM48.125 290.842H72.875V284.526H48.125V290.842ZM53.2812 303.474C54.1406 303.474 54.8711 303.167 55.4727 302.553C56.0742 301.939 56.375 301.193 56.375 300.316C56.375 299.439 56.0742 298.693 55.4727 298.079C54.8711 297.465 54.1406 297.158 53.2812 297.158C52.4219 297.158 51.6914 297.465 51.0898 298.079C50.4883 298.693 50.1875 299.439 50.1875 300.316C50.1875 301.193 50.4883 301.939 51.0898 302.553C51.6914 303.167 52.4219 303.474 53.2812 303.474ZM67.7188 303.474C68.5781 303.474 69.3086 303.167 69.9102 302.553C70.5117 301.939 70.8125 301.193 70.8125 300.316C70.8125 299.439 70.5117 298.693 69.9102 298.079C69.3086 297.465 68.5781 297.158 67.7188 297.158C66.8594 297.158 66.1289 297.465 65.5273 298.079C64.9258 298.693 64.625 299.439 64.625 300.316C64.625 301.193 64.9258 301.939 65.5273 302.553C66.1289 303.167 66.8594 303.474 67.7188 303.474ZM49.0531 280.316H72.1531C71.6375 279.719 70.5289 279.219 68.8273 278.816C67.1258 278.412 64.3844 278.211 60.6031 278.211C56.925 278.211 54.2352 278.43 52.5336 278.868C50.832 279.307 49.6719 279.789 49.0531 280.316ZM52.25 305.579H68.75C69.8844 305.579 70.8555 305.167 71.6633 304.342C72.4711 303.518 72.875 302.526 72.875 301.368V295.053H48.125V301.368C48.125 302.526 48.5289 303.518 49.3367 304.342C50.1445 305.167 51.1156 305.579 52.25 305.579Z" fill="white"/>
<defs>
<radialGradient id="paint0_radial_375_360" cx="0" cy="0" r="1" gradientTransform="matrix(-939.902 528.733 -911.974 -1619.84 696.5 -46.4999)" gradientUnits="userSpaceOnUse">
<stop stop-color="#ACCCFD"/>
<stop offset="1" stop-color="#2A3FCA"/>
</radialGradient>
</defs>
</svg>
