<svg width="210" height="210" viewBox="0 0 210 210" fill="none" xmlns="http://www.w3.org/2000/svg">
<rect width="210" height="210" rx="20" fill="url(#paint0_radial_341_361)"/>
<rect width="210" height="210" rx="20" fill="#9C9C9C" fill-opacity="0.08"/>
<g clip-path="url(#clip0_341_361)">
<path d="M103.201 116.211C89.4432 116.211 75.6859 116.211 61.9307 116.211C59.1311 116.211 58.125 115.169 58.125 112.281C58.125 103.147 58.125 94.0157 58.125 84.8819C58.1228 82.0825 59.1534 81.0321 61.8951 81.0321C82.6794 81.0321 103.464 80.9407 124.246 81.0663C136.096 81.1371 145.36 86.3433 151.68 96.701C152.733 98.4272 153.447 100.38 154.27 102.247C156.787 107.963 152.517 116.208 144.693 116.208C139.228 116.208 133.762 116.208 128.297 116.208C119.932 116.208 111.566 116.208 103.201 116.208V116.211ZM120.661 96.9248H144.276C137.999 89.2501 129.95 86.7977 120.661 87.5239V96.9248ZM64.4582 87.4828V96.927H76.8057V87.4828H64.4582ZM83.1724 96.9362H95.5221V87.4942H83.1724V96.9385V96.9362ZM114.274 96.9659V87.5262H101.927V96.9704H114.274V96.9659Z" fill="#1C1C8A"/>
<path d="M105.019 122.597C120.519 122.597 136.02 122.595 151.52 122.6C154.135 122.6 155.587 124.579 154.773 126.975C154.358 128.196 153.47 128.774 152.287 128.97C152.069 129.007 151.844 128.995 151.62 128.995C120.545 128.995 89.4704 128.998 58.3932 128.995C56.2003 128.995 54.9399 127.742 55.0001 125.678C55.0492 123.947 56.1579 122.748 57.8466 122.611C58.2169 122.581 58.5895 122.597 58.962 122.597C74.3144 122.597 89.6667 122.597 105.017 122.597H105.019Z" fill="#1C1C8A"/>
</g>
<defs>
<radialGradient id="paint0_radial_341_361" cx="0" cy="0" r="1" gradientTransform="matrix(232.312 -256.164 256.164 690.584 -17.325 235.797)" gradientUnits="userSpaceOnUse">
<stop stop-color="#BFEAFF"/>
<stop offset="1" stop-color="#B0C3F4"/>
</radialGradient>
<clipPath id="clip0_341_361">
<rect width="100" height="48" fill="white" transform="translate(55 81)"/>
</clipPath>
</defs>
</svg>
