<svg width="41" height="39" viewBox="0 0 41 39" fill="none" xmlns="http://www.w3.org/2000/svg">
<ellipse cx="20.0295" cy="19.1817" rx="20.0295" ry="19.1817" fill="#E1E8F6"/>
<path d="M10.6821 18.5423C10.6821 17.9684 11.1473 17.5033 11.7211 17.5033H23.8639L18.609 12.4708C18.164 12.0446 18.1703 11.3315 18.6227 10.9133C19.0378 10.5295 19.6799 10.5351 20.0882 10.9262L27.9474 18.4526C27.9984 18.5015 27.9984 18.5831 27.9474 18.6319L20.0899 26.1568C19.6826 26.5468 19.0405 26.5468 18.6333 26.1568C18.2017 25.7435 18.2002 25.0544 18.6299 24.6392L23.8639 19.5813H11.7211C11.1473 19.5813 10.6821 19.1161 10.6821 18.5423Z" fill="#1C1C8A"/>
</svg>
