<svg width="27" height="27" viewBox="0 0 27 27" fill="none" xmlns="http://www.w3.org/2000/svg">
<path d="M23.1972 9.50625C22.016 4.30875 17.4822 1.96875 13.4997 1.96875C13.4997 1.96875 13.4997 1.96875 13.4885 1.96875C9.51724 1.96875 4.97224 4.2975 3.79099 9.495C2.47474 15.3 6.02974 20.2162 9.24724 23.31C10.4397 24.4575 11.9697 25.0312 13.4997 25.0312C15.0297 25.0312 16.5597 24.4575 17.741 23.31C20.9585 20.2162 24.5135 15.3112 23.1972 9.50625ZM13.4997 15.1425C11.5422 15.1425 9.95599 13.5563 9.95599 11.5988C9.95599 9.64125 11.5422 8.055 13.4997 8.055C15.4572 8.055 17.0435 9.64125 17.0435 11.5988C17.0435 13.5563 15.4572 15.1425 13.4997 15.1425Z" fill="#1C1C8A"/>
</svg>
