<svg width="27" height="27" viewBox="0 0 27 27" fill="none" xmlns="http://www.w3.org/2000/svg">
<path d="M10.4059 24.75L9.95586 21.15C9.71211 21.0563 9.48242 20.9438 9.2668 20.8125C9.05117 20.6812 8.84023 20.5406 8.63398 20.3906L5.28711 21.7969L2.19336 16.4531L5.09023 14.2594C5.07148 14.1281 5.06211 14.0016 5.06211 13.8797V13.1203C5.06211 12.9984 5.07148 12.8719 5.09023 12.7406L2.19336 10.5469L5.28711 5.20312L8.63398 6.60938C8.84023 6.45937 9.05586 6.31875 9.28086 6.1875C9.50586 6.05625 9.73086 5.94375 9.95586 5.85L10.4059 2.25H16.5934L17.0434 5.85C17.2871 5.94375 17.5168 6.05625 17.7324 6.1875C17.948 6.31875 18.159 6.45937 18.3652 6.60938L21.7121 5.20312L24.8059 10.5469L21.909 12.7406C21.9277 12.8719 21.9371 12.9984 21.9371 13.1203V13.8797C21.9371 14.0016 21.9184 14.1281 21.8809 14.2594L24.7777 16.4531L21.684 21.7969L18.3652 20.3906C18.159 20.5406 17.9434 20.6812 17.7184 20.8125C17.4934 20.9438 17.2684 21.0563 17.0434 21.15L16.5934 24.75H10.4059ZM13.5559 17.4375C14.6434 17.4375 15.5715 17.0531 16.3402 16.2844C17.109 15.5156 17.4934 14.5875 17.4934 13.5C17.4934 12.4125 17.109 11.4844 16.3402 10.7156C15.5715 9.94688 14.6434 9.5625 13.5559 9.5625C12.4496 9.5625 11.5168 9.94688 10.7574 10.7156C9.99805 11.4844 9.61836 12.4125 9.61836 13.5C9.61836 14.5875 9.99805 15.5156 10.7574 16.2844C11.5168 17.0531 12.4496 17.4375 13.5559 17.4375Z" fill="#1C1C8A"/>
</svg>
