<svg width="362" height="210" viewBox="0 0 362 210" fill="none" xmlns="http://www.w3.org/2000/svg">
<rect width="362" height="210" rx="20" fill="url(#paint0_radial_320_358)"/>
<rect width="362" height="210" rx="20" fill="#9C9C9C" fill-opacity="0.08"/>
<path d="M181 78V105M167.333 91.5H194.667M157.083 61.125H204.917C208.691 61.125 211.75 64.1471 211.75 67.875V115.125C211.75 118.853 208.691 121.875 204.917 121.875H157.083C153.309 121.875 150.25 118.853 150.25 115.125V67.875C150.25 64.1471 153.309 61.125 157.083 61.125Z" stroke="url(#paint1_linear_320_358)" stroke-width="4" stroke-linecap="round" stroke-linejoin="round"/>
<path d="M137.86 153.9C137.367 153.34 136.78 152.9 136.1 152.58C135.42 152.247 134.74 152.08 134.06 152.08C133.407 152.08 132.793 152.207 132.22 152.46C131.66 152.7 131.16 153.047 130.72 153.5C130.293 153.94 129.96 154.453 129.72 155.04C129.48 155.627 129.36 156.26 129.36 156.94C129.36 157.62 129.48 158.26 129.72 158.86C129.96 159.447 130.293 159.96 130.72 160.4C131.16 160.84 131.66 161.187 132.22 161.44C132.793 161.693 133.407 161.82 134.06 161.82C134.74 161.82 135.413 161.673 136.08 161.38C136.747 161.073 137.34 160.66 137.86 160.14L139.44 161.8C138.973 162.28 138.433 162.7 137.82 163.06C137.22 163.42 136.587 163.7 135.92 163.9C135.267 164.087 134.6 164.18 133.92 164.18C132.893 164.18 131.933 164 131.04 163.64C130.16 163.267 129.387 162.753 128.72 162.1C128.067 161.447 127.553 160.68 127.18 159.8C126.807 158.92 126.62 157.98 126.62 156.98C126.62 155.967 126.807 155.033 127.18 154.18C127.553 153.313 128.08 152.553 128.76 151.9C129.44 151.247 130.22 150.74 131.1 150.38C131.993 150.02 132.967 149.84 134.02 149.84C134.7 149.84 135.36 149.933 136 150.12C136.653 150.293 137.273 150.547 137.86 150.88C138.447 151.2 138.967 151.593 139.42 152.06L137.86 153.9ZM147.786 155.6C147.039 155.547 146.392 155.66 145.846 155.94C145.299 156.207 144.879 156.593 144.586 157.1C144.292 157.607 144.146 158.187 144.146 158.84L143.446 158.76C143.446 157.573 143.619 156.573 143.966 155.76C144.312 154.933 144.812 154.307 145.466 153.88C146.119 153.453 146.892 153.24 147.786 153.24V155.6ZM141.546 153.34H144.146V164H141.546V153.34ZM156.832 157.86C156.806 157.3 156.679 156.827 156.452 156.44C156.226 156.04 155.906 155.733 155.492 155.52C155.092 155.293 154.632 155.18 154.112 155.18C153.512 155.18 152.992 155.32 152.552 155.6C152.112 155.88 151.766 156.273 151.512 156.78C151.272 157.287 151.152 157.873 151.152 158.54C151.152 159.273 151.286 159.907 151.552 160.44C151.832 160.973 152.212 161.387 152.692 161.68C153.172 161.96 153.726 162.1 154.352 162.1C155.486 162.1 156.452 161.693 157.252 160.88L158.632 162.26C158.099 162.847 157.452 163.3 156.692 163.62C155.932 163.94 155.086 164.1 154.152 164.1C153.032 164.1 152.059 163.873 151.232 163.42C150.419 162.953 149.779 162.32 149.312 161.52C148.859 160.707 148.632 159.76 148.632 158.68C148.632 157.6 148.859 156.653 149.312 155.84C149.779 155.027 150.419 154.393 151.232 153.94C152.059 153.487 153.006 153.253 154.072 153.24C155.339 153.24 156.359 153.5 157.132 154.02C157.919 154.54 158.479 155.273 158.812 156.22C159.146 157.153 159.266 158.267 159.172 159.56H150.772V157.86H156.832ZM165.048 159.3C164.368 159.3 163.861 159.407 163.528 159.62C163.195 159.833 163.028 160.187 163.028 160.68C163.028 161.133 163.195 161.5 163.528 161.78C163.875 162.06 164.341 162.2 164.928 162.2C165.448 162.2 165.915 162.113 166.328 161.94C166.755 161.753 167.088 161.507 167.328 161.2C167.581 160.88 167.728 160.527 167.768 160.14L168.208 162C167.888 162.693 167.395 163.22 166.728 163.58C166.061 163.94 165.255 164.12 164.308 164.12C163.548 164.12 162.888 163.973 162.328 163.68C161.768 163.387 161.335 162.993 161.028 162.5C160.721 161.993 160.568 161.427 160.568 160.8C160.568 159.813 160.921 159.04 161.628 158.48C162.335 157.907 163.335 157.613 164.628 157.6H168.048V159.3H165.048ZM167.748 157.28C167.748 156.64 167.541 156.14 167.128 155.78C166.728 155.407 166.128 155.22 165.328 155.22C164.835 155.22 164.315 155.313 163.768 155.5C163.235 155.673 162.695 155.927 162.148 156.26L161.208 154.58C161.715 154.273 162.201 154.027 162.668 153.84C163.135 153.64 163.621 153.493 164.128 153.4C164.648 153.293 165.241 153.24 165.908 153.24C167.308 153.24 168.388 153.573 169.148 154.24C169.908 154.907 170.295 155.827 170.308 157L170.328 164H167.768L167.748 157.28ZM176.265 160.52C176.265 161.053 176.365 161.42 176.565 161.62C176.765 161.82 177.038 161.92 177.385 161.92C177.598 161.92 177.832 161.887 178.085 161.82C178.338 161.74 178.612 161.62 178.905 161.46L179.505 163.34C179.105 163.58 178.672 163.773 178.205 163.92C177.752 164.053 177.292 164.12 176.825 164.12C176.252 164.12 175.725 164.013 175.245 163.8C174.765 163.573 174.385 163.227 174.105 162.76C173.825 162.28 173.685 161.68 173.685 160.96V150.82H176.265V160.52ZM172.185 153.74H179.325V155.56H172.185V153.74ZM188.668 157.86C188.641 157.3 188.515 156.827 188.288 156.44C188.061 156.04 187.741 155.733 187.328 155.52C186.928 155.293 186.468 155.18 185.948 155.18C185.348 155.18 184.828 155.32 184.388 155.6C183.948 155.88 183.601 156.273 183.348 156.78C183.108 157.287 182.988 157.873 182.988 158.54C182.988 159.273 183.121 159.907 183.388 160.44C183.668 160.973 184.048 161.387 184.528 161.68C185.008 161.96 185.561 162.1 186.188 162.1C187.321 162.1 188.288 161.693 189.088 160.88L190.468 162.26C189.935 162.847 189.288 163.3 188.528 163.62C187.768 163.94 186.921 164.1 185.988 164.1C184.868 164.1 183.895 163.873 183.068 163.42C182.255 162.953 181.615 162.32 181.148 161.52C180.695 160.707 180.468 159.76 180.468 158.68C180.468 157.6 180.695 156.653 181.148 155.84C181.615 155.027 182.255 154.393 183.068 153.94C183.895 153.487 184.841 153.253 185.908 153.24C187.175 153.24 188.195 153.5 188.968 154.02C189.755 154.54 190.315 155.273 190.648 156.22C190.981 157.153 191.101 158.267 191.008 159.56H182.608V157.86H188.668ZM204.495 150C206.268 150 207.641 150.42 208.615 151.26C209.588 152.1 210.075 153.28 210.075 154.8C210.075 156.387 209.588 157.62 208.615 158.5C207.641 159.38 206.268 159.82 204.495 159.82H200.275L201.455 158.64V164H198.775V150H204.495ZM204.375 157.6C205.375 157.6 206.141 157.373 206.675 156.92C207.221 156.467 207.495 155.78 207.495 154.86C207.495 153.98 207.221 153.327 206.675 152.9C206.141 152.46 205.375 152.24 204.375 152.24H200.275L201.455 151.06V158.78L200.275 157.6H204.375ZM215.771 159.3C215.091 159.3 214.584 159.407 214.251 159.62C213.917 159.833 213.751 160.187 213.751 160.68C213.751 161.133 213.917 161.5 214.251 161.78C214.597 162.06 215.064 162.2 215.651 162.2C216.171 162.2 216.637 162.113 217.051 161.94C217.477 161.753 217.811 161.507 218.051 161.2C218.304 160.88 218.451 160.527 218.491 160.14L218.931 162C218.611 162.693 218.117 163.22 217.451 163.58C216.784 163.94 215.977 164.12 215.031 164.12C214.271 164.12 213.611 163.973 213.051 163.68C212.491 163.387 212.057 162.993 211.751 162.5C211.444 161.993 211.291 161.427 211.291 160.8C211.291 159.813 211.644 159.04 212.351 158.48C213.057 157.907 214.057 157.613 215.351 157.6H218.771V159.3H215.771ZM218.471 157.28C218.471 156.64 218.264 156.14 217.851 155.78C217.451 155.407 216.851 155.22 216.051 155.22C215.557 155.22 215.037 155.313 214.491 155.5C213.957 155.673 213.417 155.927 212.871 156.26L211.931 154.58C212.437 154.273 212.924 154.027 213.391 153.84C213.857 153.64 214.344 153.493 214.851 153.4C215.371 153.293 215.964 153.24 216.631 153.24C218.031 153.24 219.111 153.573 219.871 154.24C220.631 154.907 221.017 155.827 221.031 157L221.051 164H218.491L218.471 157.28ZM230.308 156.12C229.788 155.813 229.248 155.58 228.688 155.42C228.128 155.247 227.621 155.16 227.168 155.16C226.741 155.16 226.394 155.24 226.128 155.4C225.861 155.547 225.728 155.8 225.728 156.16C225.728 156.467 225.861 156.713 226.128 156.9C226.408 157.087 226.761 157.247 227.188 157.38C227.614 157.5 228.068 157.633 228.548 157.78C229.028 157.927 229.481 158.12 229.908 158.36C230.348 158.6 230.701 158.92 230.968 159.32C231.248 159.72 231.388 160.247 231.388 160.9C231.388 161.62 231.194 162.22 230.808 162.7C230.421 163.167 229.908 163.52 229.268 163.76C228.628 163.987 227.928 164.1 227.168 164.1C226.368 164.1 225.568 163.973 224.768 163.72C223.981 163.467 223.308 163.093 222.748 162.6L223.648 160.86C224.141 161.287 224.721 161.62 225.388 161.86C226.068 162.087 226.694 162.2 227.268 162.2C227.574 162.2 227.848 162.16 228.088 162.08C228.328 162 228.514 161.887 228.648 161.74C228.781 161.58 228.848 161.373 228.848 161.12C228.848 160.773 228.714 160.507 228.448 160.32C228.181 160.12 227.834 159.953 227.408 159.82C226.994 159.673 226.548 159.533 226.068 159.4C225.588 159.253 225.134 159.067 224.708 158.84C224.294 158.6 223.954 158.287 223.688 157.9C223.421 157.513 223.288 157 223.288 156.36C223.288 155.64 223.474 155.047 223.848 154.58C224.221 154.113 224.714 153.773 225.328 153.56C225.941 153.333 226.608 153.22 227.328 153.22C228.021 153.22 228.714 153.32 229.408 153.52C230.101 153.707 230.714 153.973 231.248 154.32L230.308 156.12ZM239.956 156.12C239.436 155.813 238.896 155.58 238.336 155.42C237.776 155.247 237.269 155.16 236.816 155.16C236.389 155.16 236.043 155.24 235.776 155.4C235.509 155.547 235.376 155.8 235.376 156.16C235.376 156.467 235.509 156.713 235.776 156.9C236.056 157.087 236.409 157.247 236.836 157.38C237.263 157.5 237.716 157.633 238.196 157.78C238.676 157.927 239.129 158.12 239.556 158.36C239.996 158.6 240.349 158.92 240.616 159.32C240.896 159.72 241.036 160.247 241.036 160.9C241.036 161.62 240.843 162.22 240.456 162.7C240.069 163.167 239.556 163.52 238.916 163.76C238.276 163.987 237.576 164.1 236.816 164.1C236.016 164.1 235.216 163.973 234.416 163.72C233.629 163.467 232.956 163.093 232.396 162.6L233.296 160.86C233.789 161.287 234.369 161.62 235.036 161.86C235.716 162.087 236.343 162.2 236.916 162.2C237.223 162.2 237.496 162.16 237.736 162.08C237.976 162 238.163 161.887 238.296 161.74C238.429 161.58 238.496 161.373 238.496 161.12C238.496 160.773 238.363 160.507 238.096 160.32C237.829 160.12 237.483 159.953 237.056 159.82C236.643 159.673 236.196 159.533 235.716 159.4C235.236 159.253 234.783 159.067 234.356 158.84C233.943 158.6 233.603 158.287 233.336 157.9C233.069 157.513 232.936 157 232.936 156.36C232.936 155.64 233.123 155.047 233.496 154.58C233.869 154.113 234.363 153.773 234.976 153.56C235.589 153.333 236.256 153.22 236.976 153.22C237.669 153.22 238.363 153.32 239.056 153.52C239.749 153.707 240.363 153.973 240.896 154.32L239.956 156.12Z" fill="#1C1C8A" fill-opacity="0.3"/>
<defs>
<radialGradient id="paint0_radial_320_358" cx="0" cy="0" r="1" gradientTransform="matrix(400.462 -256.164 441.578 690.584 -29.865 235.797)" gradientUnits="userSpaceOnUse">
<stop stop-color="#BFEAFF"/>
<stop offset="1" stop-color="#B0C3F4"/>
</radialGradient>
<linearGradient id="paint1_linear_320_358" x1="127.7" y1="136.05" x2="230.482" y2="46.6031" gradientUnits="userSpaceOnUse">
<stop stop-color="#9AACD7"/>
<stop offset="1" stop-color="#6A899C"/>
</linearGradient>
</defs>
</svg>
