<svg width="86" height="86" viewBox="0 0 86 86" fill="none" xmlns="http://www.w3.org/2000/svg">
<circle cx="43" cy="43" r="43" transform="rotate(180 43 43)" fill="#1C1C8A"/>
<path d="M60.8819 43.292C60.8819 44.5783 59.8391 45.6211 58.5527 45.6211L32.5828 45.6211L43.9372 56.9755C44.8652 57.9036 44.8519 59.4122 43.9076 60.3237C42.9867 61.2128 41.5232 61.1999 40.618 60.2947L23.7997 43.4764C23.6978 43.3746 23.6978 43.2094 23.7997 43.1075L40.6145 26.2927C41.517 25.3902 42.9801 25.3902 43.8825 26.2927C44.782 27.1923 44.7853 28.6497 43.8898 29.5532L32.5828 40.9628L58.5527 40.9628C59.8391 40.9628 60.8819 42.0056 60.8819 43.292Z" fill="#E1E8F6"/>
</svg>
