<?xml version="1.0" encoding="utf-8"?>
<!-- Generator: Adobe Illustrator 26.3.1, SVG Export Plug-In . SVG Version: 6.00 Build 0)  -->
<svg version="1.1" id="Layer_1" xmlns="http://www.w3.org/2000/svg" xmlns:xlink="http://www.w3.org/1999/xlink" x="0px" y="0px"
	 viewBox="0 0 2000 2000" style="enable-background:new 0 0 2000 2000;" xml:space="preserve">
<g>
	<path d="M420,1247.5c-4.3-7.1-9.5-12.5-11-18.8c-3.3-13.9-11.8-18.6-24.9-19.2c-12.1-0.6-19.7-8.2-23.3-19
		c-3.5-10.5-5.6-21.4-8.8-33.7c12.9,2.4,24.2,4.4,35.5,6.5c5.9,1.1,11.8,2.9,17.8,3.4c7.9,0.7,12.4,4.7,14.4,11.9
		c1.5,5.3,4.9,7,10,7.9c56.6,10,113.6,10.4,170.8,10.1c12.1-0.1,19.6-2.6,22.9-14.9c2.3-8.7,9-11.8,18-12.1c32-1,64-2.5,96-4.3
		c6.8-0.4,9.1,1.7,9.2,8.2c0,7.2,0.6,14.4,1,21.6c0.1,3.1,0.9,5.1,4.9,5.1c42.5,0,85,0.1,127.5,0.2c0.9,0,1.7-0.4,2.9-0.7
		c0-2.5,0.2-4.7,0-7c-2.8-34.9-2.3-69.7,8.3-103.5c6.6-21,17.6-39,38.9-48.3c19.8-8.6,37.9-4.6,53.8,9c21.8,18.7,30.2,44,33.6,71.4
		c3,24.8,2.7,49.6-2.6,74.1c-0.3,1.3,0,2.7,0,4.9c154.6,0,308.9,0,464.4,0c0-7.3-0.2-14.6,0-21.9c0.6-21.4,2.6-42.7,11.5-62.6
		c14.7-32.8,50.6-38.4,72.8-11c5.9,7.2,10.6,16,13.6,24.8c7.1,20.8,7.7,42.3,4,63.9c-0.4,2-0.6,4.1-0.8,6.1c0.5,0.4,0.8,1,1.2,1
		c21.8,0.1,43.6,0.6,65.4,0.1c9.7-0.2,16.3-7.2,19.6-15.7c3.2-8.6,6.4-17.8,6.4-26.8c0.4-74.6,0-149.1-0.2-223.7
		c0-4.6-0.6-9.3-1-13.9c-1.7-17.9-12.8-28.1-28.6-34.3c-71.5-28.2-142.9-56.4-214.4-84.6c-78.4-30.9-156.7-61.9-235.1-92.8
		c-71-28-142.1-56-213.1-84c-35.2-13.9-70.6-27.4-105.5-41.9c-11.4-4.8-22-4.5-33.1-0.9c-25.9,8.5-40.2,27.9-48.8,52.5
		c-2,5.6-3.2,11.4-5.4,17.1c-1.9-31.2-0.7-62.3,5.9-94.1c-9.2,1.1-17.4,2-25.6,3.1c-50.7,6.4-101.3,12.8-152,19.2
		c-60.8,7.7-121.5,15.6-182.3,23.2c-30.2,3.8-51.6,18.2-60.5,48.5c-0.5,1.7-1.5,3.3-2.5,5.3c-1.8-8.4,0.8-21.1,6.6-32
		c13.2-24.8,33.1-39.3,61.7-43.1c89.7-11.8,179.4-24.4,269.1-36.6c21.4-2.9,42.8-5.2,64.2-8.1c38.9-5.3,75.7,1.9,111.3,17.6
		c22.7,10,45.9,18.9,69,28c3.1,1.2,6.7,1.8,10.1,1.7c22.5-0.2,45-0.8,67.6-1c3.8,0,7.9,0.8,11.4,2.3
		c89.9,40.1,179.7,80.4,269.5,120.7c20.8,9.3,41.4,18.8,62.4,27.7c8,3.4,13.9,8,17.2,16c3,7.4,8.6,11.3,15.9,14.2
		c86.7,34.4,173.3,69.1,260,103.7c18.1,7.2,28.4,20.4,29.8,39.9c1.1,14.8,2.2,29.7,2.2,44.5c0.2,66,0.2,131.9,0,197.9
		c0,8.6-0.6,17.2-1.7,25.7c-4.3,32.1-21.4,49.3-53.7,53.4c-9.4,1.2-19,0.9-28.5,1.1c-11.8,0.2-23.7,0.3-35.5-0.1
		c-6.9-0.2-12.6,0.5-16.6,7.2c-2.1,3.5-5.4,6.2-8.7,9.8c58.8,0,117.3,0,176.4,0c0,12.4,0,23.9,0,36.1c-2.5,0.1-5,0.4-7.5,0.4
		c-461.4,0-922.7,0-1384.1,0c-9.3,0-9.3,0-9.3-9.5c0-6.7,0.3-13.5-0.1-20.2c-0.4-5.4,1.7-6.6,6.8-6.6c25.1,0.2,50.2,0.1,75.3,0.1
		C414,1247.5,416.4,1247.5,420,1247.5z M1462.1,1247c-7-5.1-12.3-9.2-17.9-12.8c-2.9-1.9-6.5-3.8-9.8-3.8
		c-142.6-0.2-285.1-0.2-427.7-0.1c-2,0-4.7-0.1-6,1c-4.9,4.7-9.4,9.9-14.8,15.7C1144.8,1247,1302.5,1247,1462.1,1247z M517.3,1246.8
		c114.6,0,228.1,0,343.4,0c-7.9-4.8-14-8.9-20.4-12.3c-3.9-2-8.4-4.1-12.6-4.2c-61.3,0-122.6,0.6-183.8,0.4
		c-36.2-0.2-72.4-1.8-108.5-2.6c-2.3-0.1-5.7,0.2-6.9,1.6C524.4,1234.9,521.3,1240.5,517.3,1246.8z M966.9,1145.5
		c-0.1-22.5-4.2-39.1-11.3-49.3c-10.3-14.7-24.6-14.8-32.8,1.2c-5.1,9.9-8.5,21.1-10.1,32.2c-2.9,20.3-0.8,40.4,10.5,58.4
		c9,14.4,22.2,14.6,31.8,0.7C964.6,1174.7,966.5,1158.6,966.9,1145.5z M1545.8,1167.9c-0.6-0.2-1.3-0.4-1.9-0.5
		c0.1-12.5-1.4-24.6-8.5-35.2c-7.5-11.2-19-11.3-25.3,0.6c-11.6,21.9-11.4,44.5-0.8,66.7c2.6,5.4,6.7,10.4,13.7,10.3
		c7.2-0.1,11.8-5,13.9-10.9C1540.5,1188.8,1542.9,1178.3,1545.8,1167.9z M952.4,1071c20,17.2,28.7,39.5,30.3,65
		c1.7,25.4-4.5,48.9-17.4,70.9c7.5-2.3,12.1-7.4,15.2-13.6c16.4-32.9,17-66.1,0.6-99C975.4,1082.7,965.6,1074.8,952.4,1071z
		 M1542.7,1215.6c0.6,0.6,1.3,1.1,1.9,1.7c3.6-4.5,8.2-8.6,10.7-13.7c10.4-21,10.6-42.9,3.3-64.9c-2.9-8.7-8-16.3-15.8-21.5
		c-2.8-1.8-6-3-9-4.5C1563.2,1145.3,1560.9,1179.7,1542.7,1215.6z M428.5,1217.5c1.2,17.2,27.8,33.1,40.7,25.9
		c-7.4-5.8-16.3-10.8-22.4-18.1C441.5,1218.7,435.8,1217.4,428.5,1217.5z"/>
	<path d="M705.2,697.2c4.4-4.4,7.1-8.5,10.9-10.7c13.8-8,29.1-6.8,44.1-5.7c1.3,0.1,3.3,4,3.2,6.1c-1.1,37.4-2.5,74.7-3.9,112.1
		c-1.9,51.3-3.4,102.6-5.8,153.8c-0.6,13.3-3.4,26.7-6.8,39.6c-3.7,14.4-13.3,24.7-27.9,28.4c-27.6,7.1-55.2,14.6-83.3,19.6
		c-54.7,9.7-110,14.3-165.7,13.7c-34.2-0.4-68.3-2.1-101.2-12.7c-5.5-1.8-11-3.9-16.1-6.4c-17-8.5-26.9-21-25.2-41.5
		c3.3-39.6,5.4-79.2,8.5-118.8c2.6-34.3,5.8-68.5,8.9-102.7c1.8-20.1,3.9-40.1,5.9-60.9c-16.9-2.7-33.3-2.4-48.8,5.5
		c-5,2.5-9.1,6.5-9,13.7c4.3,0.7,8.6,1.1,12.8,2c7.8,1.6,11.1,5,10.6,13c-1.3,20.4-3.1,40.7-4.8,61.1c-0.6,7.9-1.3,15.7-2,23.6
		c-0.3,2.8-0.5,5.6-1,8.3c-2.1,10.6-7.9,15.9-16.6,15.2c-8.8-0.7-16.5-8.8-17.1-18.1c-1.8-31.1-3.6-62.1-5.3-93.2
		c-1.2-21.2,12.9-39.3,37.4-44.3c15.3-3.2,31.3-2.9,47-4.3c2-0.2,4.9-0.4,5.9-1.7c8-10.3,19.1-14.9,31.2-16.6
		c53.3-7.8,106.5-15.5,159.9-22.6c60-8,120.2-15.3,180.3-22.8c4.1-0.5,8.4-0.9,12.5-0.4c14.3,1.6,22.8,13.2,20.9,27.5
		c-0.6,4.8-3.8,3.6-6.6,3.9c-14.4,1.8-29.2,2.3-43.2,6c-23,5.9-34.4,23.1-33.2,46.8c1.4,29,3.1,57.9,4.5,86.9
		c0.4,8.4,2.8,15.4,10.3,20.1c10.9,6.7,22.2,2.8,25.5-10c2.3-9.1,2.6-18.8,3.4-28.3c1.7-19.4,2.9-38.9,5-58.3
		c2.1-19.5,0.2-22.6-19.3-25.6C709.9,698.2,708.8,698,705.2,697.2z M371.3,729.9c-1,2.4-1.4,2.9-1.4,3.6
		c-2.5,27.2-5.2,54.5-7.4,81.8c-0.2,3.1,1.3,6.9,3.2,9.4c50.8,67.5,101.8,134.8,152.5,202.2c2.9,3.8,5.9,5.2,10.5,4.7
		c18.5-1.7,37-3.2,55.4-4.9c3-0.3,6-1.1,10.1-1.9C519.6,926.1,445.8,828.5,371.3,729.9z M501.6,1033.2c0.3-0.8,0.7-1.5,1-2.3
		c-47-62.2-94.1-124.4-141.1-186.6c-0.6,0.2-1.3,0.5-1.9,0.7c-0.8,8.9-1.8,17.8-2.2,26.8c-0.1,2.9,0.8,6.5,2.5,8.8
		c37.2,49.5,74.5,98.9,111.9,148.2c1.3,1.8,3.3,4.1,5.1,4.2C485.2,1033.5,493.4,1033.2,501.6,1033.2z"/>
	<path d="M1001.9,905.6c-10.6-1-20.6-2.1-30.8-2.7c-16.4-0.9-32.6,0.2-47.7,7.2c-22.2,10.4-32.8,30-40.2,51.8
		c-10.8,32.4-14,66.2-18,99.8c-1.3,10.8-3.3,21.6-5.9,32.1c-3.3,13.3-12.4,20.6-26,21.1c-12.7,0.5-25.4,0.1-40.1,0.1
		c0-13.8,0.3-28.1,0-42.4c-2-82.2,1.2-164.3,4.7-246.4c1.5-34.1,3.5-68.2,5.4-102.2c2-36.7,22.8-63.5,55.2-70.8
		c20-4.5,39.7-2.4,58.8,4.8c29.5,11.1,59,22.3,88.6,33.3c3.4,1.3,5.3,2.7,5.1,6.9c-2.9,67-5.6,134-8.4,201.1
		C1002.7,901.2,1002.2,903.3,1001.9,905.6z"/>
	<path d="M1028.6,699.9c15.2,5.7,30,11.2,44.7,16.7c55.8,21,111.6,42,167.5,62.8c4.5,1.7,6,3.8,5.8,8.6
		c-2.3,52.2-4.3,104.4-6.5,156.6c0,1.1-0.3,2.3-0.5,4.3c-10.7-1.8-21.1-3.6-31.4-5.5c-53.7-9.7-107.3-19.5-161-29.2
		c-10.4-1.9-10.3-1.8-10.7-12.6c-2.6-65.9-5.2-131.7-7.8-197.6C1028.6,702.9,1028.6,701.7,1028.6,699.9z"/>
	<path d="M1455.2,988.1c-24.2-4.4-47.9-8.7-71.6-12.9c-35.8-6.5-71.7-13-107.5-19.3c-6-1-8.3-3.3-8.6-9.7c-1.7-51-3.8-102-5.8-153
		c-0.1-1.5,0-3.1,0-5.5c7.5,2.7,14.2,5,20.9,7.5c57.5,21.6,115,43.3,172.6,64.9c3.4,1.3,6.1,2.3,5.9,7c-1.7,39.4-3.2,78.8-4.8,118.2
		C1456.2,986,1455.7,986.7,1455.2,988.1z"/>
	<path d="M1474.9,867.7c15.3,5.7,29.6,11,43.9,16.4c31.5,11.8,62.7,24.6,94.5,35.3c20.2,6.8,31.4,18.3,30.9,40.2
		c-0.4,19-0.1,38-0.2,57c0,1.6-0.5,3.1-0.9,5.5c-11.7-2.1-23.1-4-34.4-6.1c-41.1-7.4-82.1-14.9-123.2-22.3c-3.8-0.7-6.1-1.6-6.3-6.4
		c-1.3-37.3-2.8-74.6-4.3-111.9C1474.8,873.1,1474.9,870.9,1474.9,867.7z"/>
	<path d="M744.5,1423.7c13.1-2.4,25.4-4.6,38.2-6.9c5.7,14.9,17.9,17.4,31.7,16.2c4.9-0.4,10.1-1.7,11-7.7c1-6.4-3.4-9.3-8.7-10.8
		c-10.7-3-21.6-5.4-32.2-8.6c-14.2-4.4-26.5-11.3-31.5-26.7c-7.4-22.9,5.2-46.9,29.1-54.7c16-5.2,32.4-5.7,48.6-1
		c15.9,4.6,26.8,15.1,33.3,31.4c-10.7,3.2-21.2,6.5-31.8,9.4c-1.2,0.3-3.5-1.5-4.6-2.8c-6.6-8.5-18.1-12.6-27.9-8.8
		c-2.8,1.1-6.3,4.8-6.4,7.5c-0.2,2.7,2.8,7.3,5.4,8.2c8.9,3.2,18.3,5,27.4,7.5c5.4,1.5,10.8,2.8,15.9,4.8
		c27.7,10.4,35.2,45.4,14.2,66.2c-16,15.8-36.3,18.7-57.4,17.2c-8.6-0.6-17.4-2.8-25.5-5.9C758.3,1452.2,749.4,1440.1,744.5,1423.7z
		"/>
	<path d="M1368.9,1354.9c-10.7,3.3-20.6,6.5-30.6,9.2c-1.6,0.4-4.5-0.8-5.5-2.2c-6.7-10-16.6-11.5-27.1-9.5c-3,0.6-6.6,4.2-7.8,7.3
		c-1.7,4.7,1.8,8,6.2,9.2c10.2,2.9,20.6,5.4,30.9,8.2c4,1.1,8.1,2.2,11.9,3.7c27.6,10.5,35.1,45.4,14,66.2
		c-16,15.7-36.3,18.7-57.4,17.1c-8.6-0.7-17.4-2.8-25.5-6c-15.3-5.9-24.1-18.1-28.9-34.3c12.9-2.4,25.3-4.6,38.2-7
		c5.5,14.1,16.9,17.4,30.5,16.3c5.4-0.4,11.2-1.2,12.3-7.9c1-6.7-3.9-9.4-9.4-10.9c-10.5-2.9-21.1-5.2-31.5-8.4
		c-14.2-4.4-26.5-11.3-31.4-26.8c-7.2-22.6,5.1-46.6,28.5-54.4c16.4-5.5,33.2-5.9,49.9-0.9C1352,1328.5,1362.4,1339,1368.9,1354.9z"
		/>
	<path d="M1376.5,1423.6c12.5-2.2,24.9-4.5,37.7-6.8c5.9,15.1,18.2,17.4,32.1,16.2c4.9-0.5,10-1.9,10.7-8c0.7-6-3.4-8.9-8.4-10.3
		c-10.7-3.1-21.5-5.4-32.2-8.6c-14.2-4.3-26.6-11.1-31.7-26.5c-7.6-22.8,4.9-47,28.6-55c16.2-5.4,32.8-5.8,49.3-0.9
		c15.9,4.7,26.6,15.2,32.9,31.3c-10.4,3.2-20.5,6.5-30.7,9.2c-1.5,0.4-4.4-1-5.4-2.4c-6.6-9.7-16.2-10.9-26.5-9.6
		c-4.2,0.5-8,2.5-8.5,7.7c-0.5,5.1,2.4,7.9,6.8,9.2c12,3.4,24.2,6.2,36.2,9.7c20,5.9,31.1,18.6,32.3,36.3c1.2,17.9-8.2,34-26.2,42.1
		c-22.9,10.2-46.4,10.3-69.5,0.7C1389.4,1451.7,1379.2,1438.4,1376.5,1423.6z"/>
	<path d="M545,1406c0,8.7,0,16,0,24.3c20.8,0,41.3,0,62.2,0c0,10.7,0,20.6,0,31c-34.3,0-68.5,0-103.1,0c0-45.8,0-91.4,0-137.7
		c34.1,0,68.3,0,103,0c0,10,0,20,0,30.7c-20.6,0-40.9,0-61.8,0c0,6.8,0,12.9,0,19.8c16.1,0,32.5,0,49.4,0c0,10.8,0,20.9,0,31.8
		C578.3,1406,561.9,1406,545,1406z"/>
	<path d="M1005.8,1321.9c27.9,1.2,55.5,0.9,82.8,4.1c22.1,2.6,34.9,21.2,34,43.1c-0.9,22-15.8,38.6-37.7,41.1
		c-11.9,1.4-24,1.4-37,2.1c0,8.2,0,16.4,0,24.7c0,8.1,0,16.1,0,24.4c-14.5,0-28.1,0-42.1,0
		C1005.8,1415.4,1005.8,1369.6,1005.8,1321.9z M1047.3,1380.7c8.5-0.5,16.4-0.5,24-1.6c6.5-1,9.8-5.6,9.7-12.4
		c-0.1-6.7-4.1-10.7-10.1-11.3c-7.7-0.8-15.5-0.2-23.7-0.2C1047.3,1363.4,1047.3,1371.2,1047.3,1380.7z"/>
	<path d="M897.5,1017.3c2.5-19.1,8.7-36.7,23-50.1c8.9-8.4,19.5-11.5,32-9.6c110.9,16.6,221.8,32.9,332.7,49.3
		c102.9,15.2,205.7,30.5,308.6,45.8c1.8,0.3,3.6,0.8,5.4,1.2c0.1,0.7,0.2,1.4,0.3,2.1c-2.2,0.4-4.4,1.2-6.6,1
		c-47.7-5.5-95.5-11.2-143.2-16.8c-65.9-7.7-131.9-15.3-197.8-23c-80.9-9.5-161.8-19.1-242.7-28.7c-16.1-1.9-32.3-3.5-48.4-5.7
		c-23.2-3.2-40.5,6.5-54.8,23.7C903.1,1009.9,900.3,1013.6,897.5,1017.3z"/>
	<path d="M744.2,1461.8c-13.5,0-25.8,0.2-38.1-0.2c-1.9-0.1-4.8-2.4-5.5-4.3c-2.3-6-3.9-12.3-5.4-18.6c-0.8-3.6-2.5-4.9-6.2-4.8
		c-9.5,0.2-19,0.2-28.5,0c-3.7-0.1-5.4,1.2-6.5,4.6c-2.4,7.7-2.9,18.7-8.2,22.1c-6.1,3.9-16.6,1.1-25.2,1.3c-2.1,0-4.1,0-7.2,0
		c4.4-14,8.5-27.4,12.7-40.8c9.4-30.5,18.9-61,28.2-91.5c1.4-4.6,3.2-6.8,8.5-6.6c12.3,0.5,24.6,0.2,37.8,0.2
		C715.1,1369,729.5,1415,744.2,1461.8z M675.3,1365c-0.6,0-1.1,0.1-1.7,0.1c-3.4,12.2-6.8,24.4-10.2,36.9c7.9,0,14.7,0,22.3,0
		C682.1,1389.2,678.7,1377.1,675.3,1365z"/>
	<path d="M1206.7,1323.1c14.5,46.3,28.9,92.1,43.5,138.7c-13.5,0-26.2,0.2-38.8-0.2c-1.7,0-4.1-2.5-4.8-4.3
		c-2.2-6.3-3.6-12.9-5.9-19.2c-0.6-1.7-3.3-3.8-5.1-3.9c-10-0.4-20-0.4-29.9,0c-2,0.1-4.7,2.5-5.5,4.5c-2.4,6.2-3.8,12.9-6.2,19.1
		c-0.7,1.7-3.3,3.8-5.2,3.9c-9.5,0.4-19,0.2-29.4,0.2c5.2-16.7,10.2-32.8,15.2-48.8c8.6-27.8,17.3-55.7,25.7-83.6
		c1.4-4.7,3.4-6.7,8.6-6.5C1181.2,1323.4,1193.5,1323.1,1206.7,1323.1z M1181.4,1365.3c-0.6,0-1.2-0.1-1.9-0.1
		c-3.4,12.2-6.8,24.3-10.3,37c7.7,0,14.6,0,22.3,0C1188.1,1389.5,1184.8,1377.4,1181.4,1365.3z"/>
	<path d="M750.1,1098.6c0,11.4,0.1,22.8,0,34.1c-0.2,10.7-3,14.6-13.5,15.9c-13.8,1.8-27.7,2.5-41.6,3.5c-16,1.1-32,1.9-48,2.9
		c-9.8,0.6-13.2-2.9-10-12.4c5.6-16.9,13.6-33.2,17.8-50.5c5.7-23.2,20.5-33.3,42.5-36.5c12.2-1.8,24.2-4.4,36.3-6.5
		c11-1.9,15.2,1.2,15.6,12.6c0.5,12.3,0.1,24.6,0.1,36.9C749.7,1098.6,749.9,1098.6,750.1,1098.6z"/>
	<path d="M995.7,1323.1c-5.7,10.7-10.9,20.4-16.2,30.1c-5.6,10.4-10.6,21.2-17.1,31.1c-8.5,13-11.7,26.7-10.5,42.1
		c0.9,11.5,0.2,23.1,0.2,35.1c-13.5,0-26.4,0-40.1,0c0-15.6-0.3-30.8,0.1-46.1c0.3-8-1.7-14.8-5.8-21.6
		c-12.5-20.9-24.5-42.1-36.7-63.1c-1.2-2.1-2.3-4.4-4-7.5c14.8,0,28.6-0.2,42.5,0.2c1.8,0,4,2.7,5.1,4.6
		c6.2,11.4,12.1,22.9,18.2,34.4c1.1,2.2,2.5,4.2,4.5,7.5c6.4-12.6,13-23.8,17.8-35.6c3.8-9.2,9-12.6,18.8-11.4
		C979.7,1323.8,987.2,1323.1,995.7,1323.1z"/>
	<path d="M406.9,1143.4c0.2,5.6-2.9,7.1-7.6,6.1c-6.4-1.3-12.7-2.8-19-4.3c-11.7-2.8-23.4-5.8-35.1-8.5c-3.9-0.9-5.8-2.4-6.3-6.7
		c-2.2-19.6-5-39.1-7.4-58.6c-1.4-11.1,4.2-16.2,14.9-13.1c10.7,3.1,21.5,6,31.4,10.9c5.2,2.6,10.4,8.5,12.2,14.1
		c6.3,19.1,11.1,38.7,16.5,58.1C406.8,1142.1,406.8,1142.9,406.9,1143.4z"/>
	<path d="M405.4,648.6c13.5-3.9,26.7-9,40.4-11.4c46.8-8.3,93.6-17.1,140.7-23.1c49.9-6.4,100.2-9.8,150.3-14.5
		c0.1,0.8,0.2,1.6,0.3,2.4c-110.3,16.4-220.6,32.8-330.9,49.2C405.9,650.4,405.7,649.5,405.4,648.6z"/>
	<path d="M928.8,1176.9c22.1-14.7,20.4-56.9,2.3-70.8c5.4-6.5,11.3-7,16.7-0.9c2.3,2.5,4.3,5.6,5.5,8.8c7.3,19.4,7.4,39-0.3,58.4
		c-0.8,2.1-2.1,4.2-3.4,6C942.8,1187.4,934.7,1186.8,928.8,1176.9z"/>
	<path d="M1515.2,1193.3c15.5-10.8,16-41.1,2-53.7c4.7-5.1,9.8-4.8,13.6,1.5c6.1,9.9,7.5,21,6.1,32.1c-0.9,6.7-2.8,13.7-5.9,19.7
		C1527.1,1200.9,1521.2,1200.7,1515.2,1193.3z"/>
</g>
</svg>
