<?xml version="1.0" encoding="utf-8"?>
<!-- Generator: Adobe Illustrator 26.3.1, SVG Export Plug-In . SVG Version: 6.00 Build 0)  -->
<svg version="1.1" id="Layer_1" xmlns="http://www.w3.org/2000/svg" xmlns:xlink="http://www.w3.org/1999/xlink" x="0px" y="0px"
	 viewBox="0 0 132 132" style="enable-background:new 0 0 132 132;" xml:space="preserve">
<style type="text/css">
	.st0{fill:#FFFFFF;}
	.st1{fill:#E43E2B;}
	.st2{fill:#3B7DED;}
	.st3{fill:#F0B501;}
	.st4{fill:#2BA24C;}
</style>
<g>
	<path class="st0" d="M65.6,0h0.7C102.7,0,132,29.3,132,65.6v0.7c0,36.3-29.3,65.6-65.6,65.6h-0.7C29.3,132,0,102.7,0,66.4v-0.7
		C0,29.3,29.3,0,65.6,0z"/>
</g>
<path class="st1" d="M66.7,47.8c4.6,0,9,1.7,12.3,4.6l9-8.4c-5.7-5.1-13.4-8.1-21.3-7.9c-5.9,0-11.7,1.7-16.7,4.6
	c-5,2.9-9.2,7.2-11.7,12.3l10.3,7.7c1.3-3.7,3.7-6.8,7-9.2C58.7,49.1,62.7,47.8,66.7,47.8L66.7,47.8z"/>
<path class="st2" d="M97.2,67.3c0-2-0.2-4.2-0.7-6.2H66.7v11.4h17.6c-0.4,2-1.1,3.8-2.2,5.5c-1.1,1.7-2.6,3.1-4.4,4.2l10.1,7.5
	c3.1-2.9,5.5-6.4,7.2-10.3C96.6,75.5,97.3,71.3,97.2,67.3L97.2,67.3z"/>
<path class="st3" d="M48.6,72.6c-0.7-2-1.1-4-1.1-6.1c0-2,0.4-4,1.1-6l-10.3-7.7c-2.2,4.2-3.5,9-3.5,13.7c0,4.8,1.1,9.3,3.5,13.8
	L48.6,72.6z"/>
<path class="st4" d="M66.7,97c7.7,0.2,15.2-2.4,21.1-7.3l-10.1-7.5c-3.3,2-7.2,3.1-11,3.1c-4,0-7.9-1.3-11.2-3.5
	c-3.3-2.2-5.7-5.5-7-9.2l-10.3,7.7c2.6,5.1,6.8,9.3,11.7,12.3C55,95.5,60.7,97,66.7,97z"/>
</svg>
