<svg width="35" height="35" viewBox="0 0 35 35" fill="none" xmlns="http://www.w3.org/2000/svg">
<path d="M5.83301 27.7083V24.7917H8.74967V14.5833C8.74967 12.566 9.35731 10.7795 10.5726 9.22396C11.7879 7.6441 13.3677 6.61111 15.3122 6.125V5.10417C15.3122 4.49653 15.5188 3.98612 15.932 3.57292C16.3695 3.13542 16.892 2.91667 17.4997 2.91667C18.1073 2.91667 18.6177 3.13542 19.0309 3.57292C19.4684 3.98612 19.6872 4.49653 19.6872 5.10417V6.125C21.6316 6.61111 23.2115 7.6441 24.4268 9.22396C25.642 10.7795 26.2497 12.566 26.2497 14.5833V24.7917H29.1663V27.7083H5.83301ZM17.4997 32.0833C16.6976 32.0833 16.0049 31.8038 15.4215 31.2448C14.8625 30.6615 14.583 29.9688 14.583 29.1667H20.4163C20.4163 29.9688 20.1247 30.6615 19.5413 31.2448C18.9823 31.8038 18.3018 32.0833 17.4997 32.0833ZM11.6663 24.7917H23.333V14.5833C23.333 12.9792 22.7618 11.6059 21.6195 10.4635C20.4771 9.32118 19.1038 8.75 17.4997 8.75C15.8955 8.75 14.5222 9.32118 13.3799 10.4635C12.2375 11.6059 11.6663 12.9792 11.6663 14.5833V24.7917Z" fill="#1C1C8A"/>
</svg>
