<svg width="21" height="25" viewBox="0 0 21 25" fill="none" xmlns="http://www.w3.org/2000/svg">
<path d="M2.50185 24.2604C2.14742 24.2604 1.85033 24.138 1.61057 23.8933C1.3708 23.6485 1.25092 23.3453 1.25092 22.9835V20.3659C0.875647 19.9403 0.57334 19.4668 0.344004 18.9454C0.114668 18.424 0 17.8548 0 17.2376V5.10744C0 3.34112 0.802677 2.0483 2.40803 1.22898C4.01338 0.40966 6.54651 0 10.0074 0C13.5934 0 16.1578 0.393699 17.7006 1.1811C19.2434 1.96849 20.0148 3.27728 20.0148 5.10744V17.2376C20.0148 17.8548 19.9001 18.424 19.6708 18.9454C19.4415 19.4668 19.1391 19.9403 18.7639 20.3659V22.9835C18.7639 23.3453 18.644 23.6485 18.4042 23.8933C18.1645 24.138 17.8674 24.2604 17.5129 24.2604H16.262C15.9076 24.2604 15.6105 24.138 15.3707 23.8933C15.131 23.6485 15.0111 23.3453 15.0111 22.9835V21.7066H5.0037V22.9835C5.0037 23.3453 4.88382 23.6485 4.64406 23.8933C4.4043 24.138 4.1072 24.2604 3.75277 24.2604H2.50185ZM2.50185 10.2149H17.5129V6.3843H2.50185V10.2149ZM5.62916 17.8761C6.15038 17.8761 6.59341 17.6898 6.95827 17.3174C7.32312 16.945 7.50555 16.4928 7.50555 15.9608C7.50555 15.4287 7.32312 14.9765 6.95827 14.6041C6.59341 14.2317 6.15038 14.0455 5.62916 14.0455C5.10794 14.0455 4.66491 14.2317 4.30005 14.6041C3.9352 14.9765 3.75277 15.4287 3.75277 15.9608C3.75277 16.4928 3.9352 16.945 4.30005 17.3174C4.66491 17.6898 5.10794 17.8761 5.62916 17.8761ZM14.3856 17.8761C14.9069 17.8761 15.3499 17.6898 15.7147 17.3174C16.0796 16.945 16.262 16.4928 16.262 15.9608C16.262 15.4287 16.0796 14.9765 15.7147 14.6041C15.3499 14.2317 14.9069 14.0455 14.3856 14.0455C13.8644 14.0455 13.4214 14.2317 13.0565 14.6041C12.6917 14.9765 12.5092 15.4287 12.5092 15.9608C12.5092 16.4928 12.6917 16.945 13.0565 17.3174C13.4214 17.6898 13.8644 17.8761 14.3856 17.8761ZM3.06477 3.83058H17.0751C16.7624 3.46881 16.09 3.16555 15.058 2.92082C14.026 2.67609 12.3633 2.55372 10.0699 2.55372C7.83913 2.55372 6.20771 2.68673 5.1757 2.95274C4.14369 3.21875 3.44004 3.51137 3.06477 3.83058ZM5.0037 19.1529H15.0111C15.6991 19.1529 16.2881 18.9029 16.778 18.4028C17.268 17.9027 17.5129 17.3015 17.5129 16.5992V12.7686H2.50185V16.5992C2.50185 17.3015 2.74682 17.9027 3.23677 18.4028C3.72671 18.9029 4.31569 19.1529 5.0037 19.1529Z" fill="white"/>
</svg>
