<svg width="210" height="210" viewBox="0 0 210 210" fill="none" xmlns="http://www.w3.org/2000/svg">
<rect width="210" height="210" rx="20" fill="url(#paint0_radial_341_360)"/>
<rect width="210" height="210" rx="20" fill="#9C9C9C" fill-opacity="0.08"/>
<path d="M77.25 149C75.9396 149 74.8411 148.556 73.9547 147.668C73.0682 146.781 72.625 145.681 72.625 144.368V134.874C71.2375 133.33 70.1198 131.612 69.2719 129.721C68.424 127.83 68 125.765 68 123.526V79.5263C68 73.1193 70.9677 68.4298 76.9031 65.4579C82.8385 62.486 92.2042 61 105 61C118.258 61 127.74 62.4281 133.444 65.2842C139.148 68.1404 142 72.8877 142 79.5263V123.526C142 125.765 141.576 127.83 140.728 129.721C139.88 131.612 138.762 133.33 137.375 134.874V144.368C137.375 145.681 136.932 146.781 136.045 147.668C135.159 148.556 134.06 149 132.75 149H128.125C126.815 149 125.716 148.556 124.83 147.668C123.943 146.781 123.5 145.681 123.5 144.368V139.737H86.5V144.368C86.5 145.681 86.0568 146.781 85.1703 147.668C84.2839 148.556 83.1854 149 81.875 149H77.25ZM77.25 98.0526H132.75V84.1579H77.25V98.0526ZM88.8125 125.842C90.7396 125.842 92.3776 125.167 93.7266 123.816C95.0755 122.465 95.75 120.825 95.75 118.895C95.75 116.965 95.0755 115.325 93.7266 113.974C92.3776 112.623 90.7396 111.947 88.8125 111.947C86.8854 111.947 85.2474 112.623 83.8984 113.974C82.5495 115.325 81.875 116.965 81.875 118.895C81.875 120.825 82.5495 122.465 83.8984 123.816C85.2474 125.167 86.8854 125.842 88.8125 125.842ZM121.188 125.842C123.115 125.842 124.753 125.167 126.102 123.816C127.451 122.465 128.125 120.825 128.125 118.895C128.125 116.965 127.451 115.325 126.102 113.974C124.753 112.623 123.115 111.947 121.188 111.947C119.26 111.947 117.622 112.623 116.273 113.974C114.924 115.325 114.25 116.965 114.25 118.895C114.25 120.825 114.924 122.465 116.273 123.816C117.622 125.167 119.26 125.842 121.188 125.842ZM79.3313 74.8947H131.131C129.975 73.5825 127.489 72.4825 123.673 71.5947C119.858 70.707 113.71 70.2632 105.231 70.2632C96.9833 70.2632 90.9516 70.7456 87.1359 71.7105C83.3203 72.6754 80.7188 73.7368 79.3313 74.8947ZM86.5 130.474H123.5C126.044 130.474 128.221 129.567 130.033 127.753C131.844 125.939 132.75 123.758 132.75 121.211V107.316H77.25V121.211C77.25 123.758 78.1557 125.939 79.9672 127.753C81.7786 129.567 83.9563 130.474 86.5 130.474Z" fill="#1C1C8A"/>
<defs>
<radialGradient id="paint0_radial_341_360" cx="0" cy="0" r="1" gradientTransform="matrix(232.312 -256.164 256.164 690.584 -17.325 235.797)" gradientUnits="userSpaceOnUse">
<stop stop-color="#BFEAFF"/>
<stop offset="1" stop-color="#B0C3F4"/>
</radialGradient>
</defs>
</svg>
