<svg width="362" height="210" viewBox="0 0 362 210" fill="none" xmlns="http://www.w3.org/2000/svg">
<rect width="362" height="210" rx="20" fill="url(#paint0_radial_198_340)"/>
<rect width="362" height="210" rx="20" fill="#9C9C9C" fill-opacity="0.08"/>
<path d="M181 78V105M167.333 91.5H194.667M157.083 61.125H204.917C208.691 61.125 211.75 64.1471 211.75 67.875V115.125C211.75 118.853 208.691 121.875 204.917 121.875H157.083C153.309 121.875 150.25 118.853 150.25 115.125V67.875C150.25 64.1471 153.309 61.125 157.083 61.125Z" stroke="url(#paint1_linear_198_340)" stroke-width="4" stroke-linecap="round" stroke-linejoin="round"/>
<path d="M137.86 153.9C137.367 153.34 136.78 152.9 136.1 152.58C135.42 152.247 134.74 152.08 134.06 152.08C133.407 152.08 132.793 152.207 132.22 152.46C131.66 152.7 131.16 153.047 130.72 153.5C130.293 153.94 129.96 154.453 129.72 155.04C129.48 155.627 129.36 156.26 129.36 156.94C129.36 157.62 129.48 158.26 129.72 158.86C129.96 159.447 130.293 159.96 130.72 160.4C131.16 160.84 131.66 161.187 132.22 161.44C132.793 161.693 133.407 161.82 134.06 161.82C134.74 161.82 135.413 161.673 136.08 161.38C136.747 161.073 137.34 160.66 137.86 160.14L139.44 161.8C138.973 162.28 138.433 162.7 137.82 163.06C137.22 163.42 136.587 163.7 135.92 163.9C135.267 164.087 134.6 164.18 133.92 164.18C132.893 164.18 131.933 164 131.04 163.64C130.16 163.267 129.387 162.753 128.72 162.1C128.067 161.447 127.553 160.68 127.18 159.8C126.807 158.92 126.62 157.98 126.62 156.98C126.62 155.967 126.807 155.033 127.18 154.18C127.553 153.313 128.08 152.553 128.76 151.9C129.44 151.247 130.22 150.74 131.1 150.38C131.993 150.02 132.967 149.84 134.02 149.84C134.7 149.84 135.36 149.933 136 150.12C136.653 150.293 137.273 150.547 137.86 150.88C138.447 151.2 138.967 151.593 139.42 152.06L137.86 153.9ZM147.786 155.6C147.039 155.547 146.392 155.66 145.846 155.94C145.299 156.207 144.879 156.593 144.586 157.1C144.292 157.607 144.146 158.187 144.146 158.84L143.446 158.76C143.446 157.573 143.619 156.573 143.966 155.76C144.312 154.933 144.812 154.307 145.466 153.88C146.119 153.453 146.892 153.24 147.786 153.24V155.6ZM141.546 153.34H144.146V164H141.546V153.34ZM149.612 153.34H152.212V164H149.612V153.34ZM150.892 148.8C151.319 148.8 151.672 148.94 151.952 149.22C152.232 149.5 152.372 149.853 152.372 150.28C152.372 150.693 152.232 151.047 151.952 151.34C151.672 151.62 151.319 151.76 150.892 151.76C150.479 151.76 150.132 151.62 149.852 151.34C149.572 151.047 149.432 150.693 149.432 150.28C149.432 149.853 149.572 149.5 149.852 149.22C150.132 148.94 150.479 148.8 150.892 148.8ZM159.033 159.3C158.353 159.3 157.846 159.407 157.513 159.62C157.179 159.833 157.013 160.187 157.013 160.68C157.013 161.133 157.179 161.5 157.513 161.78C157.859 162.06 158.326 162.2 158.913 162.2C159.433 162.2 159.899 162.113 160.313 161.94C160.739 161.753 161.073 161.507 161.313 161.2C161.566 160.88 161.713 160.527 161.753 160.14L162.193 162C161.873 162.693 161.379 163.22 160.713 163.58C160.046 163.94 159.239 164.12 158.293 164.12C157.533 164.12 156.873 163.973 156.312 163.68C155.753 163.387 155.319 162.993 155.013 162.5C154.706 161.993 154.553 161.427 154.553 160.8C154.553 159.813 154.906 159.04 155.613 158.48C156.319 157.907 157.319 157.613 158.613 157.6H162.033V159.3H159.033ZM161.733 157.28C161.733 156.64 161.526 156.14 161.113 155.78C160.713 155.407 160.113 155.22 159.313 155.22C158.819 155.22 158.299 155.313 157.753 155.5C157.219 155.673 156.679 155.927 156.133 156.26L155.193 154.58C155.699 154.273 156.186 154.027 156.653 153.84C157.119 153.64 157.606 153.493 158.113 153.4C158.633 153.293 159.226 153.24 159.893 153.24C161.293 153.24 162.373 153.573 163.133 154.24C163.893 154.907 164.279 155.827 164.293 157L164.313 164H161.753L161.733 157.28ZM173.469 155.6C172.723 155.547 172.076 155.66 171.529 155.94C170.983 156.207 170.563 156.593 170.269 157.1C169.976 157.607 169.829 158.187 169.829 158.84L169.129 158.76C169.129 157.573 169.303 156.573 169.649 155.76C169.996 154.933 170.496 154.307 171.149 153.88C171.803 153.453 172.576 153.24 173.469 153.24V155.6ZM167.229 153.34H169.829V164H167.229V153.34ZM186.506 150C188.28 150 189.653 150.42 190.626 151.26C191.6 152.1 192.086 153.28 192.086 154.8C192.086 156.387 191.6 157.62 190.626 158.5C189.653 159.38 188.28 159.82 186.506 159.82H182.286L183.466 158.64V164H180.786V150H186.506ZM186.386 157.6C187.386 157.6 188.153 157.373 188.686 156.92C189.233 156.467 189.506 155.78 189.506 154.86C189.506 153.98 189.233 153.327 188.686 152.9C188.153 152.46 187.386 152.24 186.386 152.24H182.286L183.466 151.06V158.78L182.286 157.6H186.386ZM197.783 159.3C197.103 159.3 196.596 159.407 196.263 159.62C195.929 159.833 195.763 160.187 195.763 160.68C195.763 161.133 195.929 161.5 196.263 161.78C196.609 162.06 197.076 162.2 197.663 162.2C198.183 162.2 198.649 162.113 199.063 161.94C199.489 161.753 199.823 161.507 200.063 161.2C200.316 160.88 200.463 160.527 200.503 160.14L200.943 162C200.623 162.693 200.129 163.22 199.463 163.58C198.796 163.94 197.989 164.12 197.043 164.12C196.283 164.12 195.623 163.973 195.062 163.68C194.503 163.387 194.069 162.993 193.763 162.5C193.456 161.993 193.303 161.427 193.303 160.8C193.303 159.813 193.656 159.04 194.363 158.48C195.069 157.907 196.069 157.613 197.363 157.6H200.783V159.3H197.783ZM200.483 157.28C200.483 156.64 200.276 156.14 199.863 155.78C199.463 155.407 198.863 155.22 198.063 155.22C197.569 155.22 197.049 155.313 196.503 155.5C195.969 155.673 195.429 155.927 194.883 156.26L193.943 154.58C194.449 154.273 194.936 154.027 195.403 153.84C195.869 153.64 196.356 153.493 196.863 153.4C197.383 153.293 197.976 153.24 198.643 153.24C200.043 153.24 201.123 153.573 201.883 154.24C202.643 154.907 203.029 155.827 203.043 157L203.063 164H200.503L200.483 157.28ZM212.319 156.12C211.799 155.813 211.259 155.58 210.699 155.42C210.139 155.247 209.633 155.16 209.179 155.16C208.753 155.16 208.406 155.24 208.139 155.4C207.873 155.547 207.739 155.8 207.739 156.16C207.739 156.467 207.873 156.713 208.139 156.9C208.419 157.087 208.773 157.247 209.199 157.38C209.626 157.5 210.079 157.633 210.559 157.78C211.039 157.927 211.493 158.12 211.919 158.36C212.359 158.6 212.713 158.92 212.979 159.32C213.259 159.72 213.399 160.247 213.399 160.9C213.399 161.62 213.206 162.22 212.819 162.7C212.433 163.167 211.919 163.52 211.279 163.76C210.639 163.987 209.939 164.1 209.179 164.1C208.379 164.1 207.579 163.973 206.779 163.72C205.993 163.467 205.319 163.093 204.759 162.6L205.659 160.86C206.153 161.287 206.733 161.62 207.399 161.86C208.079 162.087 208.706 162.2 209.279 162.2C209.586 162.2 209.859 162.16 210.099 162.08C210.339 162 210.526 161.887 210.659 161.74C210.793 161.58 210.859 161.373 210.859 161.12C210.859 160.773 210.726 160.507 210.459 160.32C210.193 160.12 209.846 159.953 209.419 159.82C209.006 159.673 208.559 159.533 208.079 159.4C207.599 159.253 207.146 159.067 206.719 158.84C206.306 158.6 205.966 158.287 205.699 157.9C205.433 157.513 205.299 157 205.299 156.36C205.299 155.64 205.486 155.047 205.859 154.58C206.233 154.113 206.726 153.773 207.339 153.56C207.953 153.333 208.619 153.22 209.339 153.22C210.033 153.22 210.726 153.32 211.419 153.52C212.113 153.707 212.726 153.973 213.259 154.32L212.319 156.12ZM221.968 156.12C221.448 155.813 220.908 155.58 220.348 155.42C219.788 155.247 219.281 155.16 218.828 155.16C218.401 155.16 218.054 155.24 217.788 155.4C217.521 155.547 217.388 155.8 217.388 156.16C217.388 156.467 217.521 156.713 217.788 156.9C218.068 157.087 218.421 157.247 218.848 157.38C219.274 157.5 219.728 157.633 220.208 157.78C220.688 157.927 221.141 158.12 221.568 158.36C222.008 158.6 222.361 158.92 222.628 159.32C222.908 159.72 223.048 160.247 223.048 160.9C223.048 161.62 222.854 162.22 222.468 162.7C222.081 163.167 221.568 163.52 220.928 163.76C220.288 163.987 219.588 164.1 218.828 164.1C218.028 164.1 217.228 163.973 216.428 163.72C215.641 163.467 214.968 163.093 214.408 162.6L215.308 160.86C215.801 161.287 216.381 161.62 217.048 161.86C217.728 162.087 218.354 162.2 218.928 162.2C219.234 162.2 219.508 162.16 219.748 162.08C219.988 162 220.174 161.887 220.308 161.74C220.441 161.58 220.508 161.373 220.508 161.12C220.508 160.773 220.374 160.507 220.108 160.32C219.841 160.12 219.494 159.953 219.068 159.82C218.654 159.673 218.208 159.533 217.728 159.4C217.248 159.253 216.794 159.067 216.368 158.84C215.954 158.6 215.614 158.287 215.348 157.9C215.081 157.513 214.948 157 214.948 156.36C214.948 155.64 215.134 155.047 215.508 154.58C215.881 154.113 216.374 153.773 216.988 153.56C217.601 153.333 218.268 153.22 218.988 153.22C219.681 153.22 220.374 153.32 221.068 153.52C221.761 153.707 222.374 153.973 222.908 154.32L221.968 156.12ZM232.496 157.86C232.47 157.3 232.343 156.827 232.116 156.44C231.89 156.04 231.57 155.733 231.156 155.52C230.756 155.293 230.296 155.18 229.776 155.18C229.176 155.18 228.656 155.32 228.216 155.6C227.776 155.88 227.43 156.273 227.176 156.78C226.936 157.287 226.816 157.873 226.816 158.54C226.816 159.273 226.95 159.907 227.216 160.44C227.496 160.973 227.876 161.387 228.356 161.68C228.836 161.96 229.39 162.1 230.016 162.1C231.15 162.1 232.116 161.693 232.916 160.88L234.296 162.26C233.763 162.847 233.116 163.3 232.356 163.62C231.596 163.94 230.75 164.1 229.816 164.1C228.696 164.1 227.723 163.873 226.896 163.42C226.083 162.953 225.443 162.32 224.976 161.52C224.523 160.707 224.296 159.76 224.296 158.68C224.296 157.6 224.523 156.653 224.976 155.84C225.443 155.027 226.083 154.393 226.896 153.94C227.723 153.487 228.67 153.253 229.736 153.24C231.003 153.24 232.023 153.5 232.796 154.02C233.583 154.54 234.143 155.273 234.476 156.22C234.81 157.153 234.93 158.267 234.836 159.56H226.436V157.86H232.496Z" fill="#1C1C8A" fill-opacity="0.3"/>
<defs>
<radialGradient id="paint0_radial_198_340" cx="0" cy="0" r="1" gradientTransform="matrix(400.462 -256.164 441.578 690.584 -29.865 235.797)" gradientUnits="userSpaceOnUse">
<stop stop-color="#BFEAFF"/>
<stop offset="1" stop-color="#B0C3F4"/>
</radialGradient>
<linearGradient id="paint1_linear_198_340" x1="127.7" y1="136.05" x2="230.482" y2="46.6031" gradientUnits="userSpaceOnUse">
<stop stop-color="#9AACD7"/>
<stop offset="1" stop-color="#6A899C"/>
</linearGradient>
</defs>
</svg>
