<?xml version="1.0" encoding="utf-8"?>
<!-- Generator: Adobe Illustrator 26.3.1, SVG Export Plug-In . SVG Version: 6.00 Build 0)  -->
<svg version="1.1" id="Layer_1" xmlns="http://www.w3.org/2000/svg" xmlns:xlink="http://www.w3.org/1999/xlink" x="0px" y="0px"
	 viewBox="0 0 2004 1275.1" style="enable-background:new 0 0 2004 1275.1;" xml:space="preserve">
<style type="text/css">
	.st0{fill:#FFFFFF;}
</style>
<g>
	<path class="st0" d="M206.4,976.8c-5.9-9.7-13-17.1-15.1-25.8c-4.5-19.1-16.2-25.5-34.2-26.3c-16.6-0.8-27-11.2-32-26.1
		c-4.8-14.4-7.7-29.4-12.1-46.2c17.7,3.3,33.2,6,48.7,8.9c8.1,1.5,16.2,4,24.4,4.7c10.8,1,17,6.4,19.8,16.3
		c2.1,7.3,6.7,9.6,13.7,10.8c77.6,13.7,155.8,14.3,234.3,13.9c16.6-0.1,26.9-3.6,31.4-20.4c3.2-11.9,12.3-16.2,24.7-16.6
		c43.9-1.4,87.8-3.4,131.7-5.9c9.3-0.5,12.5,2.3,12.6,11.2c0,9.9,0.8,19.8,1.4,29.6c0.1,4.3,1.2,7,6.7,7c58.3,0,116.6,0.1,174.9,0.3
		c1.2,0,2.3-0.5,4-1c0-3.4,0.3-6.4,0-9.6c-3.8-47.9-3.2-95.6,11.4-142c9.1-28.8,24.1-53.5,53.4-66.3c27.2-11.8,52-6.3,73.8,12.3
		c29.9,25.7,41.4,60.4,46.1,97.9c4.1,34,3.7,68-3.6,101.6c-0.4,1.8,0,3.7,0,6.7c212.1,0,423.7,0,637,0c0-10-0.3-20,0-30
		c0.8-29.4,3.6-58.6,15.8-85.9c20.2-45,69.4-52.7,99.9-15.1c8.1,9.9,14.5,21.9,18.7,34c9.7,28.5,10.6,58,5.5,87.6
		c-0.5,2.7-0.8,5.6-1.1,8.4c0.7,0.5,1.1,1.4,1.6,1.4c29.9,0.1,59.8,0.8,89.7,0.1c13.3-0.3,22.4-9.9,26.9-21.5
		c4.4-11.8,8.8-24.4,8.8-36.8c0.5-102.3,0-204.5-0.3-306.8c0-6.3-0.8-12.8-1.4-19.1c-2.3-24.6-17.6-38.5-39.2-47
		c-98.1-38.7-196-77.4-294.1-116c-107.5-42.4-214.9-84.9-322.5-127.3c-97.4-38.4-194.9-76.8-292.3-115.2
		c-48.3-19.1-96.8-37.6-144.7-57.5c-15.6-6.6-30.2-6.2-45.4-1.2c-35.5,11.7-55.1,38.3-66.9,72c-2.7,7.7-4.4,15.6-7.4,23.5
		c-2.6-42.8-1-85.5,8.1-129.1c-12.6,1.5-23.9,2.7-35.1,4.3c-69.5,8.8-139,17.6-208.5,26.3C392,71.6,308.7,82.5,225.3,92.9
		c-41.4,5.2-70.8,25-83,66.5c-0.7,2.3-2.1,4.5-3.4,7.3c-2.5-11.5,1.1-28.9,9.1-43.9c18.1-34,45.4-53.9,84.6-59.1
		c123-16.2,246.1-33.5,369.1-50.2c29.4-4,58.7-7.1,88.1-11.1C743.1-4.9,793.6,5,842.4,26.5c31.1,13.7,63,25.9,94.6,38.4
		c4.3,1.6,9.2,2.5,13.9,2.3c30.9-0.3,61.7-1.1,92.7-1.4c5.2,0,10.8,1.1,15.6,3.2c123.3,55,246.5,110.3,369.7,165.6
		c28.5,12.8,56.8,25.8,85.6,38c11,4.7,19.1,11,23.6,21.9c4.1,10.2,11.8,15.5,21.8,19.5c118.9,47.2,237.7,94.8,356.6,142.2
		c24.8,9.9,39,28,40.9,54.7c1.5,20.3,3,40.7,3,61c0.3,90.5,0.3,180.9,0,271.5c0,11.8-0.8,23.6-2.3,35.3c-5.9,44-29.4,67.6-73.7,73.2
		c-12.9,1.6-26.1,1.2-39.1,1.5c-16.2,0.3-32.5,0.4-48.7-0.1c-9.5-0.3-17.3,0.7-22.8,9.9c-2.9,4.8-7.4,8.5-11.9,13.4
		c80.7,0,160.9,0,242,0c0,17,0,32.8,0,49.5c-3.4,0.1-6.9,0.5-10.3,0.5c-632.9,0-1265.6,0-1898.5,0c-12.8,0-12.8,0-12.8-13
		c0-9.2,0.4-18.5-0.1-27.7c-0.5-7.4,2.3-9.1,9.3-9.1c34.4,0.3,68.9,0.1,103.3,0.1C198.2,976.8,201.5,976.8,206.4,976.8z
		 M1635.8,976.1c-9.6-7-16.9-12.6-24.6-17.6c-4-2.6-8.9-5.2-13.4-5.2c-195.6-0.3-391.1-0.3-586.7-0.1c-2.7,0-6.4-0.1-8.2,1.4
		c-6.7,6.4-12.9,13.6-20.3,21.5C1200.6,976.1,1416.9,976.1,1635.8,976.1z M339.9,975.8c157.2,0,312.9,0,471,0
		c-10.8-6.6-19.2-12.2-28-16.9c-5.3-2.7-11.5-5.6-17.3-5.8c-84.1,0-168.2,0.8-252.1,0.5c-49.7-0.3-99.3-2.5-148.8-3.6
		c-3.2-0.1-7.8,0.3-9.5,2.2C349.6,959.5,345.3,967.2,339.9,975.8z M956.6,836.9c-0.1-30.9-5.8-53.6-15.5-67.6
		c-14.1-20.2-33.7-20.3-45,1.6c-7,13.6-11.7,28.9-13.9,44.2c-4,27.8-1.1,55.4,14.4,80.1c12.3,19.8,30.5,20,43.6,1
		C953.4,876.9,956,854.9,956.6,836.9z M1750.6,867.6c-0.8-0.3-1.8-0.5-2.6-0.7c0.1-17.1-1.9-33.7-11.7-48.3
		c-10.3-15.4-26.1-15.5-34.7,0.8c-15.9,30-15.6,61-1.1,91.5c3.6,7.4,9.2,14.3,18.8,14.1c9.9-0.1,16.2-6.9,19.1-15
		C1743.4,896.3,1746.6,881.9,1750.6,867.6z M936.7,734.7c27.4,23.6,39.4,54.2,41.6,89.2c2.3,34.8-6.2,67.1-23.9,97.3
		c10.3-3.2,16.6-10.2,20.8-18.7c22.5-45.1,23.3-90.7,0.8-135.8C968.2,750.8,954.8,739.9,936.7,734.7z M1746.4,933
		c0.8,0.8,1.8,1.5,2.6,2.3c4.9-6.2,11.2-11.8,14.7-18.8c14.3-28.8,14.5-58.8,4.5-89c-4-11.9-11-22.4-21.7-29.5
		c-3.8-2.5-8.2-4.1-12.3-6.2C1774.5,836.6,1771.3,883.8,1746.4,933z M218.1,935.7c1.6,23.6,38.1,45.4,55.8,35.5
		c-10.2-8-22.4-14.8-30.7-24.8C235.9,937.3,228.1,935.5,218.1,935.7z"/>
	<path class="st0" d="M597.6,222c6-6,9.7-11.7,15-14.7c18.9-11,39.9-9.3,60.5-7.8c1.8,0.1,4.5,5.5,4.4,8.4
		c-1.5,51.3-3.4,102.5-5.3,153.8c-2.6,70.4-4.7,140.7-8,211c-0.8,18.2-4.7,36.6-9.3,54.3c-5.1,19.8-18.2,33.9-38.3,39
		c-37.9,9.7-75.7,20-114.3,26.9c-75,13.3-150.9,19.6-227.3,18.8c-46.9-0.5-93.7-2.9-138.8-17.4c-7.5-2.5-15.1-5.3-22.1-8.8
		c-23.3-11.7-36.9-28.8-34.6-56.9c4.5-54.3,7.4-108.6,11.7-163c3.6-47,8-94,12.2-140.9c2.5-27.6,5.3-55,8.1-83.5
		c-23.2-3.7-45.7-3.3-66.9,7.5c-6.9,3.4-12.5,8.9-12.3,18.8c5.9,1,11.8,1.5,17.6,2.7c10.7,2.2,15.2,6.9,14.5,17.8
		c-1.8,28-4.3,55.8-6.6,83.8c-0.8,10.8-1.8,21.5-2.7,32.4c-0.4,3.8-0.7,7.7-1.4,11.4c-2.9,14.5-10.8,21.8-22.8,20.8
		c-12.1-1-22.6-12.1-23.5-24.8c-2.5-42.7-4.9-85.2-7.3-127.8c-1.6-29.1,17.7-53.9,51.3-60.8c21-4.4,42.9-4,64.5-5.9
		c2.7-0.3,6.7-0.5,8.1-2.3c11-14.1,26.2-20.4,42.8-22.8c73.1-10.7,146.1-21.3,219.3-31c82.3-11,164.9-21,247.3-31.3
		c5.6-0.7,11.5-1.2,17.1-0.5c19.6,2.2,31.3,18.1,28.7,37.7c-0.8,6.6-5.2,4.9-9.1,5.3c-19.8,2.5-40.1,3.2-59.3,8.2
		c-31.5,8.1-47.2,31.7-45.5,64.2c1.9,39.8,4.3,79.4,6.2,119.2c0.5,11.5,3.8,21.1,14.1,27.6c15,9.2,30.5,3.8,35-13.7
		c3.2-12.5,3.6-25.8,4.7-38.8c2.3-26.6,4-53.4,6.9-80c2.9-26.7,0.3-31-26.5-35.1C604,223.3,602.5,223.1,597.6,222z M139.6,266.8
		c-1.4,3.3-1.9,4-1.9,4.9c-3.4,37.3-7.1,74.8-10.2,112.2c-0.3,4.3,1.8,9.5,4.4,12.9c69.7,92.6,139.6,184.9,209.2,277.4
		c4,5.2,8.1,7.1,14.4,6.4c25.4-2.3,50.8-4.4,76-6.7c4.1-0.4,8.2-1.5,13.9-2.6C343,535.9,241.8,402.1,139.6,266.8z M318.3,682.9
		c0.4-1.1,1-2.1,1.4-3.2c-64.5-85.3-129.1-170.6-193.5-256c-0.8,0.3-1.8,0.7-2.6,1c-1.1,12.2-2.5,24.4-3,36.8
		c-0.1,4,1.1,8.9,3.4,12.1c51,67.9,102.2,135.7,153.5,203.3c1.8,2.5,4.5,5.6,7,5.8C295.8,683.3,307.1,682.9,318.3,682.9z"/>
	<path class="st0" d="M1004.6,507.8c-14.5-1.4-28.3-2.9-42.2-3.7c-22.5-1.2-44.7,0.3-65.4,9.9c-30.5,14.3-45,41.2-55.1,71.1
		c-14.8,44.4-19.2,90.8-24.7,136.9c-1.8,14.8-4.5,29.6-8.1,44c-4.5,18.2-17,28.3-35.7,28.9c-17.4,0.7-34.8,0.1-55,0.1
		c0-18.9,0.4-38.5,0-58.2c-2.7-112.8,1.6-225.4,6.4-338c2.1-46.8,4.8-93.5,7.4-140.2c2.7-50.3,31.3-87.1,75.7-97.1
		c27.4-6.2,54.5-3.3,80.7,6.6c40.5,15.2,80.9,30.6,121.5,45.7c4.7,1.8,7.3,3.7,7,9.5c-4,91.9-7.7,183.8-11.5,275.8
		C1005.7,501.8,1005,504.7,1004.6,507.8z"/>
	<path class="st0" d="M1041.2,225.7c20.8,7.8,41.2,15.4,61.3,22.9c76.5,28.8,153.1,57.6,229.8,86.1c6.2,2.3,8.2,5.2,8,11.8
		c-3.2,71.6-5.9,143.2-8.9,214.8c0,1.5-0.4,3.2-0.7,5.9c-14.7-2.5-28.9-4.9-43.1-7.5c-73.7-13.3-147.2-26.7-220.8-40.1
		c-14.3-2.6-14.1-2.5-14.7-17.3c-3.6-90.4-7.1-180.6-10.7-271C1041.2,229.8,1041.2,228.1,1041.2,225.7z"/>
	<path class="st0" d="M1626.3,621c-33.2-6-65.7-11.9-98.2-17.7c-49.1-8.9-98.3-17.8-147.5-26.5c-8.2-1.4-11.4-4.5-11.8-13.3
		c-2.3-70-5.2-139.9-8-209.9c-0.1-2.1,0-4.3,0-7.5c10.3,3.7,19.5,6.9,28.7,10.3c78.9,29.6,157.7,59.4,236.8,89
		c4.7,1.8,8.4,3.2,8.1,9.6c-2.3,54-4.4,108.1-6.6,162.1C1627.7,618.1,1627,619.1,1626.3,621z"/>
	<path class="st0" d="M1653.4,455.8c21,7.8,40.6,15.1,60.2,22.5c43.2,16.2,86,33.7,129.6,48.4c27.7,9.3,43.1,25.1,42.4,55.1
		c-0.5,26.1-0.1,52.1-0.3,78.2c0,2.2-0.7,4.3-1.2,7.5c-16-2.9-31.7-5.5-47.2-8.4c-56.4-10.2-112.6-20.4-169-30.6
		c-5.2-1-8.4-2.2-8.6-8.8c-1.8-51.2-3.8-102.3-5.9-153.5C1653.2,463.2,1653.4,460.2,1653.4,455.8z"/>
	<path class="st0" d="M651.5,1218.5c18-3.3,34.8-6.3,52.4-9.5c7.8,20.4,24.6,23.9,43.5,22.2c6.7-0.5,13.9-2.3,15.1-10.6
		c1.4-8.8-4.7-12.8-11.9-14.8c-14.7-4.1-29.6-7.4-44.2-11.8c-19.5-6-36.3-15.5-43.2-36.6c-10.2-31.4,7.1-64.3,39.9-75
		c21.9-7.1,44.4-7.8,66.7-1.4c21.8,6.3,36.8,20.7,45.7,43.1c-14.7,4.4-29.1,8.9-43.6,12.9c-1.6,0.4-4.8-2.1-6.3-3.8
		c-9.1-11.7-24.8-17.3-38.3-12.1c-3.8,1.5-8.6,6.6-8.8,10.3c-0.3,3.7,3.8,10,7.4,11.2c12.2,4.4,25.1,6.9,37.6,10.3
		c7.4,2.1,14.8,3.8,21.8,6.6c38,14.3,48.3,62.3,19.5,90.8c-21.9,21.7-49.8,25.7-78.7,23.6c-11.8-0.8-23.9-3.8-35-8.1
		C670.4,1257.6,658.2,1241,651.5,1218.5z"/>
	<path class="st0" d="M1508,1124.1c-14.7,4.5-28.3,8.9-42,12.6c-2.2,0.5-6.2-1.1-7.5-3c-9.2-13.7-22.8-15.8-37.2-13
		c-4.1,0.8-9.1,5.8-10.7,10c-2.3,6.4,2.5,11,8.5,12.6c14,4,28.3,7.4,42.4,11.2c5.5,1.5,11.1,3,16.3,5.1
		c37.9,14.4,48.1,62.3,19.2,90.8c-21.9,21.5-49.8,25.7-78.7,23.5c-11.8-1-23.9-3.8-35-8.2c-21-8.1-33.1-24.8-39.6-47
		c17.7-3.3,34.7-6.3,52.4-9.6c7.5,19.3,23.2,23.9,41.8,22.4c7.4-0.5,15.4-1.6,16.9-10.8c1.4-9.2-5.3-12.9-12.9-15
		c-14.4-4-28.9-7.1-43.2-11.5c-19.5-6-36.3-15.5-43.1-36.8c-9.9-31,7-63.9,39.1-74.6c22.5-7.5,45.5-8.1,68.4-1.2
		C1484.8,1087.9,1499.1,1102.3,1508,1124.1z"/>
	<path class="st0" d="M1518.4,1218.4c17.1-3,34.2-6.2,51.7-9.3c8.1,20.7,25,23.9,44,22.2c6.7-0.7,13.7-2.6,14.7-11
		c1-8.2-4.7-12.2-11.5-14.1c-14.7-4.3-29.5-7.4-44.2-11.8c-19.5-5.9-36.5-15.2-43.5-36.3c-10.4-31.3,6.7-64.5,39.2-75.4
		c22.2-7.4,45-8,67.6-1.2c21.8,6.4,36.5,20.8,45.1,42.9c-14.3,4.4-28.1,8.9-42.1,12.6c-2.1,0.5-6-1.4-7.4-3.3
		c-9.1-13.3-22.2-15-36.3-13.2c-5.8,0.7-11,3.4-11.7,10.6c-0.7,7,3.3,10.8,9.3,12.6c16.5,4.7,33.2,8.5,49.7,13.3
		c27.4,8.1,42.7,25.5,44.3,49.8c1.6,24.6-11.2,46.6-35.9,57.7c-31.4,14-63.6,14.1-95.3,1C1536.1,1256.9,1522.1,1238.7,1518.4,1218.4
		z"/>
	<path class="st0" d="M377.9,1194.2c0,11.9,0,21.9,0,33.3c28.5,0,56.6,0,85.3,0c0,14.7,0,28.3,0,42.5c-47,0-94,0-141.4,0
		c0-62.8,0-125.4,0-188.9c46.8,0,93.7,0,141.3,0c0,13.7,0,27.4,0,42.1c-28.3,0-56.1,0-84.8,0c0,9.3,0,17.7,0,27.2
		c22.1,0,44.6,0,67.8,0c0,14.8,0,28.7,0,43.6C423.5,1194.2,401,1194.2,377.9,1194.2z"/>
	<path class="st0" d="M1009.9,1078.9c38.3,1.6,76.1,1.2,113.6,5.6c30.3,3.6,47.9,29.1,46.6,59.1c-1.2,30.2-21.7,52.9-51.7,56.4
		c-16.3,1.9-32.9,1.9-50.8,2.9c0,11.2,0,22.5,0,33.9c0,11.1,0,22.1,0,33.5c-19.9,0-38.5,0-57.7,0
		C1009.9,1207.1,1009.9,1144.3,1009.9,1078.9z M1066.8,1159.5c11.7-0.7,22.5-0.7,32.9-2.2c8.9-1.4,13.4-7.7,13.3-17
		c-0.1-9.2-5.6-14.7-13.9-15.5c-10.6-1.1-21.3-0.3-32.5-0.3C1066.8,1135.8,1066.8,1146.5,1066.8,1159.5z"/>
	<path class="st0" d="M861.4,661c3.4-26.2,11.9-50.3,31.5-68.7c12.2-11.5,26.7-15.8,43.9-13.2c152.1,22.8,304.2,45.1,456.4,67.6
		c141.1,20.8,282.2,41.8,423.3,62.8c2.5,0.4,4.9,1.1,7.4,1.6c0.1,1,0.3,1.9,0.4,2.9c-3,0.5-6,1.6-9.1,1.4
		c-65.4-7.5-131-15.4-196.4-23c-90.4-10.6-180.9-21-271.3-31.5c-111-13-221.9-26.2-332.9-39.4c-22.1-2.6-44.3-4.8-66.4-7.8
		c-31.8-4.4-55.6,8.9-75.2,32.5C869.1,650.9,865.2,656,861.4,661z"/>
	<path class="st0" d="M651.1,1270.8c-18.5,0-35.4,0.3-52.3-0.3c-2.6-0.1-6.6-3.3-7.5-5.9c-3.2-8.2-5.3-16.9-7.4-25.5
		c-1.1-4.9-3.4-6.7-8.5-6.6c-13,0.3-26.1,0.3-39.1,0c-5.1-0.1-7.4,1.6-8.9,6.3c-3.3,10.6-4,25.7-11.2,30.3
		c-8.4,5.3-22.8,1.5-34.6,1.8c-2.9,0-5.6,0-9.9,0c6-19.2,11.7-37.6,17.4-56c12.9-41.8,25.9-83.7,38.7-125.5
		c1.9-6.3,4.4-9.3,11.7-9.1c16.9,0.7,33.7,0.3,51.8,0.3C611.2,1143.5,630.9,1206.6,651.1,1270.8z M556.6,1138
		c-0.8,0-1.5,0.1-2.3,0.1c-4.7,16.7-9.3,33.5-14,50.6c10.8,0,20.2,0,30.6,0C565.9,1171.2,561.2,1154.6,556.6,1138z"/>
	<path class="st0" d="M1285.5,1080.5c19.9,63.5,39.6,126.3,59.7,190.3c-18.5,0-35.9,0.3-53.2-0.3c-2.3,0-5.6-3.4-6.6-5.9
		c-3-8.6-4.9-17.7-8.1-26.3c-0.8-2.3-4.5-5.2-7-5.3c-13.7-0.5-27.4-0.5-41,0c-2.7,0.1-6.4,3.4-7.5,6.2c-3.3,8.5-5.2,17.7-8.5,26.2
		c-1,2.3-4.5,5.2-7.1,5.3c-13,0.5-26.1,0.3-40.3,0.3c7.1-22.9,14-45,20.8-66.9c11.8-38.1,23.7-76.4,35.3-114.7
		c1.9-6.4,4.7-9.2,11.8-8.9C1250.5,1080.9,1267.4,1080.5,1285.5,1080.5z M1250.8,1138.4c-0.8,0-1.6-0.1-2.6-0.1
		c-4.7,16.7-9.3,33.3-14.1,50.8c10.6,0,20,0,30.6,0C1260,1171.6,1255.4,1155,1250.8,1138.4z"/>
	<path class="st0" d="M659.2,772.6c0,15.6,0.1,31.3,0,46.8c-0.3,14.7-4.1,20-18.5,21.8c-18.9,2.5-38,3.4-57.1,4.8
		c-21.9,1.5-43.9,2.6-65.8,4c-13.4,0.8-18.1-4-13.7-17c7.7-23.2,18.7-45.5,24.4-69.3c7.8-31.8,28.1-45.7,58.3-50.1
		c16.7-2.5,33.2-6,49.8-8.9c15.1-2.6,20.8,1.6,21.4,17.3c0.7,16.9,0.1,33.7,0.1,50.6C658.6,772.6,658.9,772.6,659.2,772.6z"/>
	<path class="st0" d="M996.1,1080.5c-7.8,14.7-15,28-22.2,41.3c-7.7,14.3-14.5,29.1-23.5,42.7c-11.7,17.8-16,36.6-14.4,57.7
		c1.2,15.8,0.3,31.7,0.3,48.1c-18.5,0-36.2,0-55,0c0-21.4-0.4-42.2,0.1-63.2c0.4-11-2.3-20.3-8-29.6c-17.1-28.7-33.6-57.7-50.3-86.6
		c-1.6-2.9-3.2-6-5.5-10.3c20.3,0,39.2-0.3,58.3,0.3c2.5,0,5.5,3.7,7,6.3c8.5,15.6,16.6,31.4,25,47.2c1.5,3,3.4,5.8,6.2,10.3
		c8.8-17.3,17.8-32.6,24.4-48.8c5.2-12.6,12.3-17.3,25.8-15.6C974.1,1081.5,984.4,1080.5,996.1,1080.5z"/>
	<path class="st0" d="M188.4,834c0.3,7.7-4,9.7-10.4,8.4c-8.8-1.8-17.4-3.8-26.1-5.9c-16-3.8-32.1-8-48.1-11.7
		c-5.3-1.2-8-3.3-8.6-9.2c-3-26.9-6.9-53.6-10.2-80.4c-1.9-15.2,5.8-22.2,20.4-18c14.7,4.3,29.5,8.2,43.1,15
		c7.1,3.6,14.3,11.7,16.7,19.3c8.6,26.2,15.2,53.1,22.6,79.7C188.3,832.2,188.3,833.3,188.4,834z"/>
	<path class="st0" d="M186.4,155.3c18.5-5.3,36.6-12.3,55.4-15.6c64.2-11.4,128.4-23.5,193-31.7c68.4-8.8,137.4-13.4,206.2-19.9
		c0.1,1.1,0.3,2.2,0.4,3.3c-151.3,22.5-302.6,45-453.9,67.5C187.1,157.8,186.8,156.5,186.4,155.3z"/>
	<path class="st0" d="M904.3,880c30.3-20.2,28-78,3.2-97.1c7.4-8.9,15.5-9.6,22.9-1.2c3.2,3.4,5.9,7.7,7.5,12.1
		c10,26.6,10.2,53.5-0.4,80.1c-1.1,2.9-2.9,5.8-4.7,8.2C923.5,894.4,912.4,893.5,904.3,880z"/>
	<path class="st0" d="M1708.6,902.5c21.3-14.8,21.9-56.4,2.7-73.7c6.4-7,13.4-6.6,18.7,2.1c8.4,13.6,10.3,28.8,8.4,44
		c-1.2,9.2-3.8,18.8-8.1,27C1725,912.9,1716.9,912.6,1708.6,902.5z"/>
</g>
</svg>
