<svg width="210" height="210" viewBox="0 0 210 210" fill="none" xmlns="http://www.w3.org/2000/svg">
<rect width="210" height="210" rx="20" fill="#9C9C9C" fill-opacity="0.25"/>
<g clip-path="url(#clip0_341_359)">
<path d="M118.8 139.323C118.8 137.553 118.808 136.013 118.8 134.475C118.785 132.257 117.947 131.351 115.806 131.345C108.297 131.33 100.788 131.33 93.279 131.345C91.0182 131.351 90.2257 132.205 90.2172 134.533C90.2115 136.065 90.2172 137.6 90.2172 139.207C89.7582 139.256 89.4417 139.317 89.1224 139.317C85.6045 139.325 82.0894 139.354 78.5715 139.291C78.0783 139.282 77.2972 138.94 77.1432 138.552C74.9196 132.911 72.6275 127.294 70.669 121.557C68.7361 115.904 68.8616 109.991 69.2037 104.081C69.6341 96.6619 70.0418 89.2371 70.23 81.8123C70.3725 76.2177 73.0238 72.2012 77.2858 69.0998C83.1756 64.8112 89.9463 62.7639 96.9993 61.6345C108.44 59.7986 119.213 62.0081 129.351 67.5477C132.441 69.2359 135.203 71.4657 136.828 74.6887C137.755 76.5304 138.49 78.6501 138.627 80.6945C139.175 88.9244 139.289 97.1889 139.879 105.416C140.494 113.973 138.807 122.003 135.466 129.778C134.268 132.561 133.219 135.41 132.039 138.202C131.851 138.651 131.335 139.27 130.961 139.276C126.982 139.354 122.999 139.325 118.802 139.325L118.8 139.323ZM105.629 72.7282C96.2552 72.7369 89.2621 73.8779 82.5655 76.3103C79.23 77.5208 78.0983 79.293 78.4489 82.7737C79.173 89.9495 80.7809 96.937 82.9361 103.794C83.0844 104.269 83.7914 104.811 84.3017 104.883C97.7861 106.864 111.276 106.838 124.761 104.883C125.237 104.814 125.901 104.315 126.038 103.875C128.145 97.105 129.815 90.2275 130.482 83.1415C130.876 78.9513 129.849 77.5063 125.955 76.1511C119.008 73.7302 111.858 72.6703 105.626 72.7282H105.629ZM87.3065 121.702C86.3543 118.736 85.5674 116.211 84.7093 113.715C84.6039 113.405 84.1335 113.052 83.8056 113.02C81.2513 112.783 78.6912 112.545 76.1312 112.493C75.5297 112.482 74.5917 113.032 74.3665 113.567C73.4286 115.786 74.9395 119.203 77.2744 119.793C80.4331 120.596 83.6802 121.03 87.3122 121.702H87.3065ZM121.83 121.311C122.124 121.386 122.266 121.467 122.392 121.447C124.883 121.088 127.383 120.781 129.861 120.332C133.49 119.672 134.271 118.768 134.741 115.062C134.987 113.136 134.288 112.34 132.37 112.458C130.046 112.6 127.723 112.774 125.408 113C125.012 113.038 124.41 113.318 124.305 113.628C123.429 116.159 122.651 118.725 121.833 121.311H121.83ZM107.422 66.8469C107.425 65.1471 106.102 63.8179 104.434 63.8527C102.815 63.8845 101.581 65.176 101.581 66.8353C101.581 68.5062 102.801 69.7919 104.423 69.8267C106.105 69.8643 107.416 68.5612 107.419 66.8469H107.422Z" fill="#7D7D7D"/>
<path d="M75.7559 149C76.2747 146.539 76.7451 144.187 77.2896 141.856C77.3495 141.604 77.7942 141.364 78.1049 141.274C78.4584 141.173 78.8576 141.242 79.2396 141.242C96.1536 141.242 113.068 141.257 129.984 141.213C131.282 141.21 131.82 141.575 132.006 142.907C132.282 144.899 132.784 146.863 133.226 149H75.7559Z" fill="#7D7D7D"/>
</g>
<defs>
<clipPath id="clip0_341_359">
<rect width="71" height="88" fill="white" transform="translate(69 61)"/>
</clipPath>
</defs>
</svg>
