<svg width="583" height="338" viewBox="0 0 583 338" fill="none" xmlns="http://www.w3.org/2000/svg">
<rect width="583" height="338" rx="20" fill="url(#paint0_radial_376_362)"/>
<rect x="45" y="47" width="96" height="97" rx="48" fill="#F3F3F3"/>
<path fill-rule="evenodd" clip-rule="evenodd" d="M107.401 85.8C107.401 93.8357 100.953 100.35 93.0006 100.35C85.0477 100.35 78.6006 93.8357 78.6006 85.8C78.6006 77.7643 85.0477 71.25 93.0006 71.25C100.953 71.25 107.401 77.7643 107.401 85.8ZM102.601 85.8C102.601 91.1572 98.3025 95.5 93.0006 95.5C87.6987 95.5 83.4006 91.1572 83.4006 85.8C83.4006 80.4428 87.6987 76.1 93.0006 76.1C98.3025 76.1 102.601 80.4428 102.601 85.8Z" fill="#1C1C8A"/>
<path d="M93.0006 107.625C77.4621 107.625 64.2228 116.909 59.1797 129.916C60.4082 131.148 61.7024 132.314 63.0565 133.408C66.8119 121.466 78.5927 112.475 93.0006 112.475C107.408 112.475 119.189 121.466 122.945 133.408C124.299 132.314 125.593 131.148 126.822 129.916C121.778 116.909 108.539 107.625 93.0006 107.625Z" fill="#1C1C8A"/>
<path d="M171.72 71H174.4V82.72H180.44V85H171.72V71ZM184.72 80.28C184.72 81.0533 184.92 81.6667 185.32 82.12C185.734 82.56 186.3 82.78 187.02 82.78C187.86 82.7533 188.514 82.44 188.98 81.84C189.46 81.24 189.7 80.4867 189.7 79.58H190.38C190.38 80.8733 190.2 81.9267 189.84 82.74C189.48 83.54 188.974 84.1333 188.32 84.52C187.667 84.8933 186.887 85.0867 185.98 85.1C185.18 85.1 184.487 84.9333 183.9 84.6C183.327 84.2667 182.88 83.7933 182.56 83.18C182.254 82.5533 182.1 81.82 182.1 80.98V74.34H184.72V80.28ZM189.7 74.34H192.32V85H189.7V74.34ZM195.565 74.34H198.165V85H195.565V74.34ZM197.625 69.82L200.125 70.84L197.565 72.86L195.545 72.66L197.625 69.82ZM207.726 77.12C207.206 76.8133 206.666 76.58 206.106 76.42C205.546 76.2467 205.039 76.16 204.586 76.16C204.159 76.16 203.812 76.24 203.546 76.4C203.279 76.5467 203.146 76.8 203.146 77.16C203.146 77.4667 203.279 77.7133 203.546 77.9C203.826 78.0867 204.179 78.2467 204.606 78.38C205.032 78.5 205.486 78.6333 205.966 78.78C206.446 78.9267 206.899 79.12 207.326 79.36C207.766 79.6 208.119 79.92 208.386 80.32C208.666 80.72 208.806 81.2467 208.806 81.9C208.806 82.62 208.612 83.22 208.226 83.7C207.839 84.1667 207.326 84.52 206.686 84.76C206.046 84.9867 205.346 85.1 204.586 85.1C203.786 85.1 202.986 84.9733 202.186 84.72C201.399 84.4667 200.726 84.0933 200.166 83.6L201.066 81.86C201.559 82.2867 202.139 82.62 202.806 82.86C203.486 83.0867 204.112 83.2 204.686 83.2C204.992 83.2 205.266 83.16 205.506 83.08C205.746 83 205.932 82.8867 206.066 82.74C206.199 82.58 206.266 82.3733 206.266 82.12C206.266 81.7733 206.132 81.5067 205.866 81.32C205.599 81.12 205.252 80.9533 204.826 80.82C204.412 80.6733 203.966 80.5333 203.486 80.4C203.006 80.2533 202.552 80.0667 202.126 79.84C201.712 79.6 201.372 79.2867 201.106 78.9C200.839 78.5133 200.706 78 200.706 77.36C200.706 76.64 200.892 76.0467 201.266 75.58C201.639 75.1133 202.132 74.7733 202.746 74.56C203.359 74.3333 204.026 74.22 204.746 74.22C205.439 74.22 206.132 74.32 206.826 74.52C207.519 74.7067 208.132 74.9733 208.666 75.32L207.726 77.12ZM223.545 80.64C223.545 82.0667 223.145 83.1733 222.345 83.96C221.545 84.7333 220.451 85.12 219.065 85.12C218.185 85.12 217.378 84.94 216.645 84.58C215.925 84.2067 215.291 83.7 214.745 83.06L216.005 81.14C216.485 81.6467 216.985 82.0333 217.505 82.3C218.025 82.5667 218.518 82.7 218.985 82.7C219.558 82.7 220.011 82.52 220.345 82.16C220.678 81.7867 220.845 81.26 220.845 80.58V73.26H216.025V71H223.545V80.64ZM231.28 74.24C232.387 74.24 233.36 74.4667 234.2 74.92C235.054 75.3733 235.714 76.0067 236.18 76.82C236.66 77.6333 236.9 78.58 236.9 79.66C236.9 80.74 236.66 81.6867 236.18 82.5C235.714 83.3133 235.054 83.9533 234.2 84.42C233.36 84.8733 232.387 85.1 231.28 85.1C230.16 85.1 229.174 84.8733 228.32 84.42C227.467 83.9533 226.8 83.3133 226.32 82.5C225.854 81.6867 225.62 80.74 225.62 79.66C225.62 78.58 225.854 77.6333 226.32 76.82C226.8 76.0067 227.467 75.3733 228.32 74.92C229.174 74.4667 230.16 74.24 231.28 74.24ZM231.28 76.34C230.68 76.34 230.147 76.4867 229.68 76.78C229.227 77.06 228.874 77.4533 228.62 77.96C228.367 78.4533 228.24 79.0267 228.24 79.68C228.24 80.3467 228.367 80.9333 228.62 81.44C228.874 81.9467 229.227 82.34 229.68 82.62C230.147 82.9 230.68 83.04 231.28 83.04C231.867 83.04 232.387 82.9 232.84 82.62C233.294 82.34 233.647 81.9467 233.9 81.44C234.154 80.9333 234.28 80.3467 234.28 79.68C234.28 79.0267 234.154 78.4533 233.9 77.96C233.647 77.4533 233.294 77.06 232.84 76.78C232.387 76.4867 231.867 76.34 231.28 76.34ZM245.499 77.12C244.979 76.8133 244.439 76.58 243.879 76.42C243.319 76.2467 242.812 76.16 242.359 76.16C241.932 76.16 241.586 76.24 241.319 76.4C241.052 76.5467 240.919 76.8 240.919 77.16C240.919 77.4667 241.052 77.7133 241.319 77.9C241.599 78.0867 241.952 78.2467 242.379 78.38C242.806 78.5 243.259 78.6333 243.739 78.78C244.219 78.9267 244.672 79.12 245.099 79.36C245.539 79.6 245.892 79.92 246.159 80.32C246.439 80.72 246.579 81.2467 246.579 81.9C246.579 82.62 246.386 83.22 245.999 83.7C245.612 84.1667 245.099 84.52 244.459 84.76C243.819 84.9867 243.119 85.1 242.359 85.1C241.559 85.1 240.759 84.9733 239.959 84.72C239.172 84.4667 238.499 84.0933 237.939 83.6L238.839 81.86C239.332 82.2867 239.912 82.62 240.579 82.86C241.259 83.0867 241.886 83.2 242.459 83.2C242.766 83.2 243.039 83.16 243.279 83.08C243.519 83 243.706 82.8867 243.839 82.74C243.972 82.58 244.039 82.3733 244.039 82.12C244.039 81.7733 243.906 81.5067 243.639 81.32C243.372 81.12 243.026 80.9533 242.599 80.82C242.186 80.6733 241.739 80.5333 241.259 80.4C240.779 80.2533 240.326 80.0667 239.899 79.84C239.486 79.6 239.146 79.2867 238.879 78.9C238.612 78.5133 238.479 78 238.479 77.36C238.479 76.64 238.666 76.0467 239.039 75.58C239.412 75.1133 239.906 74.7733 240.519 74.56C241.132 74.3333 241.799 74.22 242.519 74.22C243.212 74.22 243.906 74.32 244.599 74.52C245.292 74.7067 245.906 74.9733 246.439 75.32L245.499 77.12ZM256.028 78.86C256.001 78.3 255.874 77.8267 255.648 77.44C255.421 77.04 255.101 76.7333 254.688 76.52C254.288 76.2933 253.828 76.18 253.308 76.18C252.708 76.18 252.188 76.32 251.748 76.6C251.308 76.88 250.961 77.2733 250.708 77.78C250.468 78.2867 250.348 78.8733 250.348 79.54C250.348 80.2733 250.481 80.9067 250.748 81.44C251.028 81.9733 251.408 82.3867 251.888 82.68C252.368 82.96 252.921 83.1 253.548 83.1C254.681 83.1 255.648 82.6933 256.448 81.88L257.828 83.26C257.294 83.8467 256.648 84.3 255.888 84.62C255.128 84.94 254.281 85.1 253.348 85.1C252.228 85.1 251.254 84.8733 250.428 84.42C249.614 83.9533 248.974 83.32 248.507 82.52C248.054 81.7067 247.828 80.76 247.828 79.68C247.828 78.6 248.054 77.6533 248.507 76.84C248.974 76.0267 249.614 75.3933 250.428 74.94C251.254 74.4867 252.201 74.2533 253.268 74.24C254.534 74.24 255.554 74.5 256.328 75.02C257.114 75.54 257.674 76.2733 258.008 77.22C258.341 78.1533 258.461 79.2667 258.368 80.56H249.968V78.86H256.028ZM253.928 69.82L256.428 70.84L253.868 72.86L251.848 72.66L253.928 69.82ZM270.554 71H273.294L279.354 85H276.494L271.834 73.7L267.194 85H264.394L270.554 71ZM267.614 79.76H275.954V81.94H267.614V79.76ZM288.755 79.04C288.755 78.2667 288.542 77.66 288.115 77.22C287.702 76.78 287.122 76.56 286.375 76.56C285.509 76.56 284.822 76.8667 284.315 77.48C283.822 78.08 283.575 78.84 283.575 79.76H282.875C282.875 78.4533 283.055 77.4 283.415 76.6C283.789 75.7867 284.315 75.1933 284.995 74.82C285.689 74.4333 286.495 74.24 287.415 74.24C288.242 74.24 288.949 74.4067 289.535 74.74C290.122 75.0733 290.575 75.5467 290.895 76.16C291.215 76.76 291.375 77.4867 291.375 78.34V85H288.755V79.04ZM280.975 74.34H283.575V85H280.975V74.34ZM297.316 81.52C297.316 82.0533 297.416 82.42 297.616 82.62C297.816 82.82 298.089 82.92 298.436 82.92C298.649 82.92 298.882 82.8867 299.136 82.82C299.389 82.74 299.662 82.62 299.956 82.46L300.556 84.34C300.156 84.58 299.722 84.7733 299.256 84.92C298.802 85.0533 298.342 85.12 297.876 85.12C297.302 85.12 296.776 85.0133 296.296 84.8C295.816 84.5733 295.436 84.2267 295.156 83.76C294.876 83.28 294.736 82.68 294.736 81.96V71.82H297.316V81.52ZM293.236 74.74H300.376V76.56H293.236V74.74ZM307.179 74.24C308.286 74.24 309.259 74.4667 310.099 74.92C310.952 75.3733 311.612 76.0067 312.079 76.82C312.559 77.6333 312.799 78.58 312.799 79.66C312.799 80.74 312.559 81.6867 312.079 82.5C311.612 83.3133 310.952 83.9533 310.099 84.42C309.259 84.8733 308.286 85.1 307.179 85.1C306.059 85.1 305.072 84.8733 304.219 84.42C303.366 83.9533 302.699 83.3133 302.219 82.5C301.752 81.6867 301.519 80.74 301.519 79.66C301.519 78.58 301.752 77.6333 302.219 76.82C302.699 76.0067 303.366 75.3733 304.219 74.92C305.072 74.4667 306.059 74.24 307.179 74.24ZM307.179 76.34C306.579 76.34 306.046 76.4867 305.579 76.78C305.126 77.06 304.772 77.4533 304.519 77.96C304.266 78.4533 304.139 79.0267 304.139 79.68C304.139 80.3467 304.266 80.9333 304.519 81.44C304.772 81.9467 305.126 82.34 305.579 82.62C306.046 82.9 306.579 83.04 307.179 83.04C307.766 83.04 308.286 82.9 308.739 82.62C309.192 82.34 309.546 81.9467 309.799 81.44C310.052 80.9333 310.179 80.3467 310.179 79.68C310.179 79.0267 310.052 78.4533 309.799 77.96C309.546 77.4533 309.192 77.06 308.739 76.78C308.286 76.4867 307.766 76.34 307.179 76.34ZM307.919 69.82L310.419 70.84L307.859 72.86L305.839 72.66L307.919 69.82ZM322.838 79.04C322.838 78.2667 322.624 77.66 322.198 77.22C321.784 76.78 321.204 76.56 320.458 76.56C319.591 76.56 318.904 76.8667 318.398 77.48C317.904 78.08 317.658 78.84 317.658 79.76H316.958C316.958 78.4533 317.138 77.4 317.498 76.6C317.871 75.7867 318.398 75.1933 319.078 74.82C319.771 74.4333 320.578 74.24 321.498 74.24C322.324 74.24 323.031 74.4067 323.618 74.74C324.204 75.0733 324.658 75.5467 324.978 76.16C325.298 76.76 325.458 77.4867 325.458 78.34V85H322.838V79.04ZM315.058 74.34H317.658V85H315.058V74.34ZM328.378 74.34H330.978V85H328.378V74.34ZM329.658 69.8C330.084 69.8 330.438 69.94 330.718 70.22C330.998 70.5 331.138 70.8533 331.138 71.28C331.138 71.6933 330.998 72.0467 330.718 72.34C330.438 72.62 330.084 72.76 329.658 72.76C329.244 72.76 328.898 72.62 328.618 72.34C328.338 72.0467 328.198 71.6933 328.198 71.28C328.198 70.8533 328.338 70.5 328.618 70.22C328.898 69.94 329.244 69.8 329.658 69.8ZM338.878 74.24C339.985 74.24 340.958 74.4667 341.798 74.92C342.651 75.3733 343.311 76.0067 343.778 76.82C344.258 77.6333 344.498 78.58 344.498 79.66C344.498 80.74 344.258 81.6867 343.778 82.5C343.311 83.3133 342.651 83.9533 341.798 84.42C340.958 84.8733 339.985 85.1 338.878 85.1C337.758 85.1 336.771 84.8733 335.918 84.42C335.065 83.9533 334.398 83.3133 333.918 82.5C333.451 81.6867 333.218 80.74 333.218 79.66C333.218 78.58 333.451 77.6333 333.918 76.82C334.398 76.0067 335.065 75.3733 335.918 74.92C336.771 74.4667 337.758 74.24 338.878 74.24ZM338.878 76.34C338.278 76.34 337.745 76.4867 337.278 76.78C336.825 77.06 336.471 77.4533 336.218 77.96C335.965 78.4533 335.838 79.0267 335.838 79.68C335.838 80.3467 335.965 80.9333 336.218 81.44C336.471 81.9467 336.825 82.34 337.278 82.62C337.745 82.9 338.278 83.04 338.878 83.04C339.465 83.04 339.985 82.9 340.438 82.62C340.891 82.34 341.245 81.9467 341.498 81.44C341.751 80.9333 341.878 80.3467 341.878 79.68C341.878 79.0267 341.751 78.4533 341.498 77.96C341.245 77.4533 340.891 77.06 340.438 76.78C339.985 76.4867 339.465 76.34 338.878 76.34Z" fill="white"/>
<path d="M171.72 108H174.4V122H171.72V108ZM181.793 111.22C182.767 111.22 183.593 111.44 184.273 111.88C184.953 112.32 185.473 112.947 185.833 113.76C186.193 114.56 186.367 115.527 186.353 116.66C186.367 117.78 186.193 118.753 185.833 119.58C185.487 120.393 184.973 121.02 184.293 121.46C183.613 121.887 182.8 122.1 181.853 122.1C180.84 122.1 179.947 121.873 179.173 121.42C178.413 120.953 177.82 120.307 177.393 119.48C176.967 118.653 176.753 117.707 176.753 116.64C176.753 115.56 176.967 114.613 177.393 113.8C177.82 112.987 178.407 112.353 179.153 111.9C179.913 111.447 180.793 111.22 181.793 111.22ZM182.413 113.32C181.827 113.32 181.3 113.467 180.833 113.76C180.38 114.053 180.027 114.453 179.773 114.96C179.52 115.467 179.387 116.047 179.373 116.7C179.387 117.353 179.52 117.933 179.773 118.44C180.027 118.947 180.38 119.347 180.833 119.64C181.3 119.92 181.827 120.06 182.413 120.06C183.013 120.06 183.54 119.92 183.993 119.64C184.46 119.347 184.82 118.947 185.073 118.44C185.327 117.933 185.453 117.353 185.453 116.7C185.453 116.033 185.327 115.453 185.073 114.96C184.82 114.453 184.46 114.053 183.993 113.76C183.54 113.467 183.013 113.32 182.413 113.32ZM185.453 107.16H188.053V122H185.453V107.16ZM198.606 115.86C198.579 115.3 198.452 114.827 198.226 114.44C197.999 114.04 197.679 113.733 197.266 113.52C196.866 113.293 196.406 113.18 195.886 113.18C195.286 113.18 194.766 113.32 194.326 113.6C193.886 113.88 193.539 114.273 193.286 114.78C193.046 115.287 192.926 115.873 192.926 116.54C192.926 117.273 193.059 117.907 193.326 118.44C193.606 118.973 193.986 119.387 194.466 119.68C194.946 119.96 195.499 120.1 196.126 120.1C197.259 120.1 198.226 119.693 199.026 118.88L200.406 120.26C199.872 120.847 199.226 121.3 198.466 121.62C197.706 121.94 196.859 122.1 195.926 122.1C194.806 122.1 193.832 121.873 193.006 121.42C192.192 120.953 191.552 120.32 191.086 119.52C190.632 118.707 190.406 117.76 190.406 116.68C190.406 115.6 190.632 114.653 191.086 113.84C191.552 113.027 192.192 112.393 193.006 111.94C193.832 111.487 194.779 111.253 195.846 111.24C197.112 111.24 198.132 111.5 198.906 112.02C199.692 112.54 200.252 113.273 200.586 114.22C200.919 115.153 201.039 116.267 200.946 117.56H192.546V115.86H198.606ZM211.002 116.04C211.002 115.267 210.788 114.66 210.362 114.22C209.948 113.78 209.368 113.56 208.622 113.56C207.755 113.56 207.068 113.867 206.562 114.48C206.068 115.08 205.822 115.84 205.822 116.76H205.122C205.122 115.453 205.302 114.4 205.662 113.6C206.035 112.787 206.562 112.193 207.242 111.82C207.935 111.433 208.742 111.24 209.662 111.24C210.488 111.24 211.195 111.407 211.782 111.74C212.368 112.073 212.822 112.547 213.142 113.16C213.462 113.76 213.622 114.487 213.622 115.34V122H211.002V116.04ZM203.222 111.34H205.822V122H203.222V111.34ZM219.562 118.52C219.562 119.053 219.662 119.42 219.862 119.62C220.062 119.82 220.335 119.92 220.682 119.92C220.895 119.92 221.129 119.887 221.382 119.82C221.635 119.74 221.909 119.62 222.202 119.46L222.802 121.34C222.402 121.58 221.969 121.773 221.502 121.92C221.049 122.053 220.589 122.12 220.122 122.12C219.549 122.12 219.022 122.013 218.542 121.8C218.062 121.573 217.682 121.227 217.402 120.76C217.122 120.28 216.982 119.68 216.982 118.96V108.82H219.562V118.52ZM215.482 111.74H222.622V113.56H215.482V111.74ZM224.843 111.34H227.443V122H224.843V111.34ZM226.123 106.8C226.549 106.8 226.903 106.94 227.183 107.22C227.463 107.5 227.603 107.853 227.603 108.28C227.603 108.693 227.463 109.047 227.183 109.34C226.903 109.62 226.549 109.76 226.123 109.76C225.709 109.76 225.363 109.62 225.083 109.34C224.803 109.047 224.663 108.693 224.663 108.28C224.663 107.853 224.803 107.5 225.083 107.22C225.363 106.94 225.709 106.8 226.123 106.8ZM231.143 110.72C231.143 109.893 231.323 109.207 231.683 108.66C232.043 108.113 232.51 107.707 233.083 107.44C233.656 107.173 234.276 107.04 234.943 107.04C235.276 107.04 235.61 107.087 235.943 107.18C236.29 107.26 236.61 107.373 236.903 107.52L236.443 109.5C236.243 109.42 236.03 109.347 235.803 109.28C235.576 109.213 235.35 109.18 235.123 109.18C234.883 109.167 234.656 109.213 234.443 109.32C234.23 109.413 234.056 109.567 233.923 109.78C233.803 109.98 233.743 110.247 233.743 110.58V122H231.143V110.72ZM229.743 111.74H236.423V113.56H229.743V111.74ZM237.963 111.34H240.563V122H237.963V111.34ZM239.243 106.8C239.67 106.8 240.023 106.94 240.303 107.22C240.583 107.5 240.723 107.853 240.723 108.28C240.723 108.693 240.583 109.047 240.303 109.34C240.023 109.62 239.67 109.76 239.243 109.76C238.83 109.76 238.483 109.62 238.203 109.34C237.923 109.047 237.783 108.693 237.783 108.28C237.783 107.853 237.923 107.5 238.203 107.22C238.483 106.94 238.83 106.8 239.243 106.8ZM251.148 114.58C250.815 114.207 250.408 113.92 249.928 113.72C249.461 113.507 248.935 113.4 248.348 113.4C247.775 113.4 247.268 113.54 246.828 113.82C246.388 114.087 246.041 114.467 245.788 114.96C245.548 115.453 245.428 116.027 245.428 116.68C245.428 117.333 245.548 117.907 245.788 118.4C246.041 118.893 246.388 119.28 246.828 119.56C247.268 119.84 247.775 119.98 248.348 119.98C248.961 119.98 249.515 119.873 250.008 119.66C250.501 119.447 250.908 119.127 251.228 118.7L252.848 120.02C252.381 120.673 251.755 121.187 250.968 121.56C250.181 121.92 249.268 122.1 248.228 122.1C247.161 122.1 246.221 121.873 245.408 121.42C244.595 120.953 243.955 120.32 243.488 119.52C243.035 118.707 242.808 117.76 242.808 116.68C242.808 115.6 243.035 114.653 243.488 113.84C243.955 113.027 244.595 112.393 245.408 111.94C246.221 111.473 247.161 111.24 248.228 111.24C249.228 111.24 250.108 111.407 250.868 111.74C251.628 112.06 252.255 112.513 252.748 113.1L251.148 114.58ZM258.286 117.3C257.606 117.3 257.1 117.407 256.766 117.62C256.433 117.833 256.266 118.187 256.266 118.68C256.266 119.133 256.433 119.5 256.766 119.78C257.113 120.06 257.58 120.2 258.166 120.2C258.686 120.2 259.153 120.113 259.566 119.94C259.993 119.753 260.326 119.507 260.566 119.2C260.82 118.88 260.966 118.527 261.006 118.14L261.446 120C261.126 120.693 260.633 121.22 259.966 121.58C259.3 121.94 258.493 122.12 257.546 122.12C256.786 122.12 256.126 121.973 255.566 121.68C255.006 121.387 254.573 120.993 254.266 120.5C253.96 119.993 253.806 119.427 253.806 118.8C253.806 117.813 254.16 117.04 254.866 116.48C255.573 115.907 256.573 115.613 257.866 115.6H261.286V117.3H258.286ZM260.986 115.28C260.986 114.64 260.78 114.14 260.366 113.78C259.966 113.407 259.366 113.22 258.566 113.22C258.073 113.22 257.553 113.313 257.006 113.5C256.473 113.673 255.933 113.927 255.386 114.26L254.446 112.58C254.953 112.273 255.44 112.027 255.906 111.84C256.373 111.64 256.86 111.493 257.366 111.4C257.886 111.293 258.48 111.24 259.146 111.24C260.546 111.24 261.626 111.573 262.386 112.24C263.146 112.907 263.533 113.827 263.546 115L263.566 122H261.006L260.986 115.28ZM273.843 114.58C273.51 114.207 273.103 113.92 272.623 113.72C272.157 113.507 271.63 113.4 271.043 113.4C270.47 113.4 269.963 113.54 269.523 113.82C269.083 114.087 268.737 114.467 268.483 114.96C268.243 115.453 268.123 116.027 268.123 116.68C268.123 117.333 268.243 117.907 268.483 118.4C268.737 118.893 269.083 119.28 269.523 119.56C269.963 119.84 270.47 119.98 271.043 119.98C271.657 119.98 272.21 119.873 272.703 119.66C273.197 119.447 273.603 119.127 273.923 118.7L275.543 120.02C275.077 120.673 274.45 121.187 273.663 121.56C272.877 121.92 271.963 122.1 270.923 122.1C269.857 122.1 268.917 121.873 268.103 121.42C267.29 120.953 266.65 120.32 266.183 119.52C265.73 118.707 265.503 117.76 265.503 116.68C265.503 115.6 265.73 114.653 266.183 113.84C266.65 113.027 267.29 112.393 268.103 111.94C268.917 111.473 269.857 111.24 270.923 111.24C271.923 111.24 272.803 111.407 273.563 111.74C274.323 112.06 274.95 112.513 275.443 113.1L273.843 114.58ZM270.083 121.84L271.703 122L271.303 123.04C271.903 123.147 272.323 123.347 272.563 123.64C272.817 123.947 272.943 124.28 272.943 124.64C272.943 125.04 272.83 125.373 272.603 125.64C272.39 125.907 272.103 126.107 271.743 126.24C271.397 126.373 271.003 126.44 270.563 126.44C270.217 126.44 269.863 126.4 269.503 126.32C269.157 126.24 268.843 126.14 268.563 126.02L269.043 124.64C269.217 124.707 269.403 124.76 269.603 124.8C269.817 124.853 270.01 124.88 270.183 124.88C270.45 124.88 270.65 124.827 270.783 124.72C270.93 124.627 271.003 124.52 271.003 124.4C271.003 124.24 270.917 124.113 270.743 124.02C270.583 123.94 270.337 123.9 270.003 123.9C269.923 123.9 269.817 123.9 269.683 123.9C269.55 123.9 269.457 123.9 269.403 123.9L270.083 121.84ZM280.982 117.3C280.302 117.3 279.795 117.407 279.462 117.62C279.128 117.833 278.962 118.187 278.962 118.68C278.962 119.133 279.128 119.5 279.462 119.78C279.808 120.06 280.275 120.2 280.862 120.2C281.382 120.2 281.848 120.113 282.262 119.94C282.688 119.753 283.022 119.507 283.262 119.2C283.515 118.88 283.662 118.527 283.702 118.14L284.142 120C283.822 120.693 283.328 121.22 282.662 121.58C281.995 121.94 281.188 122.12 280.242 122.12C279.482 122.12 278.822 121.973 278.262 121.68C277.702 121.387 277.268 120.993 276.962 120.5C276.655 119.993 276.502 119.427 276.502 118.8C276.502 117.813 276.855 117.04 277.562 116.48C278.268 115.907 279.268 115.613 280.562 115.6H283.982V117.3H280.982ZM283.682 115.28C283.682 114.64 283.475 114.14 283.062 113.78C282.662 113.407 282.062 113.22 281.262 113.22C280.768 113.22 280.248 113.313 279.702 113.5C279.168 113.673 278.628 113.927 278.082 114.26L277.142 112.58C277.648 112.273 278.135 112.027 278.602 111.84C279.068 111.64 279.555 111.493 280.062 111.4C280.582 111.293 281.175 111.24 281.842 111.24C283.242 111.24 284.322 111.573 285.082 112.24C285.842 112.907 286.228 113.827 286.242 115L286.262 122H283.702L283.682 115.28ZM284.962 107.22C284.962 107.713 284.908 108.167 284.802 108.58C284.695 108.993 284.515 109.327 284.262 109.58C284.008 109.82 283.655 109.94 283.202 109.94C282.922 109.94 282.648 109.893 282.382 109.8C282.128 109.707 281.888 109.593 281.662 109.46C281.435 109.327 281.228 109.213 281.042 109.12C280.855 109.027 280.688 108.98 280.542 108.98C280.328 108.98 280.182 109.067 280.102 109.24C280.035 109.413 280.002 109.627 280.002 109.88H278.342C278.342 109.373 278.395 108.913 278.502 108.5C278.608 108.087 278.788 107.76 279.042 107.52C279.295 107.267 279.642 107.14 280.082 107.14C280.362 107.14 280.628 107.187 280.882 107.28C281.148 107.373 281.395 107.487 281.622 107.62C281.848 107.753 282.055 107.873 282.242 107.98C282.428 108.073 282.595 108.12 282.742 108.12C282.968 108.12 283.115 108.033 283.182 107.86C283.248 107.687 283.282 107.473 283.282 107.22H284.962ZM293.859 111.24C294.965 111.24 295.939 111.467 296.779 111.92C297.632 112.373 298.292 113.007 298.759 113.82C299.239 114.633 299.479 115.58 299.479 116.66C299.479 117.74 299.239 118.687 298.759 119.5C298.292 120.313 297.632 120.953 296.779 121.42C295.939 121.873 294.965 122.1 293.859 122.1C292.739 122.1 291.752 121.873 290.899 121.42C290.045 120.953 289.379 120.313 288.899 119.5C288.432 118.687 288.199 117.74 288.199 116.66C288.199 115.58 288.432 114.633 288.899 113.82C289.379 113.007 290.045 112.373 290.899 111.92C291.752 111.467 292.739 111.24 293.859 111.24ZM293.859 113.34C293.259 113.34 292.725 113.487 292.259 113.78C291.805 114.06 291.452 114.453 291.199 114.96C290.945 115.453 290.819 116.027 290.819 116.68C290.819 117.347 290.945 117.933 291.199 118.44C291.452 118.947 291.805 119.34 292.259 119.62C292.725 119.9 293.259 120.04 293.859 120.04C294.445 120.04 294.965 119.9 295.419 119.62C295.872 119.34 296.225 118.947 296.479 118.44C296.732 117.933 296.859 117.347 296.859 116.68C296.859 116.027 296.732 115.453 296.479 114.96C296.225 114.453 295.872 114.06 295.419 113.78C294.965 113.487 294.445 113.34 293.859 113.34ZM302.357 113.48C302.757 113.48 303.084 113.607 303.337 113.86C303.604 114.113 303.737 114.44 303.737 114.84C303.737 115.253 303.604 115.593 303.337 115.86C303.084 116.113 302.757 116.24 302.357 116.24C301.971 116.24 301.644 116.113 301.377 115.86C301.124 115.593 300.997 115.253 300.997 114.84C300.997 114.44 301.124 114.113 301.377 113.86C301.644 113.607 301.971 113.48 302.357 113.48ZM302.357 119.42C302.757 119.42 303.084 119.547 303.337 119.8C303.604 120.053 303.737 120.38 303.737 120.78C303.737 121.193 303.604 121.533 303.337 121.8C303.084 122.053 302.757 122.18 302.357 122.18C301.971 122.18 301.644 122.053 301.377 121.8C301.124 121.533 300.997 121.193 300.997 120.78C300.997 120.38 301.124 120.053 301.377 119.8C301.644 119.547 301.971 119.42 302.357 119.42ZM316.04 114.68C316.533 114.173 316.933 113.667 317.24 113.16C317.56 112.64 317.72 112.187 317.72 111.8C317.72 111.253 317.52 110.833 317.12 110.54C316.72 110.247 316.167 110.1 315.46 110.1C314.847 110.1 314.193 110.253 313.5 110.56C312.807 110.867 312.153 111.287 311.54 111.82L310.48 109.9C311.293 109.273 312.153 108.78 313.06 108.42C313.967 108.06 314.893 107.88 315.84 107.88C316.773 107.88 317.587 108.027 318.28 108.32C318.973 108.613 319.52 109.027 319.92 109.56C320.32 110.093 320.52 110.713 320.52 111.42C320.52 112.127 320.267 112.873 319.76 113.66C319.267 114.433 318.633 115.22 317.86 116.02L313.44 120.6L313.08 119.78H321.12V122H310.76V120.16L316.04 114.68ZM332.097 110.84C331.67 110.56 331.19 110.347 330.657 110.2C330.124 110.04 329.584 109.96 329.037 109.96C328.184 109.96 327.477 110.167 326.917 110.58C326.357 110.98 325.944 111.547 325.677 112.28C325.41 113 325.29 113.853 325.317 114.84C325.677 114.213 326.17 113.74 326.797 113.42C327.424 113.087 328.157 112.92 328.997 112.92C329.93 112.92 330.73 113.107 331.397 113.48C332.077 113.84 332.597 114.36 332.957 115.04C333.33 115.707 333.517 116.493 333.517 117.4C333.517 118.36 333.31 119.193 332.897 119.9C332.484 120.607 331.904 121.153 331.157 121.54C330.41 121.927 329.53 122.12 328.517 122.12C327.33 122.12 326.304 121.847 325.437 121.3C324.57 120.753 323.904 119.973 323.437 118.96C322.984 117.933 322.757 116.707 322.757 115.28C322.757 113.787 323.004 112.487 323.497 111.38C324.004 110.273 324.717 109.413 325.637 108.8C326.557 108.187 327.637 107.88 328.877 107.88C329.584 107.88 330.324 107.98 331.097 108.18C331.87 108.38 332.544 108.64 333.117 108.96L332.097 110.84ZM328.477 114.88C327.89 114.88 327.39 115 326.977 115.24C326.564 115.48 326.244 115.793 326.017 116.18C325.804 116.567 325.697 116.993 325.697 117.46C325.697 117.753 325.744 118.053 325.837 118.36C325.944 118.653 326.11 118.92 326.337 119.16C326.564 119.4 326.844 119.593 327.177 119.74C327.51 119.887 327.917 119.96 328.397 119.96C328.93 119.96 329.39 119.86 329.777 119.66C330.177 119.46 330.484 119.167 330.697 118.78C330.924 118.38 331.037 117.913 331.037 117.38C331.037 116.607 330.81 116 330.357 115.56C329.904 115.107 329.277 114.88 328.477 114.88ZM338.913 114.32L338.133 113.16C338.346 113.147 338.62 113.14 338.953 113.14C339.286 113.127 339.62 113.12 339.953 113.12C340.286 113.12 340.56 113.12 340.773 113.12C341.853 113.12 342.786 113.307 343.573 113.68C344.36 114.053 344.966 114.56 345.393 115.2C345.833 115.827 346.053 116.553 346.053 117.38C346.053 118.327 345.826 119.16 345.373 119.88C344.92 120.587 344.28 121.14 343.453 121.54C342.64 121.927 341.68 122.12 340.573 122.12C339.693 122.12 338.773 121.973 337.813 121.68C336.866 121.373 336.026 120.973 335.293 120.48L336.353 118.48C336.94 118.933 337.573 119.293 338.253 119.56C338.933 119.813 339.62 119.94 340.313 119.94C341.193 119.94 341.886 119.727 342.393 119.3C342.913 118.873 343.173 118.293 343.173 117.56C343.173 116.867 342.92 116.32 342.413 115.92C341.92 115.52 341.166 115.32 340.153 115.32C339.993 115.32 339.753 115.327 339.433 115.34C339.126 115.34 338.786 115.347 338.413 115.36C338.04 115.373 337.673 115.393 337.313 115.42C336.966 115.447 336.673 115.473 336.433 115.5V108H345.433V110.22H337.713L338.913 109.04V114.32ZM353.575 113.86C354.842 113.967 355.862 114.353 356.635 115.02C357.422 115.673 357.815 116.547 357.815 117.64C357.815 118.52 357.589 119.3 357.135 119.98C356.682 120.647 356.042 121.173 355.215 121.56C354.389 121.933 353.402 122.12 352.255 122.12C351.295 122.12 350.349 121.98 349.415 121.7C348.495 121.407 347.715 121.027 347.075 120.56L348.135 118.58C348.695 119.033 349.315 119.387 349.995 119.64C350.675 119.893 351.369 120.02 352.075 120.02C352.729 120.02 353.289 119.927 353.755 119.74C354.222 119.54 354.575 119.267 354.815 118.92C355.069 118.56 355.195 118.153 355.195 117.7C355.195 116.967 354.915 116.413 354.355 116.04C353.795 115.667 353.022 115.48 352.035 115.48H349.915V113.94L354.635 109.3L354.995 110.18H347.775L347.755 108H357.115V109.56L351.935 114.6L351.615 113.66L353.575 113.86ZM363.171 114.32L362.391 113.16C362.604 113.147 362.878 113.14 363.211 113.14C363.544 113.127 363.878 113.12 364.211 113.12C364.544 113.12 364.818 113.12 365.031 113.12C366.111 113.12 367.044 113.307 367.831 113.68C368.618 114.053 369.224 114.56 369.651 115.2C370.091 115.827 370.311 116.553 370.311 117.38C370.311 118.327 370.084 119.16 369.631 119.88C369.178 120.587 368.538 121.14 367.711 121.54C366.898 121.927 365.938 122.12 364.831 122.12C363.951 122.12 363.031 121.973 362.071 121.68C361.124 121.373 360.284 120.973 359.551 120.48L360.611 118.48C361.198 118.933 361.831 119.293 362.511 119.56C363.191 119.813 363.878 119.94 364.571 119.94C365.451 119.94 366.144 119.727 366.651 119.3C367.171 118.873 367.431 118.293 367.431 117.56C367.431 116.867 367.178 116.32 366.671 115.92C366.178 115.52 365.424 115.32 364.411 115.32C364.251 115.32 364.011 115.327 363.691 115.34C363.384 115.34 363.044 115.347 362.671 115.36C362.298 115.373 361.931 115.393 361.571 115.42C361.224 115.447 360.931 115.473 360.691 115.5V108H369.691V110.22H361.971L363.171 109.04V114.32ZM373.373 119.14C373.787 119.433 374.26 119.66 374.793 119.82C375.327 119.967 375.86 120.04 376.393 120.04C377.26 120.04 377.967 119.84 378.513 119.44C379.073 119.027 379.48 118.453 379.733 117.72C380 116.973 380.127 116.113 380.113 115.14C379.74 115.78 379.247 116.267 378.633 116.6C378.02 116.92 377.287 117.08 376.433 117.08C375.527 117.08 374.733 116.9 374.053 116.54C373.387 116.167 372.873 115.647 372.513 114.98C372.153 114.3 371.973 113.507 371.973 112.6C371.973 111.627 372.18 110.793 372.593 110.1C373.007 109.393 373.58 108.847 374.313 108.46C375.06 108.073 375.933 107.88 376.933 107.88C378.12 107.88 379.14 108.153 379.993 108.7C380.847 109.247 381.507 110.033 381.973 111.06C382.44 112.073 382.673 113.293 382.673 114.72C382.673 116.213 382.42 117.513 381.913 118.62C381.42 119.727 380.713 120.587 379.793 121.2C378.887 121.813 377.813 122.12 376.573 122.12C375.853 122.12 375.107 122.02 374.333 121.82C373.573 121.62 372.907 121.353 372.333 121.02L373.373 119.14ZM377.053 110.02C376.533 110.02 376.073 110.127 375.673 110.34C375.287 110.54 374.98 110.833 374.753 111.22C374.54 111.607 374.433 112.073 374.433 112.62C374.433 113.38 374.66 113.987 375.113 114.44C375.567 114.893 376.187 115.12 376.973 115.12C377.56 115.12 378.06 115 378.473 114.76C378.887 114.52 379.2 114.207 379.413 113.82C379.627 113.42 379.727 112.987 379.713 112.52C379.713 112.227 379.66 111.933 379.553 111.64C379.46 111.333 379.307 111.06 379.093 110.82C378.88 110.58 378.6 110.387 378.253 110.24C377.92 110.093 377.52 110.02 377.053 110.02ZM390.01 107.88C390.984 107.88 391.824 108.033 392.53 108.34C393.237 108.633 393.784 109.053 394.17 109.6C394.557 110.147 394.75 110.793 394.75 111.54C394.75 112.207 394.57 112.8 394.21 113.32C393.864 113.827 393.39 114.227 392.79 114.52C393.604 114.813 394.25 115.273 394.73 115.9C395.21 116.513 395.45 117.24 395.45 118.08C395.45 118.907 395.23 119.62 394.79 120.22C394.35 120.82 393.724 121.287 392.91 121.62C392.097 121.953 391.137 122.12 390.03 122.12C388.924 122.12 387.964 121.96 387.15 121.64C386.337 121.307 385.71 120.84 385.27 120.24C384.83 119.64 384.61 118.933 384.61 118.12C384.61 117.267 384.864 116.527 385.37 115.9C385.877 115.273 386.55 114.813 387.39 114.52C386.75 114.2 386.244 113.78 385.87 113.26C385.497 112.727 385.31 112.127 385.31 111.46C385.31 110.713 385.504 110.08 385.89 109.56C386.277 109.027 386.817 108.613 387.51 108.32C388.217 108.027 389.05 107.88 390.01 107.88ZM390.01 115.62C389.104 115.62 388.397 115.82 387.89 116.22C387.384 116.607 387.13 117.147 387.13 117.84C387.13 118.56 387.384 119.127 387.89 119.54C388.397 119.94 389.11 120.14 390.03 120.14C390.95 120.14 391.664 119.94 392.17 119.54C392.677 119.14 392.93 118.58 392.93 117.86C392.93 117.167 392.67 116.62 392.15 116.22C391.644 115.82 390.93 115.62 390.01 115.62ZM390.03 109.7C389.257 109.7 388.65 109.873 388.21 110.22C387.784 110.567 387.57 111.053 387.57 111.68C387.57 112.307 387.784 112.793 388.21 113.14C388.65 113.487 389.257 113.66 390.03 113.66C390.817 113.66 391.417 113.487 391.83 113.14C392.257 112.793 392.47 112.307 392.47 111.68C392.47 111.053 392.257 110.567 391.83 110.22C391.417 109.873 390.817 109.7 390.03 109.7ZM406.667 110.84C406.241 110.56 405.761 110.347 405.227 110.2C404.694 110.04 404.154 109.96 403.607 109.96C402.754 109.96 402.047 110.167 401.487 110.58C400.927 110.98 400.514 111.547 400.247 112.28C399.981 113 399.861 113.853 399.887 114.84C400.247 114.213 400.741 113.74 401.367 113.42C401.994 113.087 402.727 112.92 403.567 112.92C404.501 112.92 405.301 113.107 405.967 113.48C406.647 113.84 407.167 114.36 407.527 115.04C407.901 115.707 408.087 116.493 408.087 117.4C408.087 118.36 407.881 119.193 407.467 119.9C407.054 120.607 406.474 121.153 405.727 121.54C404.981 121.927 404.101 122.12 403.087 122.12C401.901 122.12 400.874 121.847 400.007 121.3C399.141 120.753 398.474 119.973 398.007 118.96C397.554 117.933 397.327 116.707 397.327 115.28C397.327 113.787 397.574 112.487 398.067 111.38C398.574 110.273 399.287 109.413 400.207 108.8C401.127 108.187 402.207 107.88 403.447 107.88C404.154 107.88 404.894 107.98 405.667 108.18C406.441 108.38 407.114 108.64 407.687 108.96L406.667 110.84ZM403.047 114.88C402.461 114.88 401.961 115 401.547 115.24C401.134 115.48 400.814 115.793 400.587 116.18C400.374 116.567 400.267 116.993 400.267 117.46C400.267 117.753 400.314 118.053 400.407 118.36C400.514 118.653 400.681 118.92 400.907 119.16C401.134 119.4 401.414 119.593 401.747 119.74C402.081 119.887 402.487 119.96 402.967 119.96C403.501 119.96 403.961 119.86 404.347 119.66C404.747 119.46 405.054 119.167 405.267 118.78C405.494 118.38 405.607 117.913 405.607 117.38C405.607 116.607 405.381 116 404.927 115.56C404.474 115.107 403.847 114.88 403.047 114.88ZM409.183 118.64V116.76L413.743 108H416.323L411.483 117.44L410.843 116.44H420.383V118.64H409.183ZM415.883 113.14H418.363V122H415.883V113.14Z" fill="white"/>
<path d="M50.952 241.8C52.3707 241.8 53.4693 242.136 54.248 242.808C55.0267 243.48 55.416 244.424 55.416 245.64C55.416 246.909 55.0267 247.896 54.248 248.6C53.4693 249.304 52.3707 249.656 50.952 249.656H47.576L48.52 248.712V253H46.376V241.8H50.952ZM50.856 247.88C51.656 247.88 52.2693 247.699 52.696 247.336C53.1333 246.973 53.352 246.424 53.352 245.688C53.352 244.984 53.1333 244.461 52.696 244.12C52.2693 243.768 51.656 243.592 50.856 243.592H47.576L48.52 242.648V248.824L47.576 247.88H50.856ZM59.9729 249.24C59.4289 249.24 59.0235 249.325 58.7569 249.496C58.4902 249.667 58.3569 249.949 58.3569 250.344C58.3569 250.707 58.4902 251 58.7569 251.224C59.0342 251.448 59.4075 251.56 59.8769 251.56C60.2929 251.56 60.6662 251.491 60.9969 251.352C61.3382 251.203 61.6049 251.005 61.7969 250.76C61.9995 250.504 62.1169 250.221 62.1489 249.912L62.5009 251.4C62.2449 251.955 61.8502 252.376 61.3169 252.664C60.7835 252.952 60.1382 253.096 59.3809 253.096C58.7729 253.096 58.2449 252.979 57.7969 252.744C57.3489 252.509 57.0022 252.195 56.7569 251.8C56.5115 251.395 56.3889 250.941 56.3889 250.44C56.3889 249.651 56.6715 249.032 57.2369 248.584C57.8022 248.125 58.6022 247.891 59.6369 247.88H62.3729V249.24H59.9729ZM62.1329 247.624C62.1329 247.112 61.9675 246.712 61.6369 246.424C61.3169 246.125 60.8369 245.976 60.1969 245.976C59.8022 245.976 59.3862 246.051 58.9489 246.2C58.5222 246.339 58.0902 246.541 57.6529 246.808L56.9009 245.464C57.3062 245.219 57.6955 245.021 58.0689 244.872C58.4422 244.712 58.8315 244.595 59.2369 244.52C59.6529 244.435 60.1275 244.392 60.6609 244.392C61.7809 244.392 62.6449 244.659 63.2529 245.192C63.8609 245.725 64.1702 246.461 64.1809 247.4L64.1969 253H62.1489L62.1329 247.624ZM71.6024 246.696C71.1864 246.451 70.7544 246.264 70.3064 246.136C69.8584 245.997 69.453 245.928 69.0904 245.928C68.749 245.928 68.4717 245.992 68.2584 246.12C68.045 246.237 67.9384 246.44 67.9384 246.728C67.9384 246.973 68.045 247.171 68.2584 247.32C68.4824 247.469 68.765 247.597 69.1064 247.704C69.4477 247.8 69.8104 247.907 70.1944 248.024C70.5784 248.141 70.941 248.296 71.2824 248.488C71.6344 248.68 71.917 248.936 72.1304 249.256C72.3544 249.576 72.4664 249.997 72.4664 250.52C72.4664 251.096 72.3117 251.576 72.0024 251.96C71.693 252.333 71.2824 252.616 70.7704 252.808C70.2584 252.989 69.6984 253.08 69.0904 253.08C68.4504 253.08 67.8104 252.979 67.1704 252.776C66.541 252.573 66.0024 252.275 65.5544 251.88L66.2744 250.488C66.669 250.829 67.133 251.096 67.6664 251.288C68.2104 251.469 68.7117 251.56 69.1704 251.56C69.4157 251.56 69.6344 251.528 69.8264 251.464C70.0184 251.4 70.1677 251.309 70.2744 251.192C70.381 251.064 70.4344 250.899 70.4344 250.696C70.4344 250.419 70.3277 250.205 70.1144 250.056C69.901 249.896 69.6237 249.763 69.2824 249.656C68.9517 249.539 68.5944 249.427 68.2104 249.32C67.8264 249.203 67.4637 249.053 67.1224 248.872C66.7917 248.68 66.5197 248.429 66.3064 248.12C66.093 247.811 65.9864 247.4 65.9864 246.888C65.9864 246.312 66.1357 245.837 66.4344 245.464C66.733 245.091 67.1277 244.819 67.6184 244.648C68.109 244.467 68.6424 244.376 69.2184 244.376C69.773 244.376 70.3277 244.456 70.8824 244.616C71.437 244.765 71.9277 244.979 72.3544 245.256L71.6024 246.696ZM79.3211 246.696C78.9051 246.451 78.4731 246.264 78.0251 246.136C77.5771 245.997 77.1718 245.928 76.8091 245.928C76.4678 245.928 76.1905 245.992 75.9771 246.12C75.7638 246.237 75.6571 246.44 75.6571 246.728C75.6571 246.973 75.7638 247.171 75.9771 247.32C76.2011 247.469 76.4838 247.597 76.8251 247.704C77.1665 247.8 77.5291 247.907 77.9131 248.024C78.2971 248.141 78.6598 248.296 79.0011 248.488C79.3531 248.68 79.6358 248.936 79.8491 249.256C80.0731 249.576 80.1851 249.997 80.1851 250.52C80.1851 251.096 80.0305 251.576 79.7211 251.96C79.4118 252.333 79.0011 252.616 78.4891 252.808C77.9771 252.989 77.4171 253.08 76.8091 253.08C76.1691 253.08 75.5291 252.979 74.8891 252.776C74.2598 252.573 73.7211 252.275 73.2731 251.88L73.9931 250.488C74.3878 250.829 74.8518 251.096 75.3851 251.288C75.9291 251.469 76.4305 251.56 76.8891 251.56C77.1345 251.56 77.3531 251.528 77.5451 251.464C77.7371 251.4 77.8865 251.309 77.9931 251.192C78.0998 251.064 78.1531 250.899 78.1531 250.696C78.1531 250.419 78.0465 250.205 77.8331 250.056C77.6198 249.896 77.3425 249.763 77.0011 249.656C76.6705 249.539 76.3131 249.427 75.9291 249.32C75.5451 249.203 75.1825 249.053 74.8411 248.872C74.5105 248.68 74.2385 248.429 74.0251 248.12C73.8118 247.811 73.7051 247.4 73.7051 246.888C73.7051 246.312 73.8545 245.837 74.1531 245.464C74.4518 245.091 74.8465 244.819 75.3371 244.648C75.8278 244.467 76.3611 244.376 76.9371 244.376C77.4918 244.376 78.0465 244.456 78.6011 244.616C79.1558 244.765 79.6465 244.979 80.0731 245.256L79.3211 246.696ZM82.0479 241.8H84.1919V253H82.0479V241.8ZM91.5945 241.8C92.4478 241.8 93.2265 241.939 93.9305 242.216C94.6452 242.483 95.2585 242.867 95.7705 243.368C96.2932 243.869 96.6985 244.461 96.9865 245.144C97.2745 245.827 97.4185 246.579 97.4185 247.4C97.4185 248.211 97.2745 248.957 96.9865 249.64C96.6985 250.323 96.2932 250.915 95.7705 251.416C95.2478 251.917 94.6238 252.307 93.8985 252.584C93.1732 252.861 92.3838 253 91.5305 253H86.9385V241.8H91.5945ZM91.6425 251.208C92.1545 251.208 92.6292 251.117 93.0665 250.936C93.5038 250.744 93.8825 250.483 94.2025 250.152C94.5332 249.811 94.7892 249.411 94.9705 248.952C95.1625 248.483 95.2585 247.971 95.2585 247.416C95.2585 246.851 95.1625 246.339 94.9705 245.88C94.7785 245.411 94.5172 245.005 94.1865 244.664C93.8558 244.312 93.4665 244.045 93.0185 243.864C92.5705 243.683 92.0798 243.592 91.5465 243.592H89.0825V251.208H91.6425ZM99.7295 246.184C100.05 246.184 100.311 246.285 100.514 246.488C100.727 246.691 100.834 246.952 100.834 247.272C100.834 247.603 100.727 247.875 100.514 248.088C100.311 248.291 100.05 248.392 99.7295 248.392C99.4202 248.392 99.1588 248.291 98.9455 248.088C98.7428 247.875 98.6415 247.603 98.6415 247.272C98.6415 246.952 98.7428 246.691 98.9455 246.488C99.1588 246.285 99.4202 246.184 99.7295 246.184ZM99.7295 250.936C100.05 250.936 100.311 251.037 100.514 251.24C100.727 251.443 100.834 251.704 100.834 252.024C100.834 252.355 100.727 252.627 100.514 252.84C100.311 253.043 100.05 253.144 99.7295 253.144C99.4202 253.144 99.1588 253.043 98.9455 252.84C98.7428 252.627 98.6415 252.355 98.6415 252.024C98.6415 251.704 98.7428 251.443 98.9455 251.24C99.1588 251.037 99.4202 250.936 99.7295 250.936ZM110.676 247.144C111.07 246.739 111.39 246.333 111.636 245.928C111.892 245.512 112.02 245.149 112.02 244.84C112.02 244.403 111.86 244.067 111.54 243.832C111.22 243.597 110.777 243.48 110.212 243.48C109.721 243.48 109.198 243.603 108.644 243.848C108.089 244.093 107.566 244.429 107.076 244.856L106.228 243.32C106.878 242.819 107.566 242.424 108.292 242.136C109.017 241.848 109.758 241.704 110.516 241.704C111.262 241.704 111.913 241.821 112.468 242.056C113.022 242.291 113.46 242.621 113.78 243.048C114.1 243.475 114.26 243.971 114.26 244.536C114.26 245.101 114.057 245.699 113.652 246.328C113.257 246.947 112.75 247.576 112.132 248.216L108.596 251.88L108.308 251.224H114.74V253H106.452V251.528L110.676 247.144ZM120.113 247.144C120.508 246.739 120.828 246.333 121.073 245.928C121.329 245.512 121.457 245.149 121.457 244.84C121.457 244.403 121.297 244.067 120.977 243.832C120.657 243.597 120.215 243.48 119.649 243.48C119.159 243.48 118.636 243.603 118.081 243.848C117.527 244.093 117.004 244.429 116.513 244.856L115.665 243.32C116.316 242.819 117.004 242.424 117.729 242.136C118.455 241.848 119.196 241.704 119.953 241.704C120.7 241.704 121.351 241.821 121.905 242.056C122.46 242.291 122.897 242.621 123.217 243.048C123.537 243.475 123.697 243.971 123.697 244.536C123.697 245.101 123.495 245.699 123.089 246.328C122.695 246.947 122.188 247.576 121.569 248.216L118.033 251.88L117.745 251.224H124.177V253H115.889V251.528L120.113 247.144ZM124.735 241.8H129.231V253H127.087V242.648L128.031 243.592H124.735V241.8ZM130.956 250.312V248.808L134.604 241.8H136.668L132.796 249.352L132.284 248.552H139.916V250.312H130.956ZM136.316 245.912H138.3V253H136.316V245.912ZM143.99 246.856L143.366 245.928C143.537 245.917 143.755 245.912 144.022 245.912C144.289 245.901 144.555 245.896 144.822 245.896C145.089 245.896 145.307 245.896 145.478 245.896C146.342 245.896 147.089 246.045 147.718 246.344C148.347 246.643 148.833 247.048 149.174 247.56C149.526 248.061 149.702 248.643 149.702 249.304C149.702 250.061 149.521 250.728 149.158 251.304C148.795 251.869 148.283 252.312 147.622 252.632C146.971 252.941 146.203 253.096 145.318 253.096C144.614 253.096 143.878 252.979 143.11 252.744C142.353 252.499 141.681 252.179 141.094 251.784L141.942 250.184C142.411 250.547 142.918 250.835 143.462 251.048C144.006 251.251 144.555 251.352 145.11 251.352C145.814 251.352 146.369 251.181 146.774 250.84C147.19 250.499 147.398 250.035 147.398 249.448C147.398 248.893 147.195 248.456 146.79 248.136C146.395 247.816 145.793 247.656 144.982 247.656C144.854 247.656 144.662 247.661 144.406 247.672C144.161 247.672 143.889 247.677 143.59 247.688C143.291 247.699 142.998 247.715 142.71 247.736C142.433 247.757 142.198 247.779 142.006 247.8V241.8H149.206V243.576H143.03L143.99 242.632V246.856ZM158.584 244.072C158.242 243.848 157.858 243.677 157.432 243.56C157.005 243.432 156.573 243.368 156.136 243.368C155.453 243.368 154.888 243.533 154.44 243.864C153.992 244.184 153.661 244.637 153.448 245.224C153.234 245.8 153.138 246.483 153.16 247.272C153.448 246.771 153.842 246.392 154.344 246.136C154.845 245.869 155.432 245.736 156.104 245.736C156.85 245.736 157.49 245.885 158.024 246.184C158.568 246.472 158.984 246.888 159.272 247.432C159.57 247.965 159.72 248.595 159.72 249.32C159.72 250.088 159.554 250.755 159.224 251.32C158.893 251.885 158.429 252.323 157.832 252.632C157.234 252.941 156.53 253.096 155.72 253.096C154.77 253.096 153.949 252.877 153.256 252.44C152.562 252.003 152.029 251.379 151.656 250.568C151.293 249.747 151.112 248.765 151.112 247.624C151.112 246.429 151.309 245.389 151.704 244.504C152.109 243.619 152.68 242.931 153.416 242.44C154.152 241.949 155.016 241.704 156.008 241.704C156.573 241.704 157.165 241.784 157.784 241.944C158.402 242.104 158.941 242.312 159.4 242.568L158.584 244.072ZM155.688 247.304C155.218 247.304 154.818 247.4 154.488 247.592C154.157 247.784 153.901 248.035 153.72 248.344C153.549 248.653 153.464 248.995 153.464 249.368C153.464 249.603 153.501 249.843 153.576 250.088C153.661 250.323 153.794 250.536 153.976 250.728C154.157 250.92 154.381 251.075 154.648 251.192C154.914 251.309 155.24 251.368 155.624 251.368C156.05 251.368 156.418 251.288 156.728 251.128C157.048 250.968 157.293 250.733 157.464 250.424C157.645 250.104 157.736 249.731 157.736 249.304C157.736 248.685 157.554 248.2 157.192 247.848C156.829 247.485 156.328 247.304 155.688 247.304ZM162.277 250.712C162.607 250.947 162.986 251.128 163.413 251.256C163.839 251.373 164.266 251.432 164.693 251.432C165.386 251.432 165.951 251.272 166.389 250.952C166.837 250.621 167.162 250.163 167.365 249.576C167.578 248.979 167.679 248.291 167.669 247.512C167.37 248.024 166.975 248.413 166.485 248.68C165.994 248.936 165.407 249.064 164.725 249.064C163.999 249.064 163.365 248.92 162.821 248.632C162.287 248.333 161.877 247.917 161.589 247.384C161.301 246.84 161.157 246.205 161.157 245.48C161.157 244.701 161.322 244.035 161.653 243.48C161.983 242.915 162.442 242.477 163.029 242.168C163.626 241.859 164.325 241.704 165.125 241.704C166.074 241.704 166.89 241.923 167.573 242.36C168.255 242.797 168.783 243.427 169.157 244.248C169.53 245.059 169.717 246.035 169.717 247.176C169.717 248.371 169.514 249.411 169.109 250.296C168.714 251.181 168.149 251.869 167.413 252.36C166.687 252.851 165.829 253.096 164.837 253.096C164.261 253.096 163.663 253.016 163.045 252.856C162.437 252.696 161.903 252.483 161.445 252.216L162.277 250.712ZM165.221 243.416C164.805 243.416 164.437 243.501 164.117 243.672C163.807 243.832 163.562 244.067 163.381 244.376C163.21 244.685 163.125 245.059 163.125 245.496C163.125 246.104 163.306 246.589 163.669 246.952C164.031 247.315 164.527 247.496 165.157 247.496C165.626 247.496 166.026 247.4 166.357 247.208C166.687 247.016 166.938 246.765 167.109 246.456C167.279 246.136 167.359 245.789 167.349 245.416C167.349 245.181 167.306 244.947 167.221 244.712C167.146 244.467 167.023 244.248 166.853 244.056C166.682 243.864 166.458 243.709 166.181 243.592C165.914 243.475 165.594 243.416 165.221 243.416ZM170.707 241.8H179.347V243.32L174.739 253H172.467L177.363 242.728L177.907 243.576H171.683L172.643 242.648L172.611 245.16H170.707V241.8ZM184.79 241.704C185.568 241.704 186.24 241.827 186.806 242.072C187.371 242.307 187.808 242.643 188.118 243.08C188.427 243.517 188.582 244.035 188.582 244.632C188.582 245.165 188.438 245.64 188.15 246.056C187.872 246.461 187.494 246.781 187.014 247.016C187.664 247.251 188.182 247.619 188.566 248.12C188.95 248.611 189.142 249.192 189.142 249.864C189.142 250.525 188.966 251.096 188.614 251.576C188.262 252.056 187.76 252.429 187.11 252.696C186.459 252.963 185.691 253.096 184.806 253.096C183.92 253.096 183.152 252.968 182.502 252.712C181.851 252.445 181.35 252.072 180.998 251.592C180.646 251.112 180.47 250.547 180.47 249.896C180.47 249.213 180.672 248.621 181.078 248.12C181.483 247.619 182.022 247.251 182.694 247.016C182.182 246.76 181.776 246.424 181.478 246.008C181.179 245.581 181.03 245.101 181.03 244.568C181.03 243.971 181.184 243.464 181.494 243.048C181.803 242.621 182.235 242.291 182.79 242.056C183.355 241.821 184.022 241.704 184.79 241.704ZM184.79 247.896C184.064 247.896 183.499 248.056 183.094 248.376C182.688 248.685 182.486 249.117 182.486 249.672C182.486 250.248 182.688 250.701 183.094 251.032C183.499 251.352 184.07 251.512 184.806 251.512C185.542 251.512 186.112 251.352 186.518 251.032C186.923 250.712 187.126 250.264 187.126 249.688C187.126 249.133 186.918 248.696 186.502 248.376C186.096 248.056 185.526 247.896 184.79 247.896ZM184.806 243.16C184.187 243.16 183.702 243.299 183.35 243.576C183.008 243.853 182.838 244.243 182.838 244.744C182.838 245.245 183.008 245.635 183.35 245.912C183.702 246.189 184.187 246.328 184.806 246.328C185.435 246.328 185.915 246.189 186.246 245.912C186.587 245.635 186.758 245.245 186.758 244.744C186.758 244.243 186.587 243.853 186.246 243.576C185.915 243.299 185.435 243.16 184.806 243.16Z" fill="white"/>
<path d="M313.532 241.8H315.98L319.692 249.144L323.372 241.8H325.82V253H323.852V244.792L320.364 251.848H318.988L315.484 244.792V253H313.532V241.8ZM332.243 244.392C333.128 244.392 333.907 244.573 334.579 244.936C335.262 245.299 335.79 245.805 336.163 246.456C336.547 247.107 336.739 247.864 336.739 248.728C336.739 249.592 336.547 250.349 336.163 251C335.79 251.651 335.262 252.163 334.579 252.536C333.907 252.899 333.128 253.08 332.243 253.08C331.347 253.08 330.558 252.899 329.875 252.536C329.192 252.163 328.659 251.651 328.275 251C327.902 250.349 327.715 249.592 327.715 248.728C327.715 247.864 327.902 247.107 328.275 246.456C328.659 245.805 329.192 245.299 329.875 244.936C330.558 244.573 331.347 244.392 332.243 244.392ZM332.243 246.072C331.763 246.072 331.336 246.189 330.963 246.424C330.6 246.648 330.318 246.963 330.115 247.368C329.912 247.763 329.811 248.221 329.811 248.744C329.811 249.277 329.912 249.747 330.115 250.152C330.318 250.557 330.6 250.872 330.963 251.096C331.336 251.32 331.763 251.432 332.243 251.432C332.712 251.432 333.128 251.32 333.491 251.096C333.854 250.872 334.136 250.557 334.339 250.152C334.542 249.747 334.643 249.277 334.643 248.744C334.643 248.221 334.542 247.763 334.339 247.368C334.136 246.963 333.854 246.648 333.491 246.424C333.128 246.189 332.712 246.072 332.243 246.072ZM341.794 244.376C342.573 244.376 343.234 244.552 343.778 244.904C344.322 245.256 344.738 245.757 345.026 246.408C345.314 247.048 345.453 247.821 345.442 248.728C345.453 249.624 345.314 250.403 345.026 251.064C344.749 251.715 344.338 252.216 343.794 252.568C343.25 252.909 342.599 253.08 341.842 253.08C341.031 253.08 340.317 252.899 339.698 252.536C339.09 252.163 338.615 251.645 338.274 250.984C337.933 250.323 337.762 249.565 337.762 248.712C337.762 247.848 337.933 247.091 338.274 246.44C338.615 245.789 339.085 245.283 339.682 244.92C340.29 244.557 340.994 244.376 341.794 244.376ZM342.29 246.056C341.821 246.056 341.399 246.173 341.026 246.408C340.663 246.643 340.381 246.963 340.178 247.368C339.975 247.773 339.869 248.237 339.858 248.76C339.869 249.283 339.975 249.747 340.178 250.152C340.381 250.557 340.663 250.877 341.026 251.112C341.399 251.336 341.821 251.448 342.29 251.448C342.77 251.448 343.191 251.336 343.554 251.112C343.927 250.877 344.215 250.557 344.418 250.152C344.621 249.747 344.722 249.283 344.722 248.76C344.722 248.227 344.621 247.763 344.418 247.368C344.215 246.963 343.927 246.643 343.554 246.408C343.191 246.173 342.77 246.056 342.29 246.056ZM344.722 241.128H346.802V253H344.722V241.128ZM352.348 249.24C351.804 249.24 351.399 249.325 351.132 249.496C350.865 249.667 350.732 249.949 350.732 250.344C350.732 250.707 350.865 251 351.132 251.224C351.409 251.448 351.783 251.56 352.252 251.56C352.668 251.56 353.041 251.491 353.372 251.352C353.713 251.203 353.98 251.005 354.172 250.76C354.375 250.504 354.492 250.221 354.524 249.912L354.876 251.4C354.62 251.955 354.225 252.376 353.692 252.664C353.159 252.952 352.513 253.096 351.756 253.096C351.148 253.096 350.62 252.979 350.172 252.744C349.724 252.509 349.377 252.195 349.132 251.8C348.887 251.395 348.764 250.941 348.764 250.44C348.764 249.651 349.047 249.032 349.612 248.584C350.177 248.125 350.977 247.891 352.012 247.88H354.748V249.24H352.348ZM354.508 247.624C354.508 247.112 354.343 246.712 354.012 246.424C353.692 246.125 353.212 245.976 352.572 245.976C352.177 245.976 351.761 246.051 351.324 246.2C350.897 246.339 350.465 246.541 350.028 246.808L349.276 245.464C349.681 245.219 350.071 245.021 350.444 244.872C350.817 244.712 351.207 244.595 351.612 244.52C352.028 244.435 352.503 244.392 353.036 244.392C354.156 244.392 355.02 244.659 355.628 245.192C356.236 245.725 356.545 246.461 356.556 247.4L356.572 253H354.524L354.508 247.624ZM358.985 241.128H361.065V253H358.985V241.128ZM363.734 244.472H365.814V253H363.734V244.472ZM364.758 240.84C365.099 240.84 365.382 240.952 365.606 241.176C365.83 241.4 365.942 241.683 365.942 242.024C365.942 242.355 365.83 242.637 365.606 242.872C365.382 243.096 365.099 243.208 364.758 243.208C364.427 243.208 364.15 243.096 363.926 242.872C363.702 242.637 363.59 242.355 363.59 242.024C363.59 241.683 363.702 241.4 363.926 241.176C364.15 240.952 364.427 240.84 364.758 240.84ZM371.638 244.376C372.416 244.376 373.078 244.552 373.622 244.904C374.166 245.256 374.582 245.757 374.87 246.408C375.158 247.048 375.296 247.821 375.286 248.728C375.296 249.624 375.158 250.403 374.87 251.064C374.592 251.715 374.182 252.216 373.638 252.568C373.094 252.909 372.443 253.08 371.686 253.08C370.875 253.08 370.16 252.899 369.542 252.536C368.934 252.163 368.459 251.645 368.118 250.984C367.776 250.323 367.606 249.565 367.606 248.712C367.606 247.848 367.776 247.091 368.118 246.44C368.459 245.789 368.928 245.283 369.526 244.92C370.134 244.557 370.838 244.376 371.638 244.376ZM372.134 246.056C371.664 246.056 371.243 246.173 370.87 246.408C370.507 246.643 370.224 246.963 370.022 247.368C369.819 247.773 369.712 248.237 369.702 248.76C369.712 249.283 369.819 249.747 370.022 250.152C370.224 250.557 370.507 250.877 370.87 251.112C371.243 251.336 371.664 251.448 372.134 251.448C372.614 251.448 373.035 251.336 373.398 251.112C373.771 250.877 374.059 250.557 374.262 250.152C374.464 249.747 374.566 249.283 374.566 248.76C374.566 248.227 374.464 247.763 374.262 247.368C374.059 246.963 373.771 246.643 373.398 246.408C373.035 246.173 372.614 246.056 372.134 246.056ZM374.566 241.128H376.646V253H374.566V241.128ZM382.192 249.24C381.648 249.24 381.242 249.325 380.976 249.496C380.709 249.667 380.576 249.949 380.576 250.344C380.576 250.707 380.709 251 380.976 251.224C381.253 251.448 381.626 251.56 382.096 251.56C382.512 251.56 382.885 251.491 383.216 251.352C383.557 251.203 383.824 251.005 384.016 250.76C384.218 250.504 384.336 250.221 384.368 249.912L384.72 251.4C384.464 251.955 384.069 252.376 383.536 252.664C383.002 252.952 382.357 253.096 381.6 253.096C380.992 253.096 380.464 252.979 380.016 252.744C379.568 252.509 379.221 252.195 378.976 251.8C378.73 251.395 378.608 250.941 378.608 250.44C378.608 249.651 378.89 249.032 379.456 248.584C380.021 248.125 380.821 247.891 381.856 247.88H384.592V249.24H382.192ZM384.352 247.624C384.352 247.112 384.186 246.712 383.856 246.424C383.536 246.125 383.056 245.976 382.416 245.976C382.021 245.976 381.605 246.051 381.168 246.2C380.741 246.339 380.309 246.541 379.872 246.808L379.12 245.464C379.525 245.219 379.914 245.021 380.288 244.872C380.661 244.712 381.05 244.595 381.456 244.52C381.872 244.435 382.346 244.392 382.88 244.392C384 244.392 384.864 244.659 385.472 245.192C386.08 245.725 386.389 246.461 386.4 247.4L386.416 253H384.368L384.352 247.624ZM391.997 244.376C392.776 244.376 393.437 244.552 393.981 244.904C394.525 245.256 394.941 245.757 395.229 246.408C395.517 247.048 395.656 247.821 395.645 248.728C395.656 249.624 395.517 250.403 395.229 251.064C394.952 251.715 394.541 252.216 393.997 252.568C393.453 252.909 392.802 253.08 392.045 253.08C391.234 253.08 390.52 252.899 389.901 252.536C389.293 252.163 388.818 251.645 388.477 250.984C388.136 250.323 387.965 249.565 387.965 248.712C387.965 247.848 388.136 247.091 388.477 246.44C388.818 245.789 389.288 245.283 389.885 244.92C390.493 244.557 391.197 244.376 391.997 244.376ZM392.493 246.056C392.024 246.056 391.602 246.173 391.229 246.408C390.866 246.643 390.584 246.963 390.381 247.368C390.178 247.773 390.072 248.237 390.061 248.76C390.072 249.283 390.178 249.747 390.381 250.152C390.584 250.557 390.866 250.877 391.229 251.112C391.602 251.336 392.024 251.448 392.493 251.448C392.973 251.448 393.394 251.336 393.757 251.112C394.13 250.877 394.418 250.557 394.621 250.152C394.824 249.747 394.925 249.283 394.925 248.76C394.925 248.227 394.824 247.763 394.621 247.368C394.418 246.963 394.13 246.643 393.757 246.408C393.394 246.173 392.973 246.056 392.493 246.056ZM394.925 241.128H397.005V253H394.925V241.128ZM405.447 248.088C405.426 247.64 405.324 247.261 405.143 246.952C404.962 246.632 404.706 246.387 404.375 246.216C404.055 246.035 403.687 245.944 403.271 245.944C402.791 245.944 402.375 246.056 402.023 246.28C401.671 246.504 401.394 246.819 401.191 247.224C400.999 247.629 400.903 248.099 400.903 248.632C400.903 249.219 401.01 249.725 401.223 250.152C401.447 250.579 401.751 250.909 402.135 251.144C402.519 251.368 402.962 251.48 403.463 251.48C404.37 251.48 405.143 251.155 405.783 250.504L406.887 251.608C406.46 252.077 405.943 252.44 405.335 252.696C404.727 252.952 404.05 253.08 403.303 253.08C402.407 253.08 401.628 252.899 400.967 252.536C400.316 252.163 399.804 251.656 399.431 251.016C399.068 250.365 398.887 249.608 398.887 248.744C398.887 247.88 399.068 247.123 399.431 246.472C399.804 245.821 400.316 245.315 400.967 244.952C401.628 244.589 402.386 244.403 403.239 244.392C404.252 244.392 405.068 244.6 405.687 245.016C406.316 245.432 406.764 246.019 407.031 246.776C407.298 247.523 407.394 248.413 407.319 249.448H400.599V248.088H405.447ZM409.636 246.184C409.956 246.184 410.217 246.285 410.42 246.488C410.633 246.691 410.74 246.952 410.74 247.272C410.74 247.603 410.633 247.875 410.42 248.088C410.217 248.291 409.956 248.392 409.636 248.392C409.326 248.392 409.065 248.291 408.852 248.088C408.649 247.875 408.548 247.603 408.548 247.272C408.548 246.952 408.649 246.691 408.852 246.488C409.065 246.285 409.326 246.184 409.636 246.184ZM409.636 250.936C409.956 250.936 410.217 251.037 410.42 251.24C410.633 251.443 410.74 251.704 410.74 252.024C410.74 252.355 410.633 252.627 410.42 252.84C410.217 253.043 409.956 253.144 409.636 253.144C409.326 253.144 409.065 253.043 408.852 252.84C408.649 252.627 408.548 252.355 408.548 252.024C408.548 251.704 408.649 251.443 408.852 251.24C409.065 251.037 409.326 250.936 409.636 250.936ZM417.126 241.8H424.854V243.592H419.27V246.712H424.342V248.488H419.27V253H417.126V241.8ZM432.15 248.088C432.129 247.64 432.027 247.261 431.846 246.952C431.665 246.632 431.409 246.387 431.078 246.216C430.758 246.035 430.39 245.944 429.974 245.944C429.494 245.944 429.078 246.056 428.726 246.28C428.374 246.504 428.097 246.819 427.894 247.224C427.702 247.629 427.606 248.099 427.606 248.632C427.606 249.219 427.713 249.725 427.926 250.152C428.15 250.579 428.454 250.909 428.838 251.144C429.222 251.368 429.665 251.48 430.166 251.48C431.073 251.48 431.846 251.155 432.486 250.504L433.59 251.608C433.163 252.077 432.646 252.44 432.038 252.696C431.43 252.952 430.753 253.08 430.006 253.08C429.11 253.08 428.331 252.899 427.67 252.536C427.019 252.163 426.507 251.656 426.134 251.016C425.771 250.365 425.59 249.608 425.59 248.744C425.59 247.88 425.771 247.123 426.134 246.472C426.507 245.821 427.019 245.315 427.67 244.952C428.331 244.589 429.089 244.403 429.942 244.392C430.955 244.392 431.771 244.6 432.39 245.016C433.019 245.432 433.467 246.019 433.734 246.776C434.001 247.523 434.097 248.413 434.022 249.448H427.302V248.088H432.15ZM440.835 246.28C440.238 246.237 439.72 246.328 439.283 246.552C438.846 246.765 438.51 247.075 438.275 247.48C438.04 247.885 437.923 248.349 437.923 248.872L437.363 248.808C437.363 247.859 437.502 247.059 437.779 246.408C438.056 245.747 438.456 245.245 438.979 244.904C439.502 244.563 440.12 244.392 440.835 244.392V246.28ZM435.843 244.472H437.923V253H435.843V244.472ZM447.288 246.28C446.691 246.237 446.173 246.328 445.736 246.552C445.299 246.765 444.963 247.075 444.728 247.48C444.493 247.885 444.376 248.349 444.376 248.872L443.816 248.808C443.816 247.859 443.955 247.059 444.232 246.408C444.509 245.747 444.909 245.245 445.432 244.904C445.955 244.563 446.573 244.392 447.288 244.392V246.28ZM442.296 244.472H444.376V253H442.296V244.472ZM452.493 244.392C453.378 244.392 454.157 244.573 454.829 244.936C455.512 245.299 456.04 245.805 456.413 246.456C456.797 247.107 456.989 247.864 456.989 248.728C456.989 249.592 456.797 250.349 456.413 251C456.04 251.651 455.512 252.163 454.829 252.536C454.157 252.899 453.378 253.08 452.493 253.08C451.597 253.08 450.808 252.899 450.125 252.536C449.442 252.163 448.909 251.651 448.525 251C448.152 250.349 447.965 249.592 447.965 248.728C447.965 247.864 448.152 247.107 448.525 246.456C448.909 245.805 449.442 245.299 450.125 244.936C450.808 244.573 451.597 244.392 452.493 244.392ZM452.493 246.072C452.013 246.072 451.586 246.189 451.213 246.424C450.85 246.648 450.568 246.963 450.365 247.368C450.162 247.763 450.061 248.221 450.061 248.744C450.061 249.277 450.162 249.747 450.365 250.152C450.568 250.557 450.85 250.872 451.213 251.096C451.586 251.32 452.013 251.432 452.493 251.432C452.962 251.432 453.378 251.32 453.741 251.096C454.104 250.872 454.386 250.557 454.589 250.152C454.792 249.747 454.893 249.277 454.893 248.744C454.893 248.221 454.792 247.763 454.589 247.368C454.386 246.963 454.104 246.648 453.741 246.424C453.378 246.189 452.962 246.072 452.493 246.072ZM457.187 244.472H459.363L461.603 251.08L463.795 244.472H465.891L462.627 253H460.483L457.187 244.472ZM467.093 244.472H469.173V253H467.093V244.472ZM468.117 240.84C468.458 240.84 468.741 240.952 468.965 241.176C469.189 241.4 469.301 241.683 469.301 242.024C469.301 242.355 469.189 242.637 468.965 242.872C468.741 243.096 468.458 243.208 468.117 243.208C467.786 243.208 467.509 243.096 467.285 242.872C467.061 242.637 466.949 242.355 466.949 242.024C466.949 241.683 467.061 241.4 467.285 241.176C467.509 240.952 467.786 240.84 468.117 240.84ZM474.629 249.24C474.085 249.24 473.68 249.325 473.413 249.496C473.146 249.667 473.013 249.949 473.013 250.344C473.013 250.707 473.146 251 473.413 251.224C473.69 251.448 474.064 251.56 474.533 251.56C474.949 251.56 475.322 251.491 475.653 251.352C475.994 251.203 476.261 251.005 476.453 250.76C476.656 250.504 476.773 250.221 476.805 249.912L477.157 251.4C476.901 251.955 476.506 252.376 475.973 252.664C475.44 252.952 474.794 253.096 474.037 253.096C473.429 253.096 472.901 252.979 472.453 252.744C472.005 252.509 471.658 252.195 471.413 251.8C471.168 251.395 471.045 250.941 471.045 250.44C471.045 249.651 471.328 249.032 471.893 248.584C472.458 248.125 473.258 247.891 474.293 247.88H477.029V249.24H474.629ZM476.789 247.624C476.789 247.112 476.624 246.712 476.293 246.424C475.973 246.125 475.493 245.976 474.853 245.976C474.458 245.976 474.042 246.051 473.605 246.2C473.178 246.339 472.746 246.541 472.309 246.808L471.557 245.464C471.962 245.219 472.352 245.021 472.725 244.872C473.098 244.712 473.488 244.595 473.893 244.52C474.309 244.435 474.784 244.392 475.317 244.392C476.437 244.392 477.301 244.659 477.909 245.192C478.517 245.725 478.826 246.461 478.837 247.4L478.853 253H476.805L476.789 247.624ZM475.733 240.856L477.733 241.672L475.685 243.288L474.069 243.128L475.733 240.856ZM486.179 246.28C485.581 246.237 485.064 246.328 484.627 246.552C484.189 246.765 483.853 247.075 483.619 247.48C483.384 247.885 483.267 248.349 483.267 248.872L482.707 248.808C482.707 247.859 482.845 247.059 483.123 246.408C483.4 245.747 483.8 245.245 484.323 244.904C484.845 244.563 485.464 244.392 486.179 244.392V246.28ZM481.187 244.472H483.267V253H481.187V244.472ZM487.64 244.472H489.72V253H487.64V244.472ZM488.664 240.84C489.005 240.84 489.288 240.952 489.512 241.176C489.736 241.4 489.848 241.683 489.848 242.024C489.848 242.355 489.736 242.637 489.512 242.872C489.288 243.096 489.005 243.208 488.664 243.208C488.333 243.208 488.056 243.096 487.832 242.872C487.608 242.637 487.496 242.355 487.496 242.024C487.496 241.683 487.608 241.4 487.832 241.176C488.056 240.952 488.333 240.84 488.664 240.84ZM496.04 244.392C496.925 244.392 497.704 244.573 498.376 244.936C499.059 245.299 499.587 245.805 499.96 246.456C500.344 247.107 500.536 247.864 500.536 248.728C500.536 249.592 500.344 250.349 499.96 251C499.587 251.651 499.059 252.163 498.376 252.536C497.704 252.899 496.925 253.08 496.04 253.08C495.144 253.08 494.355 252.899 493.672 252.536C492.989 252.163 492.456 251.651 492.072 251C491.699 250.349 491.512 249.592 491.512 248.728C491.512 247.864 491.699 247.107 492.072 246.456C492.456 245.805 492.989 245.299 493.672 244.936C494.355 244.573 495.144 244.392 496.04 244.392ZM496.04 246.072C495.56 246.072 495.133 246.189 494.76 246.424C494.397 246.648 494.115 246.963 493.912 247.368C493.709 247.763 493.608 248.221 493.608 248.744C493.608 249.277 493.709 249.747 493.912 250.152C494.115 250.557 494.397 250.872 494.76 251.096C495.133 251.32 495.56 251.432 496.04 251.432C496.509 251.432 496.925 251.32 497.288 251.096C497.651 250.872 497.933 250.557 498.136 250.152C498.339 249.747 498.44 249.277 498.44 248.744C498.44 248.221 498.339 247.763 498.136 247.368C497.933 246.963 497.651 246.648 497.288 246.424C496.925 246.189 496.509 246.072 496.04 246.072ZM505.391 241.8H507.695L510.991 250.744L514.303 241.8H516.543L512.047 253H509.823L505.391 241.8ZM522.76 248.088C522.738 247.64 522.637 247.261 522.456 246.952C522.274 246.632 522.018 246.387 521.688 246.216C521.368 246.035 521 245.944 520.584 245.944C520.104 245.944 519.688 246.056 519.336 246.28C518.984 246.504 518.706 246.819 518.504 247.224C518.312 247.629 518.216 248.099 518.216 248.632C518.216 249.219 518.322 249.725 518.536 250.152C518.76 250.579 519.064 250.909 519.448 251.144C519.832 251.368 520.274 251.48 520.776 251.48C521.682 251.48 522.456 251.155 523.096 250.504L524.2 251.608C523.773 252.077 523.256 252.44 522.648 252.696C522.04 252.952 521.362 253.08 520.616 253.08C519.72 253.08 518.941 252.899 518.28 252.536C517.629 252.163 517.117 251.656 516.743 251.016C516.381 250.365 516.2 249.608 516.2 248.744C516.2 247.88 516.381 247.123 516.743 246.472C517.117 245.821 517.629 245.315 518.28 244.952C518.941 244.589 519.698 244.403 520.552 244.392C521.565 244.392 522.381 244.6 523 245.016C523.629 245.432 524.077 246.019 524.344 246.776C524.61 247.523 524.706 248.413 524.632 249.448H517.912V248.088H522.76ZM531.444 246.28C530.847 246.237 530.33 246.328 529.892 246.552C529.455 246.765 529.119 247.075 528.884 247.48C528.65 247.885 528.532 248.349 528.532 248.872L527.972 248.808C527.972 247.859 528.111 247.059 528.388 246.408C528.666 245.747 529.066 245.245 529.588 244.904C530.111 244.563 530.73 244.392 531.444 244.392V246.28ZM526.452 244.472H528.532V253H526.452V244.472ZM536.153 244.376C536.932 244.376 537.593 244.552 538.137 244.904C538.681 245.256 539.097 245.757 539.385 246.408C539.673 247.048 539.812 247.821 539.801 248.728C539.812 249.624 539.673 250.403 539.385 251.064C539.108 251.715 538.697 252.216 538.153 252.568C537.609 252.909 536.959 253.08 536.201 253.08C535.391 253.08 534.676 252.899 534.057 252.536C533.449 252.163 532.975 251.645 532.633 250.984C532.292 250.323 532.121 249.565 532.121 248.712C532.121 247.848 532.292 247.091 532.633 246.44C532.975 245.789 533.444 245.283 534.041 244.92C534.649 244.557 535.353 244.376 536.153 244.376ZM536.649 246.056C536.18 246.056 535.759 246.173 535.385 246.408C535.023 246.643 534.74 246.963 534.537 247.368C534.335 247.773 534.228 248.237 534.217 248.76C534.228 249.283 534.335 249.747 534.537 250.152C534.74 250.557 535.023 250.877 535.385 251.112C535.759 251.336 536.18 251.448 536.649 251.448C537.129 251.448 537.551 251.336 537.913 251.112C538.287 250.877 538.575 250.557 538.777 250.152C538.98 249.747 539.081 249.283 539.081 248.76C539.081 248.227 538.98 247.763 538.777 247.368C538.575 246.963 538.287 246.643 537.913 246.408C537.551 246.173 537.129 246.056 536.649 246.056ZM539.081 241.128H541.161V253H539.081V241.128ZM549.603 248.088C549.582 247.64 549.481 247.261 549.299 246.952C549.118 246.632 548.862 246.387 548.531 246.216C548.211 246.035 547.843 245.944 547.427 245.944C546.947 245.944 546.531 246.056 546.179 246.28C545.827 246.504 545.55 246.819 545.347 247.224C545.155 247.629 545.059 248.099 545.059 248.632C545.059 249.219 545.166 249.725 545.379 250.152C545.603 250.579 545.907 250.909 546.291 251.144C546.675 251.368 547.118 251.48 547.619 251.48C548.526 251.48 549.299 251.155 549.939 250.504L551.043 251.608C550.617 252.077 550.099 252.44 549.491 252.696C548.883 252.952 548.206 253.08 547.459 253.08C546.563 253.08 545.785 252.899 545.123 252.536C544.473 252.163 543.961 251.656 543.587 251.016C543.225 250.365 543.043 249.608 543.043 248.744C543.043 247.88 543.225 247.123 543.587 246.472C543.961 245.821 544.473 245.315 545.123 244.952C545.785 244.589 546.542 244.403 547.395 244.392C548.409 244.392 549.225 244.6 549.843 245.016C550.473 245.432 550.921 246.019 551.187 246.776C551.454 247.523 551.55 248.413 551.475 249.448H544.755V248.088H549.603Z" fill="white"/>
<path d="M77.2467 302C68.0152 302 58.7837 302 49.5537 302C47.6751 302 47 301.29 47 299.321C47 293.096 47 286.872 47 280.646C46.9985 278.738 47.6901 278.022 49.5298 278.022C63.4766 278.022 77.4233 277.96 91.3686 278.045C99.3202 278.093 105.537 281.642 109.778 288.702C110.484 289.879 110.963 291.209 111.516 292.483C113.204 296.378 110.339 301.998 105.089 301.998C101.422 301.998 97.7544 301.998 94.087 301.998C88.4736 301.998 82.8601 301.998 77.2467 301.998V302ZM88.963 288.855H104.809C100.597 283.623 95.1962 281.952 88.963 282.447V288.855ZM51.2497 282.419V288.856H59.5352V282.419H51.2497ZM63.8074 288.862H72.0943V282.427H63.8074V288.864V288.862ZM84.6774 288.883V282.448H76.3919V288.886H84.6774V288.883Z" fill="white"/>
<path d="M78.5138 306.003C88.8985 306.003 99.2846 306.001 109.669 306.004C111.421 306.004 112.394 307.241 111.848 308.737C111.57 309.5 110.976 309.861 110.183 309.983C110.037 310.006 109.886 309.999 109.737 309.999C88.9164 309.999 68.0963 310 47.2747 309.999C45.8055 309.999 44.961 309.216 45.0014 307.927C45.0343 306.846 45.7771 306.097 46.9085 306.011C47.1566 305.993 47.4062 306.003 47.6558 306.003C57.9418 306.003 68.2278 306.003 78.5123 306.003H78.5138Z" fill="white"/>
<defs>
<radialGradient id="paint0_radial_376_362" cx="0" cy="0" r="1" gradientTransform="matrix(-939.902 528.733 -911.974 -1619.84 696.5 -46.4999)" gradientUnits="userSpaceOnUse">
<stop stop-color="#ACFDBE"/>
<stop offset="1" stop-color="#2ACABD"/>
</radialGradient>
</defs>
</svg>
