<svg width="67" height="32" viewBox="0 0 67 32" fill="none" xmlns="http://www.w3.org/2000/svg">
<path d="M32.2467 24C23.0152 24 13.7837 24 4.55374 24C2.67511 24 2 23.2903 2 21.3214C2 15.0957 2 8.87164 2 2.64598C1.99851 0.737814 2.69008 0.0218624 4.52979 0.0218624C18.4766 0.0218624 32.4233 -0.0403942 46.3686 0.0452086C54.3202 0.0934575 60.5369 3.64209 64.7777 10.702C65.4842 11.8786 65.9632 13.2094 66.5156 14.4825C68.2041 18.3782 65.339 23.9984 60.0893 23.9984C56.4219 23.9984 52.7544 23.9984 49.087 23.9984C43.4736 23.9984 37.8601 23.9984 32.2467 23.9984V24ZM43.963 10.8545H59.8094C55.5971 5.6234 50.1962 3.95181 43.963 4.44675V10.8545ZM6.24975 4.41874V10.8561H14.5352V4.41874H6.24975ZM18.8074 10.8623H27.0943V4.42652H18.8074V10.8639V10.8623ZM39.6774 10.8825V4.44831H31.3919V10.8856H39.6774V10.8825Z" fill="white"/>
<path d="M33.5138 28.0027C43.8985 28.0027 54.2846 28.0013 64.6693 28.0041C66.421 28.0041 67.394 29.2406 66.8484 30.7367C66.5704 31.4998 65.9756 31.8606 65.1834 31.9833C65.0369 32.0061 64.886 31.9989 64.7365 31.9989C43.9164 31.9989 23.0963 32.0004 2.27471 31.9989C0.805491 31.9989 -0.0389714 31.216 0.00138348 29.9267C0.0342652 28.8456 0.777093 28.0968 1.90852 28.0112C2.15663 27.9927 2.40623 28.0027 2.65583 28.0027C12.9418 28.0027 23.2278 28.0027 33.5123 28.0027H33.5138Z" fill="white"/>
</svg>
